<mxfile host="Electron" agent="Mozilla/5.0 (Windows NT 10.0; Win64; x64) AppleWebKit/537.36 (KHTML, like Gecko) draw.io/26.0.3 Chrome/130.0.6723.137 Electron/33.2.1 Safari/537.36" version="26.0.3">
  <diagram name="Page-1" id="wbxDOFEe-xMBPTPI3C5p">
    <mxGraphModel dx="4185" dy="2940" grid="1" gridSize="10" guides="1" tooltips="1" connect="1" arrows="1" fold="1" page="1" pageScale="1" pageWidth="1100" pageHeight="850" math="0" shadow="0">
      <root>
        <mxCell id="0" />
        <mxCell id="1" parent="0" />
        <mxCell id="ih9rq5GZIrlL_QUmLxiV-168" value="" style="rounded=0;whiteSpace=wrap;html=1;fillColor=#FFF2CC;" parent="1" vertex="1">
          <mxGeometry x="1800" y="200" width="260" height="250" as="geometry" />
        </mxCell>
        <mxCell id="ih9rq5GZIrlL_QUmLxiV-167" value="" style="rounded=0;whiteSpace=wrap;html=1;fillColor=#FFF2CC;" parent="1" vertex="1">
          <mxGeometry x="1498" y="200" width="280" height="250" as="geometry" />
        </mxCell>
        <mxCell id="ih9rq5GZIrlL_QUmLxiV-166" value="" style="rounded=0;whiteSpace=wrap;html=1;fillColor=#FFF2CC;" parent="1" vertex="1">
          <mxGeometry x="1240" y="200" width="240" height="250" as="geometry" />
        </mxCell>
        <mxCell id="ih9rq5GZIrlL_QUmLxiV-165" value="" style="rounded=0;whiteSpace=wrap;html=1;fillColor=#FFF2CC;" parent="1" vertex="1">
          <mxGeometry x="1290" y="480" width="340" height="270" as="geometry" />
        </mxCell>
        <mxCell id="ih9rq5GZIrlL_QUmLxiV-164" value="" style="rounded=0;whiteSpace=wrap;html=1;fillColor=#FFF2CC;" parent="1" vertex="1">
          <mxGeometry x="1671" y="480" width="340" height="270" as="geometry" />
        </mxCell>
        <mxCell id="ih9rq5GZIrlL_QUmLxiV-16" value="" style="rounded=0;whiteSpace=wrap;html=1;shadow=1;fillColor=#FFF2CC;" parent="1" vertex="1">
          <mxGeometry x="210" y="220" width="160" height="270" as="geometry" />
        </mxCell>
        <mxCell id="ih9rq5GZIrlL_QUmLxiV-2" value="Fecha" style="text;html=1;align=center;verticalAlign=middle;resizable=0;points=[];autosize=1;strokeColor=none;fillColor=none;" parent="1" vertex="1">
          <mxGeometry x="210" y="220" width="60" height="30" as="geometry" />
        </mxCell>
        <mxCell id="ih9rq5GZIrlL_QUmLxiV-7" style="edgeStyle=orthogonalEdgeStyle;rounded=0;orthogonalLoop=1;jettySize=auto;html=1;entryX=0.5;entryY=1;entryDx=0;entryDy=0;" parent="1" source="ih9rq5GZIrlL_QUmLxiV-3" target="ih9rq5GZIrlL_QUmLxiV-4" edge="1">
          <mxGeometry relative="1" as="geometry" />
        </mxCell>
        <mxCell id="ih9rq5GZIrlL_QUmLxiV-3" value="Día" style="rounded=0;whiteSpace=wrap;html=1;" parent="1" vertex="1">
          <mxGeometry x="260" y="440" width="55" height="30" as="geometry" />
        </mxCell>
        <mxCell id="ih9rq5GZIrlL_QUmLxiV-13" style="edgeStyle=orthogonalEdgeStyle;rounded=0;orthogonalLoop=1;jettySize=auto;html=1;entryX=0.5;entryY=1;entryDx=0;entryDy=0;" parent="1" source="ih9rq5GZIrlL_QUmLxiV-4" target="ih9rq5GZIrlL_QUmLxiV-5" edge="1">
          <mxGeometry relative="1" as="geometry" />
        </mxCell>
        <mxCell id="ih9rq5GZIrlL_QUmLxiV-4" value="Semana" style="rounded=0;whiteSpace=wrap;html=1;" parent="1" vertex="1">
          <mxGeometry x="260" y="380" width="55" height="30" as="geometry" />
        </mxCell>
        <mxCell id="ih9rq5GZIrlL_QUmLxiV-15" style="edgeStyle=orthogonalEdgeStyle;rounded=0;orthogonalLoop=1;jettySize=auto;html=1;entryX=0.5;entryY=1;entryDx=0;entryDy=0;" parent="1" source="ih9rq5GZIrlL_QUmLxiV-5" target="ih9rq5GZIrlL_QUmLxiV-6" edge="1">
          <mxGeometry relative="1" as="geometry" />
        </mxCell>
        <mxCell id="ih9rq5GZIrlL_QUmLxiV-5" value="Mes" style="rounded=0;whiteSpace=wrap;html=1;" parent="1" vertex="1">
          <mxGeometry x="260" y="320" width="55" height="30" as="geometry" />
        </mxCell>
        <mxCell id="ih9rq5GZIrlL_QUmLxiV-6" value="Año" style="rounded=0;whiteSpace=wrap;html=1;" parent="1" vertex="1">
          <mxGeometry x="260" y="260" width="55" height="30" as="geometry" />
        </mxCell>
        <mxCell id="ih9rq5GZIrlL_QUmLxiV-17" value="" style="rounded=0;whiteSpace=wrap;html=1;shadow=1;fillColor=#FFF2CC;" parent="1" vertex="1">
          <mxGeometry x="400" y="220" width="160" height="150" as="geometry" />
        </mxCell>
        <mxCell id="ih9rq5GZIrlL_QUmLxiV-18" value="Agente" style="text;html=1;align=center;verticalAlign=middle;resizable=0;points=[];autosize=1;strokeColor=none;fillColor=none;" parent="1" vertex="1">
          <mxGeometry x="400" y="220" width="60" height="30" as="geometry" />
        </mxCell>
        <mxCell id="ih9rq5GZIrlL_QUmLxiV-21" style="edgeStyle=orthogonalEdgeStyle;rounded=0;orthogonalLoop=1;jettySize=auto;html=1;entryX=0.5;entryY=1;entryDx=0;entryDy=0;" parent="1" source="ih9rq5GZIrlL_QUmLxiV-22" target="ih9rq5GZIrlL_QUmLxiV-24" edge="1">
          <mxGeometry relative="1" as="geometry" />
        </mxCell>
        <mxCell id="ih9rq5GZIrlL_QUmLxiV-22" value="Agente" style="rounded=0;whiteSpace=wrap;html=1;" parent="1" vertex="1">
          <mxGeometry x="450" y="320" width="55" height="30" as="geometry" />
        </mxCell>
        <mxCell id="ih9rq5GZIrlL_QUmLxiV-24" value="Tipo" style="rounded=0;whiteSpace=wrap;html=1;" parent="1" vertex="1">
          <mxGeometry x="450" y="260" width="55" height="30" as="geometry" />
        </mxCell>
        <mxCell id="ih9rq5GZIrlL_QUmLxiV-26" value="" style="rounded=0;whiteSpace=wrap;html=1;shadow=1;fillColor=#FFF2CC;" parent="1" vertex="1">
          <mxGeometry x="400" y="390" width="160" height="120" as="geometry" />
        </mxCell>
        <mxCell id="ih9rq5GZIrlL_QUmLxiV-27" value="Cliente" style="text;html=1;align=center;verticalAlign=middle;resizable=0;points=[];autosize=1;strokeColor=none;fillColor=none;" parent="1" vertex="1">
          <mxGeometry x="400" y="390" width="60" height="30" as="geometry" />
        </mxCell>
        <mxCell id="ih9rq5GZIrlL_QUmLxiV-102" style="edgeStyle=orthogonalEdgeStyle;rounded=0;orthogonalLoop=1;jettySize=auto;html=1;entryX=0.5;entryY=1;entryDx=0;entryDy=0;" parent="1" source="ih9rq5GZIrlL_QUmLxiV-29" target="ih9rq5GZIrlL_QUmLxiV-101" edge="1">
          <mxGeometry relative="1" as="geometry" />
        </mxCell>
        <mxCell id="ih9rq5GZIrlL_QUmLxiV-29" value="Cliente" style="rounded=0;whiteSpace=wrap;html=1;" parent="1" vertex="1">
          <mxGeometry x="452.5" y="470" width="55" height="30" as="geometry" />
        </mxCell>
        <mxCell id="ih9rq5GZIrlL_QUmLxiV-31" value="" style="rounded=0;whiteSpace=wrap;html=1;shadow=1;fillColor=#FFF2CC;" parent="1" vertex="1">
          <mxGeometry x="210" y="560" width="160" height="80" as="geometry" />
        </mxCell>
        <mxCell id="ih9rq5GZIrlL_QUmLxiV-32" value="Atencion" style="text;html=1;align=center;verticalAlign=middle;resizable=0;points=[];autosize=1;strokeColor=none;fillColor=none;" parent="1" vertex="1">
          <mxGeometry x="210" y="560" width="70" height="30" as="geometry" />
        </mxCell>
        <mxCell id="ih9rq5GZIrlL_QUmLxiV-33" value="cantidad" style="rounded=0;whiteSpace=wrap;html=1;" parent="1" vertex="1">
          <mxGeometry x="240" y="590" width="100" height="30" as="geometry" />
        </mxCell>
        <mxCell id="ih9rq5GZIrlL_QUmLxiV-34" value="" style="rounded=0;whiteSpace=wrap;html=1;shadow=1;fillColor=#FFF2CC;" parent="1" vertex="1">
          <mxGeometry x="400" y="560" width="160" height="80" as="geometry" />
        </mxCell>
        <mxCell id="ih9rq5GZIrlL_QUmLxiV-35" value="Ingresos" style="text;html=1;align=center;verticalAlign=middle;resizable=0;points=[];autosize=1;strokeColor=none;fillColor=none;" parent="1" vertex="1">
          <mxGeometry x="400" y="560" width="70" height="30" as="geometry" />
        </mxCell>
        <mxCell id="ih9rq5GZIrlL_QUmLxiV-36" value="suma" style="rounded=0;whiteSpace=wrap;html=1;" parent="1" vertex="1">
          <mxGeometry x="430" y="590" width="100" height="30" as="geometry" />
        </mxCell>
        <mxCell id="ih9rq5GZIrlL_QUmLxiV-37" value="" style="rounded=0;whiteSpace=wrap;html=1;shadow=1;fillColor=#FFF2CC;" parent="1" vertex="1">
          <mxGeometry x="590" y="560" width="160" height="80" as="geometry" />
        </mxCell>
        <mxCell id="ih9rq5GZIrlL_QUmLxiV-38" value="Ventas" style="text;html=1;align=center;verticalAlign=middle;resizable=0;points=[];autosize=1;strokeColor=none;fillColor=none;" parent="1" vertex="1">
          <mxGeometry x="595" y="560" width="60" height="30" as="geometry" />
        </mxCell>
        <mxCell id="ih9rq5GZIrlL_QUmLxiV-39" value="cantidad" style="rounded=0;whiteSpace=wrap;html=1;" parent="1" vertex="1">
          <mxGeometry x="620" y="590" width="100" height="30" as="geometry" />
        </mxCell>
        <mxCell id="ih9rq5GZIrlL_QUmLxiV-40" value="" style="rounded=0;whiteSpace=wrap;html=1;shadow=1;fillColor=#FFF2CC;" parent="1" vertex="1">
          <mxGeometry x="780" y="560" width="160" height="80" as="geometry" />
        </mxCell>
        <mxCell id="ih9rq5GZIrlL_QUmLxiV-41" value="Duración" style="text;html=1;align=center;verticalAlign=middle;resizable=0;points=[];autosize=1;strokeColor=none;fillColor=none;" parent="1" vertex="1">
          <mxGeometry x="790" y="560" width="70" height="30" as="geometry" />
        </mxCell>
        <mxCell id="ih9rq5GZIrlL_QUmLxiV-42" value="suma" style="rounded=0;whiteSpace=wrap;html=1;" parent="1" vertex="1">
          <mxGeometry x="810" y="590" width="100" height="30" as="geometry" />
        </mxCell>
        <mxCell id="ih9rq5GZIrlL_QUmLxiV-43" value="" style="rounded=0;whiteSpace=wrap;html=1;shadow=1;fillColor=#FFF2CC;" parent="1" vertex="1">
          <mxGeometry x="595" y="220" width="160" height="150" as="geometry" />
        </mxCell>
        <mxCell id="ih9rq5GZIrlL_QUmLxiV-44" value="Satisfacción" style="text;html=1;align=center;verticalAlign=middle;resizable=0;points=[];autosize=1;strokeColor=none;fillColor=none;" parent="1" vertex="1">
          <mxGeometry x="595" y="220" width="90" height="30" as="geometry" />
        </mxCell>
        <mxCell id="ih9rq5GZIrlL_QUmLxiV-45" style="edgeStyle=orthogonalEdgeStyle;rounded=0;orthogonalLoop=1;jettySize=auto;html=1;entryX=0.5;entryY=1;entryDx=0;entryDy=0;" parent="1" source="ih9rq5GZIrlL_QUmLxiV-46" target="ih9rq5GZIrlL_QUmLxiV-47" edge="1">
          <mxGeometry relative="1" as="geometry" />
        </mxCell>
        <mxCell id="ih9rq5GZIrlL_QUmLxiV-46" value="Valor" style="rounded=0;whiteSpace=wrap;html=1;" parent="1" vertex="1">
          <mxGeometry x="630" y="320" width="80" height="30" as="geometry" />
        </mxCell>
        <mxCell id="ih9rq5GZIrlL_QUmLxiV-47" value="Pregunta" style="rounded=0;whiteSpace=wrap;html=1;" parent="1" vertex="1">
          <mxGeometry x="630" y="260" width="80" height="30" as="geometry" />
        </mxCell>
        <mxCell id="ih9rq5GZIrlL_QUmLxiV-48" value="" style="rounded=0;whiteSpace=wrap;html=1;shadow=1;fillColor=#FFF2CC;" parent="1" vertex="1">
          <mxGeometry x="595" y="390" width="160" height="150" as="geometry" />
        </mxCell>
        <mxCell id="ih9rq5GZIrlL_QUmLxiV-49" value="Producto" style="text;html=1;align=center;verticalAlign=middle;resizable=0;points=[];autosize=1;strokeColor=none;fillColor=none;" parent="1" vertex="1">
          <mxGeometry x="605" y="390" width="70" height="30" as="geometry" />
        </mxCell>
        <mxCell id="ih9rq5GZIrlL_QUmLxiV-50" style="edgeStyle=orthogonalEdgeStyle;rounded=0;orthogonalLoop=1;jettySize=auto;html=1;entryX=0.5;entryY=1;entryDx=0;entryDy=0;" parent="1" source="ih9rq5GZIrlL_QUmLxiV-51" target="ih9rq5GZIrlL_QUmLxiV-52" edge="1">
          <mxGeometry relative="1" as="geometry" />
        </mxCell>
        <mxCell id="ih9rq5GZIrlL_QUmLxiV-51" value="Producto" style="rounded=0;whiteSpace=wrap;html=1;" parent="1" vertex="1">
          <mxGeometry x="645" y="490" width="55" height="30" as="geometry" />
        </mxCell>
        <mxCell id="ih9rq5GZIrlL_QUmLxiV-52" value="Division" style="rounded=0;whiteSpace=wrap;html=1;" parent="1" vertex="1">
          <mxGeometry x="645" y="430" width="55" height="30" as="geometry" />
        </mxCell>
        <mxCell id="ih9rq5GZIrlL_QUmLxiV-53" value="Jerarquia" style="text;html=1;align=center;verticalAlign=middle;resizable=0;points=[];autosize=1;strokeColor=none;fillColor=none;" parent="1" vertex="1">
          <mxGeometry x="500" y="158" width="70" height="30" as="geometry" />
        </mxCell>
        <mxCell id="ih9rq5GZIrlL_QUmLxiV-54" value="" style="rounded=0;whiteSpace=wrap;html=1;shadow=1;fillColor=#FFF2CC;" parent="1" vertex="1">
          <mxGeometry x="240" y="782" width="160" height="270" as="geometry" />
        </mxCell>
        <mxCell id="ih9rq5GZIrlL_QUmLxiV-55" value="Fecha" style="text;html=1;align=center;verticalAlign=middle;resizable=0;points=[];autosize=1;strokeColor=none;fillColor=none;" parent="1" vertex="1">
          <mxGeometry x="240" y="782" width="60" height="30" as="geometry" />
        </mxCell>
        <mxCell id="ih9rq5GZIrlL_QUmLxiV-56" style="edgeStyle=orthogonalEdgeStyle;rounded=0;orthogonalLoop=1;jettySize=auto;html=1;entryX=0.5;entryY=1;entryDx=0;entryDy=0;" parent="1" source="ih9rq5GZIrlL_QUmLxiV-57" target="ih9rq5GZIrlL_QUmLxiV-59" edge="1">
          <mxGeometry relative="1" as="geometry" />
        </mxCell>
        <mxCell id="ih9rq5GZIrlL_QUmLxiV-57" value="Día&lt;br&gt;num_dia" style="rounded=0;whiteSpace=wrap;html=1;" parent="1" vertex="1">
          <mxGeometry x="280" y="1002" width="80" height="38" as="geometry" />
        </mxCell>
        <mxCell id="ih9rq5GZIrlL_QUmLxiV-58" style="edgeStyle=orthogonalEdgeStyle;rounded=0;orthogonalLoop=1;jettySize=auto;html=1;entryX=0.5;entryY=1;entryDx=0;entryDy=0;" parent="1" source="ih9rq5GZIrlL_QUmLxiV-59" target="ih9rq5GZIrlL_QUmLxiV-61" edge="1">
          <mxGeometry relative="1" as="geometry" />
        </mxCell>
        <mxCell id="ih9rq5GZIrlL_QUmLxiV-59" value="Semana&lt;br&gt;num_semana" style="rounded=0;whiteSpace=wrap;html=1;" parent="1" vertex="1">
          <mxGeometry x="280" y="930" width="80" height="42" as="geometry" />
        </mxCell>
        <mxCell id="ih9rq5GZIrlL_QUmLxiV-60" style="edgeStyle=orthogonalEdgeStyle;rounded=0;orthogonalLoop=1;jettySize=auto;html=1;entryX=0.5;entryY=1;entryDx=0;entryDy=0;" parent="1" source="ih9rq5GZIrlL_QUmLxiV-61" target="ih9rq5GZIrlL_QUmLxiV-62" edge="1">
          <mxGeometry relative="1" as="geometry" />
        </mxCell>
        <mxCell id="ih9rq5GZIrlL_QUmLxiV-61" value="Mes&lt;br&gt;num_mes" style="rounded=0;whiteSpace=wrap;html=1;" parent="1" vertex="1">
          <mxGeometry x="280" y="870" width="80" height="42" as="geometry" />
        </mxCell>
        <mxCell id="ih9rq5GZIrlL_QUmLxiV-62" value="Año&lt;br&gt;num_anio" style="rounded=0;whiteSpace=wrap;html=1;" parent="1" vertex="1">
          <mxGeometry x="280" y="812" width="80" height="38" as="geometry" />
        </mxCell>
        <mxCell id="ih9rq5GZIrlL_QUmLxiV-63" value="" style="rounded=0;whiteSpace=wrap;html=1;shadow=1;fillColor=#FFF2CC;" parent="1" vertex="1">
          <mxGeometry x="430" y="782" width="160" height="168" as="geometry" />
        </mxCell>
        <mxCell id="ih9rq5GZIrlL_QUmLxiV-64" value="Agente" style="text;html=1;align=center;verticalAlign=middle;resizable=0;points=[];autosize=1;strokeColor=none;fillColor=none;" parent="1" vertex="1">
          <mxGeometry x="430" y="782" width="60" height="30" as="geometry" />
        </mxCell>
        <mxCell id="ih9rq5GZIrlL_QUmLxiV-65" style="edgeStyle=orthogonalEdgeStyle;rounded=0;orthogonalLoop=1;jettySize=auto;html=1;entryX=0.5;entryY=1;entryDx=0;entryDy=0;" parent="1" source="ih9rq5GZIrlL_QUmLxiV-66" target="ih9rq5GZIrlL_QUmLxiV-67" edge="1">
          <mxGeometry relative="1" as="geometry" />
        </mxCell>
        <mxCell id="ih9rq5GZIrlL_QUmLxiV-66" value="Agente&lt;br&gt;id_tipo_agente&lt;br&gt;id_agente&lt;br&gt;&lt;div&gt;nombre&lt;/div&gt;" style="rounded=0;whiteSpace=wrap;html=1;" parent="1" vertex="1">
          <mxGeometry x="460" y="881" width="110" height="59" as="geometry" />
        </mxCell>
        <mxCell id="ih9rq5GZIrlL_QUmLxiV-67" value="Tipo&lt;br&gt;id_tipo_agente&lt;br&gt;nombre" style="rounded=0;whiteSpace=wrap;html=1;" parent="1" vertex="1">
          <mxGeometry x="460" y="810" width="110" height="50" as="geometry" />
        </mxCell>
        <mxCell id="ih9rq5GZIrlL_QUmLxiV-68" value="" style="rounded=0;whiteSpace=wrap;html=1;shadow=1;fillColor=#FFF2CC;" parent="1" vertex="1">
          <mxGeometry x="430" y="972" width="160" height="168" as="geometry" />
        </mxCell>
        <mxCell id="ih9rq5GZIrlL_QUmLxiV-69" value="Cliente" style="text;html=1;align=center;verticalAlign=middle;resizable=0;points=[];autosize=1;strokeColor=none;fillColor=none;" parent="1" vertex="1">
          <mxGeometry x="430" y="972" width="60" height="30" as="geometry" />
        </mxCell>
        <mxCell id="ih9rq5GZIrlL_QUmLxiV-71" value="" style="rounded=0;whiteSpace=wrap;html=1;shadow=1;fillColor=#FFF2CC;" parent="1" vertex="1">
          <mxGeometry x="240" y="1180" width="160" height="80" as="geometry" />
        </mxCell>
        <mxCell id="ih9rq5GZIrlL_QUmLxiV-72" value="Atencion" style="text;html=1;align=center;verticalAlign=middle;resizable=0;points=[];autosize=1;strokeColor=none;fillColor=none;" parent="1" vertex="1">
          <mxGeometry x="240" y="1180" width="70" height="30" as="geometry" />
        </mxCell>
        <mxCell id="ih9rq5GZIrlL_QUmLxiV-73" value="clientes_atendidos" style="rounded=0;whiteSpace=wrap;html=1;" parent="1" vertex="1">
          <mxGeometry x="250" y="1210" width="140" height="30" as="geometry" />
        </mxCell>
        <mxCell id="ih9rq5GZIrlL_QUmLxiV-74" value="" style="rounded=0;whiteSpace=wrap;html=1;shadow=1;fillColor=#FFF2CC;" parent="1" vertex="1">
          <mxGeometry x="430" y="1180" width="160" height="80" as="geometry" />
        </mxCell>
        <mxCell id="ih9rq5GZIrlL_QUmLxiV-75" value="Ingresos" style="text;html=1;align=center;verticalAlign=middle;resizable=0;points=[];autosize=1;strokeColor=none;fillColor=none;" parent="1" vertex="1">
          <mxGeometry x="430" y="1180" width="70" height="30" as="geometry" />
        </mxCell>
        <mxCell id="ih9rq5GZIrlL_QUmLxiV-76" value="unidades_vendidas&lt;br&gt;monto_vendido" style="rounded=0;whiteSpace=wrap;html=1;" parent="1" vertex="1">
          <mxGeometry x="440" y="1210" width="140" height="30" as="geometry" />
        </mxCell>
        <mxCell id="ih9rq5GZIrlL_QUmLxiV-77" value="" style="rounded=0;whiteSpace=wrap;html=1;shadow=1;fillColor=#FFF2CC;" parent="1" vertex="1">
          <mxGeometry x="620" y="1180" width="160" height="100" as="geometry" />
        </mxCell>
        <mxCell id="ih9rq5GZIrlL_QUmLxiV-78" value="Ventas" style="text;html=1;align=center;verticalAlign=middle;resizable=0;points=[];autosize=1;strokeColor=none;fillColor=none;" parent="1" vertex="1">
          <mxGeometry x="625" y="1180" width="60" height="30" as="geometry" />
        </mxCell>
        <mxCell id="ih9rq5GZIrlL_QUmLxiV-79" value="unidades_vendidas&lt;br&gt;monto_vendido&lt;br&gt;precio_unitario" style="rounded=0;whiteSpace=wrap;html=1;" parent="1" vertex="1">
          <mxGeometry x="630" y="1210" width="140" height="60" as="geometry" />
        </mxCell>
        <mxCell id="ih9rq5GZIrlL_QUmLxiV-80" value="" style="rounded=0;whiteSpace=wrap;html=1;shadow=1;fillColor=#FFF2CC;" parent="1" vertex="1">
          <mxGeometry x="810" y="1180" width="160" height="80" as="geometry" />
        </mxCell>
        <mxCell id="ih9rq5GZIrlL_QUmLxiV-81" value="Duración" style="text;html=1;align=center;verticalAlign=middle;resizable=0;points=[];autosize=1;strokeColor=none;fillColor=none;" parent="1" vertex="1">
          <mxGeometry x="820" y="1180" width="70" height="30" as="geometry" />
        </mxCell>
        <mxCell id="ih9rq5GZIrlL_QUmLxiV-82" value="minutos_empleados" style="rounded=0;whiteSpace=wrap;html=1;" parent="1" vertex="1">
          <mxGeometry x="825" y="1210" width="130" height="30" as="geometry" />
        </mxCell>
        <mxCell id="ih9rq5GZIrlL_QUmLxiV-83" value="" style="rounded=0;whiteSpace=wrap;html=1;shadow=1;fillColor=#FFF2CC;" parent="1" vertex="1">
          <mxGeometry x="625" y="782" width="160" height="158" as="geometry" />
        </mxCell>
        <mxCell id="ih9rq5GZIrlL_QUmLxiV-84" value="Satisfacción" style="text;html=1;align=center;verticalAlign=middle;resizable=0;points=[];autosize=1;strokeColor=none;fillColor=none;" parent="1" vertex="1">
          <mxGeometry x="625" y="782" width="90" height="30" as="geometry" />
        </mxCell>
        <mxCell id="ih9rq5GZIrlL_QUmLxiV-85" style="edgeStyle=orthogonalEdgeStyle;rounded=0;orthogonalLoop=1;jettySize=auto;html=1;entryX=0.5;entryY=1;entryDx=0;entryDy=0;" parent="1" source="ih9rq5GZIrlL_QUmLxiV-86" target="ih9rq5GZIrlL_QUmLxiV-87" edge="1">
          <mxGeometry relative="1" as="geometry" />
        </mxCell>
        <mxCell id="ih9rq5GZIrlL_QUmLxiV-86" value="Valor&lt;br&gt;id_pregunta&lt;br&gt;opcion_elegida" style="rounded=0;whiteSpace=wrap;html=1;" parent="1" vertex="1">
          <mxGeometry x="650" y="871" width="110" height="59" as="geometry" />
        </mxCell>
        <mxCell id="ih9rq5GZIrlL_QUmLxiV-87" value="Pregunta&lt;br&gt;id_pregunta&lt;br&gt;descripcion" style="rounded=0;whiteSpace=wrap;html=1;" parent="1" vertex="1">
          <mxGeometry x="650" y="810" width="110" height="42" as="geometry" />
        </mxCell>
        <mxCell id="ih9rq5GZIrlL_QUmLxiV-88" value="" style="rounded=0;whiteSpace=wrap;html=1;shadow=1;fillColor=#FFF2CC;" parent="1" vertex="1">
          <mxGeometry x="625" y="970" width="160" height="170" as="geometry" />
        </mxCell>
        <mxCell id="ih9rq5GZIrlL_QUmLxiV-89" value="Producto" style="text;html=1;align=center;verticalAlign=middle;resizable=0;points=[];autosize=1;strokeColor=none;fillColor=none;" parent="1" vertex="1">
          <mxGeometry x="625" y="970" width="70" height="30" as="geometry" />
        </mxCell>
        <mxCell id="ih9rq5GZIrlL_QUmLxiV-90" style="edgeStyle=orthogonalEdgeStyle;rounded=0;orthogonalLoop=1;jettySize=auto;html=1;entryX=0.5;entryY=1;entryDx=0;entryDy=0;" parent="1" source="ih9rq5GZIrlL_QUmLxiV-91" target="ih9rq5GZIrlL_QUmLxiV-92" edge="1">
          <mxGeometry relative="1" as="geometry" />
        </mxCell>
        <mxCell id="ih9rq5GZIrlL_QUmLxiV-91" value="Producto&lt;br&gt;id_division&lt;br&gt;id_producto&lt;br&gt;nombre_producto" style="rounded=0;whiteSpace=wrap;html=1;" parent="1" vertex="1">
          <mxGeometry x="650" y="1062" width="110" height="70" as="geometry" />
        </mxCell>
        <mxCell id="ih9rq5GZIrlL_QUmLxiV-92" value="División&lt;br&gt;id_division&lt;br&gt;nombre_division" style="rounded=0;whiteSpace=wrap;html=1;" parent="1" vertex="1">
          <mxGeometry x="650" y="997" width="110" height="48" as="geometry" />
        </mxCell>
        <mxCell id="ih9rq5GZIrlL_QUmLxiV-93" value="Jerarquia Refinada" style="text;html=1;align=center;verticalAlign=middle;resizable=0;points=[];autosize=1;strokeColor=none;fillColor=none;" parent="1" vertex="1">
          <mxGeometry x="505" y="720" width="120" height="30" as="geometry" />
        </mxCell>
        <mxCell id="ih9rq5GZIrlL_QUmLxiV-98" style="edgeStyle=orthogonalEdgeStyle;rounded=0;orthogonalLoop=1;jettySize=auto;html=1;entryX=0.5;entryY=1;entryDx=0;entryDy=0;" parent="1" source="ih9rq5GZIrlL_QUmLxiV-99" target="ih9rq5GZIrlL_QUmLxiV-100" edge="1">
          <mxGeometry relative="1" as="geometry" />
        </mxCell>
        <mxCell id="ih9rq5GZIrlL_QUmLxiV-99" value="Cliente&lt;br&gt;id_tipo_cliente&lt;br&gt;identificacion&lt;br&gt;nombre" style="rounded=0;whiteSpace=wrap;html=1;" parent="1" vertex="1">
          <mxGeometry x="460" y="1073.5" width="110" height="58.5" as="geometry" />
        </mxCell>
        <mxCell id="ih9rq5GZIrlL_QUmLxiV-100" value="Tipo&lt;br&gt;id_tipo_cliente&lt;br&gt;nombre" style="rounded=0;whiteSpace=wrap;html=1;" parent="1" vertex="1">
          <mxGeometry x="460" y="1002" width="110" height="48" as="geometry" />
        </mxCell>
        <mxCell id="ih9rq5GZIrlL_QUmLxiV-101" value="Tipo" style="rounded=0;whiteSpace=wrap;html=1;" parent="1" vertex="1">
          <mxGeometry x="452.5" y="410" width="55" height="30" as="geometry" />
        </mxCell>
        <mxCell id="ih9rq5GZIrlL_QUmLxiV-104" value="Esquema Conceptual" style="text;html=1;align=center;verticalAlign=middle;resizable=0;points=[];autosize=1;strokeColor=none;fillColor=none;" parent="1" vertex="1">
          <mxGeometry x="1545" y="158" width="140" height="30" as="geometry" />
        </mxCell>
        <mxCell id="ih9rq5GZIrlL_QUmLxiV-105" value="&lt;b&gt;Efectividad&lt;/b&gt;" style="ellipse;whiteSpace=wrap;html=1;fillColor=#99FFFF;" parent="1" vertex="1">
          <mxGeometry x="1320" y="310" width="90" height="50" as="geometry" />
        </mxCell>
        <mxCell id="ih9rq5GZIrlL_QUmLxiV-109" value="&lt;b&gt;# Ventas&lt;/b&gt;" style="ellipse;whiteSpace=wrap;html=1;fillColor=#99FFFF;" parent="1" vertex="1">
          <mxGeometry x="1591" y="310" width="90" height="50" as="geometry" />
        </mxCell>
        <mxCell id="ih9rq5GZIrlL_QUmLxiV-110" value="&lt;b&gt;Retroalimentación&lt;/b&gt;" style="ellipse;whiteSpace=wrap;html=1;fillColor=#99FFFF;" parent="1" vertex="1">
          <mxGeometry x="1776" y="610" width="130" height="50" as="geometry" />
        </mxCell>
        <mxCell id="ih9rq5GZIrlL_QUmLxiV-111" value="&lt;b&gt;Gestión&lt;/b&gt;" style="ellipse;whiteSpace=wrap;html=1;fillColor=#99FFFF;" parent="1" vertex="1">
          <mxGeometry x="1885" y="307.5" width="90" height="55" as="geometry" />
        </mxCell>
        <mxCell id="ih9rq5GZIrlL_QUmLxiV-112" value="Fecha" style="rounded=0;whiteSpace=wrap;html=1;" parent="1" vertex="1">
          <mxGeometry x="1270" y="390" width="70" height="30" as="geometry" />
        </mxCell>
        <mxCell id="ih9rq5GZIrlL_QUmLxiV-114" value="" style="endArrow=none;html=1;rounded=0;exitX=0.5;exitY=0;exitDx=0;exitDy=0;entryX=0;entryY=1;entryDx=0;entryDy=0;" parent="1" source="ih9rq5GZIrlL_QUmLxiV-112" target="ih9rq5GZIrlL_QUmLxiV-105" edge="1">
          <mxGeometry width="50" height="50" relative="1" as="geometry">
            <mxPoint x="1440" y="410" as="sourcePoint" />
            <mxPoint x="1490" y="360" as="targetPoint" />
          </mxGeometry>
        </mxCell>
        <mxCell id="ih9rq5GZIrlL_QUmLxiV-115" value="Agente" style="rounded=0;whiteSpace=wrap;html=1;" parent="1" vertex="1">
          <mxGeometry x="1390" y="390" width="70" height="30" as="geometry" />
        </mxCell>
        <mxCell id="ih9rq5GZIrlL_QUmLxiV-116" value="" style="endArrow=none;html=1;rounded=0;exitX=0.5;exitY=0;exitDx=0;exitDy=0;entryX=1;entryY=1;entryDx=0;entryDy=0;" parent="1" source="ih9rq5GZIrlL_QUmLxiV-115" target="ih9rq5GZIrlL_QUmLxiV-105" edge="1">
          <mxGeometry width="50" height="50" relative="1" as="geometry">
            <mxPoint x="1440" y="410" as="sourcePoint" />
            <mxPoint x="1420" y="360" as="targetPoint" />
          </mxGeometry>
        </mxCell>
        <mxCell id="ih9rq5GZIrlL_QUmLxiV-117" value="Atención" style="rounded=0;whiteSpace=wrap;html=1;" parent="1" vertex="1">
          <mxGeometry x="1250" y="260" width="70" height="30" as="geometry" />
        </mxCell>
        <mxCell id="ih9rq5GZIrlL_QUmLxiV-118" value="Ventas" style="rounded=0;whiteSpace=wrap;html=1;" parent="1" vertex="1">
          <mxGeometry x="1330" y="220" width="70" height="30" as="geometry" />
        </mxCell>
        <mxCell id="ih9rq5GZIrlL_QUmLxiV-119" value="Duración" style="rounded=0;whiteSpace=wrap;html=1;" parent="1" vertex="1">
          <mxGeometry x="1400" y="260" width="70" height="30" as="geometry" />
        </mxCell>
        <mxCell id="ih9rq5GZIrlL_QUmLxiV-120" value="" style="endArrow=classic;html=1;rounded=0;exitX=0;exitY=0;exitDx=0;exitDy=0;entryX=0.5;entryY=1;entryDx=0;entryDy=0;" parent="1" source="ih9rq5GZIrlL_QUmLxiV-105" target="ih9rq5GZIrlL_QUmLxiV-117" edge="1">
          <mxGeometry width="50" height="50" relative="1" as="geometry">
            <mxPoint x="1380" y="430" as="sourcePoint" />
            <mxPoint x="1430" y="380" as="targetPoint" />
          </mxGeometry>
        </mxCell>
        <mxCell id="ih9rq5GZIrlL_QUmLxiV-121" value="" style="endArrow=classic;html=1;rounded=0;entryX=0.5;entryY=1;entryDx=0;entryDy=0;exitX=0.5;exitY=0;exitDx=0;exitDy=0;" parent="1" source="ih9rq5GZIrlL_QUmLxiV-105" target="ih9rq5GZIrlL_QUmLxiV-118" edge="1">
          <mxGeometry width="50" height="50" relative="1" as="geometry">
            <mxPoint x="1380" y="280" as="sourcePoint" />
            <mxPoint x="1275" y="300" as="targetPoint" />
          </mxGeometry>
        </mxCell>
        <mxCell id="ih9rq5GZIrlL_QUmLxiV-122" value="" style="endArrow=classic;html=1;rounded=0;entryX=0.5;entryY=1;entryDx=0;entryDy=0;exitX=1;exitY=0;exitDx=0;exitDy=0;" parent="1" source="ih9rq5GZIrlL_QUmLxiV-105" target="ih9rq5GZIrlL_QUmLxiV-119" edge="1">
          <mxGeometry width="50" height="50" relative="1" as="geometry">
            <mxPoint x="1372" y="320" as="sourcePoint" />
            <mxPoint x="1370" y="250" as="targetPoint" />
          </mxGeometry>
        </mxCell>
        <mxCell id="ih9rq5GZIrlL_QUmLxiV-123" value="Fecha" style="rounded=0;whiteSpace=wrap;html=1;" parent="1" vertex="1">
          <mxGeometry x="1511" y="370" width="70" height="30" as="geometry" />
        </mxCell>
        <mxCell id="ih9rq5GZIrlL_QUmLxiV-124" value="" style="endArrow=none;html=1;rounded=0;exitX=0.5;exitY=0;exitDx=0;exitDy=0;entryX=0;entryY=1;entryDx=0;entryDy=0;" parent="1" source="ih9rq5GZIrlL_QUmLxiV-123" edge="1">
          <mxGeometry width="50" height="50" relative="1" as="geometry">
            <mxPoint x="1711" y="408.5" as="sourcePoint" />
            <mxPoint x="1604" y="351.5" as="targetPoint" />
          </mxGeometry>
        </mxCell>
        <mxCell id="ih9rq5GZIrlL_QUmLxiV-125" value="Agente" style="rounded=0;whiteSpace=wrap;html=1;" parent="1" vertex="1">
          <mxGeometry x="1601" y="400" width="70" height="30" as="geometry" />
        </mxCell>
        <mxCell id="ih9rq5GZIrlL_QUmLxiV-126" value="" style="endArrow=none;html=1;rounded=0;exitX=0.5;exitY=0;exitDx=0;exitDy=0;entryX=0.5;entryY=1;entryDx=0;entryDy=0;" parent="1" source="ih9rq5GZIrlL_QUmLxiV-125" target="ih9rq5GZIrlL_QUmLxiV-109" edge="1">
          <mxGeometry width="50" height="50" relative="1" as="geometry">
            <mxPoint x="1711" y="408.5" as="sourcePoint" />
            <mxPoint x="1668" y="351.5" as="targetPoint" />
          </mxGeometry>
        </mxCell>
        <mxCell id="ih9rq5GZIrlL_QUmLxiV-127" value="Producto" style="rounded=0;whiteSpace=wrap;html=1;" parent="1" vertex="1">
          <mxGeometry x="1701" y="370" width="70" height="30" as="geometry" />
        </mxCell>
        <mxCell id="ih9rq5GZIrlL_QUmLxiV-128" value="" style="endArrow=none;html=1;rounded=0;exitX=0.5;exitY=0;exitDx=0;exitDy=0;entryX=1;entryY=1;entryDx=0;entryDy=0;" parent="1" source="ih9rq5GZIrlL_QUmLxiV-127" target="ih9rq5GZIrlL_QUmLxiV-109" edge="1">
          <mxGeometry width="50" height="50" relative="1" as="geometry">
            <mxPoint x="1556" y="380" as="sourcePoint" />
            <mxPoint x="1614" y="361.5" as="targetPoint" />
          </mxGeometry>
        </mxCell>
        <mxCell id="ih9rq5GZIrlL_QUmLxiV-130" value="Ventas" style="rounded=0;whiteSpace=wrap;html=1;" parent="1" vertex="1">
          <mxGeometry x="1601" y="240" width="70" height="30" as="geometry" />
        </mxCell>
        <mxCell id="ih9rq5GZIrlL_QUmLxiV-131" value="" style="endArrow=classic;html=1;rounded=0;exitX=0.5;exitY=0;exitDx=0;exitDy=0;entryX=0.5;entryY=1;entryDx=0;entryDy=0;" parent="1" source="ih9rq5GZIrlL_QUmLxiV-109" target="ih9rq5GZIrlL_QUmLxiV-130" edge="1">
          <mxGeometry width="50" height="50" relative="1" as="geometry">
            <mxPoint x="1629" y="300" as="sourcePoint" />
            <mxPoint x="1726" y="363" as="targetPoint" />
          </mxGeometry>
        </mxCell>
        <mxCell id="ih9rq5GZIrlL_QUmLxiV-132" value="Fecha" style="rounded=0;whiteSpace=wrap;html=1;" parent="1" vertex="1">
          <mxGeometry x="1815" y="370" width="70" height="30" as="geometry" />
        </mxCell>
        <mxCell id="ih9rq5GZIrlL_QUmLxiV-133" value="" style="endArrow=none;html=1;rounded=0;exitX=0.5;exitY=0;exitDx=0;exitDy=0;entryX=0;entryY=1;entryDx=0;entryDy=0;" parent="1" source="ih9rq5GZIrlL_QUmLxiV-132" target="ih9rq5GZIrlL_QUmLxiV-111" edge="1">
          <mxGeometry width="50" height="50" relative="1" as="geometry">
            <mxPoint x="1985" y="417" as="sourcePoint" />
            <mxPoint x="1878" y="360" as="targetPoint" />
          </mxGeometry>
        </mxCell>
        <mxCell id="ih9rq5GZIrlL_QUmLxiV-134" value="Agente" style="rounded=0;whiteSpace=wrap;html=1;" parent="1" vertex="1">
          <mxGeometry x="1975" y="370" width="70" height="30" as="geometry" />
        </mxCell>
        <mxCell id="ih9rq5GZIrlL_QUmLxiV-135" value="" style="endArrow=none;html=1;rounded=0;exitX=0.5;exitY=0;exitDx=0;exitDy=0;entryX=1;entryY=1;entryDx=0;entryDy=0;" parent="1" source="ih9rq5GZIrlL_QUmLxiV-134" target="ih9rq5GZIrlL_QUmLxiV-111" edge="1">
          <mxGeometry width="50" height="50" relative="1" as="geometry">
            <mxPoint x="1985" y="417" as="sourcePoint" />
            <mxPoint x="1910" y="368.5" as="targetPoint" />
          </mxGeometry>
        </mxCell>
        <mxCell id="ih9rq5GZIrlL_QUmLxiV-136" value="Duración" style="rounded=0;whiteSpace=wrap;html=1;" parent="1" vertex="1">
          <mxGeometry x="1895" y="240" width="70" height="30" as="geometry" />
        </mxCell>
        <mxCell id="ih9rq5GZIrlL_QUmLxiV-137" value="" style="endArrow=classic;html=1;rounded=0;entryX=0.5;entryY=1;entryDx=0;entryDy=0;exitX=0.5;exitY=0;exitDx=0;exitDy=0;" parent="1" source="ih9rq5GZIrlL_QUmLxiV-111" target="ih9rq5GZIrlL_QUmLxiV-136" edge="1">
          <mxGeometry width="50" height="50" relative="1" as="geometry">
            <mxPoint x="1927" y="307.5" as="sourcePoint" />
            <mxPoint x="1865" y="230" as="targetPoint" />
          </mxGeometry>
        </mxCell>
        <mxCell id="ih9rq5GZIrlL_QUmLxiV-138" value="&lt;b&gt;Calidad&lt;/b&gt;" style="ellipse;whiteSpace=wrap;html=1;fillColor=#99FFFF;" parent="1" vertex="1">
          <mxGeometry x="1410" y="570" width="90" height="50" as="geometry" />
        </mxCell>
        <mxCell id="ih9rq5GZIrlL_QUmLxiV-139" value="Fecha" style="rounded=0;whiteSpace=wrap;html=1;" parent="1" vertex="1">
          <mxGeometry x="1340" y="650" width="70" height="30" as="geometry" />
        </mxCell>
        <mxCell id="ih9rq5GZIrlL_QUmLxiV-140" value="" style="endArrow=none;html=1;rounded=0;exitX=0.5;exitY=0;exitDx=0;exitDy=0;entryX=0;entryY=1;entryDx=0;entryDy=0;" parent="1" source="ih9rq5GZIrlL_QUmLxiV-139" target="ih9rq5GZIrlL_QUmLxiV-138" edge="1">
          <mxGeometry width="50" height="50" relative="1" as="geometry">
            <mxPoint x="1530" y="670" as="sourcePoint" />
            <mxPoint x="1580" y="620" as="targetPoint" />
          </mxGeometry>
        </mxCell>
        <mxCell id="ih9rq5GZIrlL_QUmLxiV-141" value="Agente" style="rounded=0;whiteSpace=wrap;html=1;" parent="1" vertex="1">
          <mxGeometry x="1420" y="695" width="70" height="30" as="geometry" />
        </mxCell>
        <mxCell id="ih9rq5GZIrlL_QUmLxiV-142" value="" style="endArrow=none;html=1;rounded=0;exitX=0.5;exitY=0;exitDx=0;exitDy=0;entryX=0.5;entryY=1;entryDx=0;entryDy=0;" parent="1" source="ih9rq5GZIrlL_QUmLxiV-141" target="ih9rq5GZIrlL_QUmLxiV-138" edge="1">
          <mxGeometry width="50" height="50" relative="1" as="geometry">
            <mxPoint x="1530" y="670" as="sourcePoint" />
            <mxPoint x="1510" y="620" as="targetPoint" />
          </mxGeometry>
        </mxCell>
        <mxCell id="ih9rq5GZIrlL_QUmLxiV-145" value="Duración" style="rounded=0;whiteSpace=wrap;html=1;" parent="1" vertex="1">
          <mxGeometry x="1420" y="500" width="70" height="30" as="geometry" />
        </mxCell>
        <mxCell id="ih9rq5GZIrlL_QUmLxiV-148" value="" style="endArrow=classic;html=1;rounded=0;entryX=0.5;entryY=1;entryDx=0;entryDy=0;exitX=0.5;exitY=0;exitDx=0;exitDy=0;" parent="1" source="ih9rq5GZIrlL_QUmLxiV-138" target="ih9rq5GZIrlL_QUmLxiV-145" edge="1">
          <mxGeometry width="50" height="50" relative="1" as="geometry">
            <mxPoint x="1462" y="580" as="sourcePoint" />
            <mxPoint x="1460" y="510" as="targetPoint" />
          </mxGeometry>
        </mxCell>
        <mxCell id="ih9rq5GZIrlL_QUmLxiV-149" value="Satisfacción" style="rounded=0;whiteSpace=wrap;html=1;" parent="1" vertex="1">
          <mxGeometry x="1515" y="650" width="70" height="30" as="geometry" />
        </mxCell>
        <mxCell id="ih9rq5GZIrlL_QUmLxiV-150" value="" style="endArrow=none;html=1;rounded=0;entryX=1;entryY=1;entryDx=0;entryDy=0;exitX=0.5;exitY=0;exitDx=0;exitDy=0;" parent="1" source="ih9rq5GZIrlL_QUmLxiV-149" target="ih9rq5GZIrlL_QUmLxiV-138" edge="1">
          <mxGeometry width="50" height="50" relative="1" as="geometry">
            <mxPoint x="1545" y="645" as="sourcePoint" />
            <mxPoint x="1500" y="605" as="targetPoint" />
          </mxGeometry>
        </mxCell>
        <mxCell id="ih9rq5GZIrlL_QUmLxiV-151" value="Agente" style="rounded=0;whiteSpace=wrap;html=1;" parent="1" vertex="1">
          <mxGeometry x="1756" y="690" width="70" height="30" as="geometry" />
        </mxCell>
        <mxCell id="ih9rq5GZIrlL_QUmLxiV-152" value="" style="endArrow=none;html=1;rounded=0;exitX=0.5;exitY=0;exitDx=0;exitDy=0;entryX=0.5;entryY=1;entryDx=0;entryDy=0;" parent="1" source="ih9rq5GZIrlL_QUmLxiV-151" target="ih9rq5GZIrlL_QUmLxiV-110" edge="1">
          <mxGeometry width="50" height="50" relative="1" as="geometry">
            <mxPoint x="1911" y="712" as="sourcePoint" />
            <mxPoint x="1836" y="662" as="targetPoint" />
          </mxGeometry>
        </mxCell>
        <mxCell id="ih9rq5GZIrlL_QUmLxiV-153" value="Satisfacción" style="rounded=0;whiteSpace=wrap;html=1;" parent="1" vertex="1">
          <mxGeometry x="1856" y="690" width="70" height="30" as="geometry" />
        </mxCell>
        <mxCell id="ih9rq5GZIrlL_QUmLxiV-154" value="" style="endArrow=none;html=1;rounded=0;entryX=0.5;entryY=1;entryDx=0;entryDy=0;exitX=0.5;exitY=0;exitDx=0;exitDy=0;" parent="1" source="ih9rq5GZIrlL_QUmLxiV-153" target="ih9rq5GZIrlL_QUmLxiV-110" edge="1">
          <mxGeometry width="50" height="50" relative="1" as="geometry">
            <mxPoint x="1926" y="687" as="sourcePoint" />
            <mxPoint x="1868" y="655" as="targetPoint" />
          </mxGeometry>
        </mxCell>
        <mxCell id="ih9rq5GZIrlL_QUmLxiV-156" value="Atención" style="rounded=0;whiteSpace=wrap;html=1;" parent="1" vertex="1">
          <mxGeometry x="1686" y="550" width="70" height="30" as="geometry" />
        </mxCell>
        <mxCell id="ih9rq5GZIrlL_QUmLxiV-157" value="Ventas" style="rounded=0;whiteSpace=wrap;html=1;" parent="1" vertex="1">
          <mxGeometry x="1751" y="500" width="70" height="30" as="geometry" />
        </mxCell>
        <mxCell id="ih9rq5GZIrlL_QUmLxiV-158" value="Duración" style="rounded=0;whiteSpace=wrap;html=1;" parent="1" vertex="1">
          <mxGeometry x="1921" y="551.5" width="70" height="30" as="geometry" />
        </mxCell>
        <mxCell id="ih9rq5GZIrlL_QUmLxiV-159" value="" style="endArrow=classic;html=1;rounded=0;exitX=0;exitY=0;exitDx=0;exitDy=0;entryX=0.5;entryY=1;entryDx=0;entryDy=0;" parent="1" source="ih9rq5GZIrlL_QUmLxiV-110" target="ih9rq5GZIrlL_QUmLxiV-156" edge="1">
          <mxGeometry width="50" height="50" relative="1" as="geometry">
            <mxPoint x="1799" y="608.5" as="sourcePoint" />
            <mxPoint x="1896" y="671.5" as="targetPoint" />
          </mxGeometry>
        </mxCell>
        <mxCell id="ih9rq5GZIrlL_QUmLxiV-160" value="" style="endArrow=classic;html=1;rounded=0;entryX=0.5;entryY=1;entryDx=0;entryDy=0;" parent="1" source="ih9rq5GZIrlL_QUmLxiV-110" target="ih9rq5GZIrlL_QUmLxiV-157" edge="1">
          <mxGeometry width="50" height="50" relative="1" as="geometry">
            <mxPoint x="1831" y="601.5" as="sourcePoint" />
            <mxPoint x="1741" y="591.5" as="targetPoint" />
          </mxGeometry>
        </mxCell>
        <mxCell id="ih9rq5GZIrlL_QUmLxiV-161" value="" style="endArrow=classic;html=1;rounded=0;entryX=0.5;entryY=1;entryDx=0;entryDy=0;exitX=1;exitY=0;exitDx=0;exitDy=0;" parent="1" source="ih9rq5GZIrlL_QUmLxiV-110" target="ih9rq5GZIrlL_QUmLxiV-158" edge="1">
          <mxGeometry width="50" height="50" relative="1" as="geometry">
            <mxPoint x="1926" y="617" as="sourcePoint" />
            <mxPoint x="1875.04" y="541.5" as="targetPoint" />
          </mxGeometry>
        </mxCell>
        <mxCell id="ih9rq5GZIrlL_QUmLxiV-162" value="Ingresos" style="rounded=0;whiteSpace=wrap;html=1;" parent="1" vertex="1">
          <mxGeometry x="1856" y="500" width="70" height="30" as="geometry" />
        </mxCell>
        <mxCell id="ih9rq5GZIrlL_QUmLxiV-163" value="" style="endArrow=classic;html=1;rounded=0;entryX=0.5;entryY=1;entryDx=0;entryDy=0;exitX=0.458;exitY=0.009;exitDx=0;exitDy=0;exitPerimeter=0;" parent="1" source="ih9rq5GZIrlL_QUmLxiV-110" target="ih9rq5GZIrlL_QUmLxiV-162" edge="1">
          <mxGeometry width="50" height="50" relative="1" as="geometry">
            <mxPoint x="1844" y="620" as="sourcePoint" />
            <mxPoint x="1821" y="540" as="targetPoint" />
          </mxGeometry>
        </mxCell>
        <mxCell id="ih9rq5GZIrlL_QUmLxiV-170" value="&lt;b&gt;Satisfacción:&lt;/b&gt; Varias preguntas a la vez" style="rounded=0;whiteSpace=wrap;html=1;fillColor=#CCFFCC;" parent="1" vertex="1">
          <mxGeometry x="1405" y="1410" width="230" height="60" as="geometry" />
        </mxCell>
        <mxCell id="ih9rq5GZIrlL_QUmLxiV-226" value="" style="rounded=0;whiteSpace=wrap;html=1;fillColor=#FFF2CC;" parent="1" vertex="1">
          <mxGeometry x="1701" y="890" width="280" height="230" as="geometry" />
        </mxCell>
        <mxCell id="ih9rq5GZIrlL_QUmLxiV-227" value="" style="rounded=0;whiteSpace=wrap;html=1;fillColor=#FFF2CC;" parent="1" vertex="1">
          <mxGeometry x="1345" y="890" width="240" height="220" as="geometry" />
        </mxCell>
        <mxCell id="ih9rq5GZIrlL_QUmLxiV-228" value="" style="rounded=0;whiteSpace=wrap;html=1;fillColor=#FFF2CC;" parent="1" vertex="1">
          <mxGeometry x="1290" y="1130" width="340" height="270" as="geometry" />
        </mxCell>
        <mxCell id="ih9rq5GZIrlL_QUmLxiV-229" value="" style="rounded=0;whiteSpace=wrap;html=1;fillColor=#FFF2CC;" parent="1" vertex="1">
          <mxGeometry x="1671" y="1130" width="340" height="270" as="geometry" />
        </mxCell>
        <mxCell id="ih9rq5GZIrlL_QUmLxiV-230" value="&lt;b&gt;Efectividad&lt;/b&gt;" style="ellipse;whiteSpace=wrap;html=1;fillColor=#99FFFF;" parent="1" vertex="1">
          <mxGeometry x="1425" y="992" width="90" height="50" as="geometry" />
        </mxCell>
        <mxCell id="ih9rq5GZIrlL_QUmLxiV-231" value="&lt;b&gt;# Ventas&lt;/b&gt;" style="ellipse;whiteSpace=wrap;html=1;fillColor=#99FFFF;" parent="1" vertex="1">
          <mxGeometry x="1794" y="980" width="90" height="50" as="geometry" />
        </mxCell>
        <mxCell id="ih9rq5GZIrlL_QUmLxiV-232" value="&lt;b&gt;Retroalimentación&lt;/b&gt;" style="ellipse;whiteSpace=wrap;html=1;fillColor=#99FFFF;" parent="1" vertex="1">
          <mxGeometry x="1776" y="1260" width="130" height="50" as="geometry" />
        </mxCell>
        <mxCell id="ih9rq5GZIrlL_QUmLxiV-234" value="Fecha" style="rounded=0;whiteSpace=wrap;html=1;" parent="1" vertex="1">
          <mxGeometry x="1375" y="1072" width="70" height="30" as="geometry" />
        </mxCell>
        <mxCell id="ih9rq5GZIrlL_QUmLxiV-235" value="" style="endArrow=none;html=1;rounded=0;exitX=0.5;exitY=0;exitDx=0;exitDy=0;entryX=0;entryY=1;entryDx=0;entryDy=0;" parent="1" source="ih9rq5GZIrlL_QUmLxiV-234" target="ih9rq5GZIrlL_QUmLxiV-230" edge="1">
          <mxGeometry width="50" height="50" relative="1" as="geometry">
            <mxPoint x="1545" y="1092" as="sourcePoint" />
            <mxPoint x="1595" y="1042" as="targetPoint" />
          </mxGeometry>
        </mxCell>
        <mxCell id="ih9rq5GZIrlL_QUmLxiV-236" value="Agente" style="rounded=0;whiteSpace=wrap;html=1;" parent="1" vertex="1">
          <mxGeometry x="1495" y="1072" width="70" height="30" as="geometry" />
        </mxCell>
        <mxCell id="ih9rq5GZIrlL_QUmLxiV-237" value="" style="endArrow=none;html=1;rounded=0;exitX=0.5;exitY=0;exitDx=0;exitDy=0;entryX=1;entryY=1;entryDx=0;entryDy=0;" parent="1" source="ih9rq5GZIrlL_QUmLxiV-236" target="ih9rq5GZIrlL_QUmLxiV-230" edge="1">
          <mxGeometry width="50" height="50" relative="1" as="geometry">
            <mxPoint x="1545" y="1092" as="sourcePoint" />
            <mxPoint x="1525" y="1042" as="targetPoint" />
          </mxGeometry>
        </mxCell>
        <mxCell id="ih9rq5GZIrlL_QUmLxiV-238" value="Atención" style="rounded=0;whiteSpace=wrap;html=1;" parent="1" vertex="1">
          <mxGeometry x="1355" y="942" width="70" height="30" as="geometry" />
        </mxCell>
        <mxCell id="ih9rq5GZIrlL_QUmLxiV-239" value="Ventas" style="rounded=0;whiteSpace=wrap;html=1;" parent="1" vertex="1">
          <mxGeometry x="1435" y="902" width="70" height="30" as="geometry" />
        </mxCell>
        <mxCell id="ih9rq5GZIrlL_QUmLxiV-240" value="Duración" style="rounded=0;whiteSpace=wrap;html=1;" parent="1" vertex="1">
          <mxGeometry x="1505" y="942" width="70" height="30" as="geometry" />
        </mxCell>
        <mxCell id="ih9rq5GZIrlL_QUmLxiV-241" value="" style="endArrow=classic;html=1;rounded=0;exitX=0;exitY=0;exitDx=0;exitDy=0;entryX=0.5;entryY=1;entryDx=0;entryDy=0;" parent="1" source="ih9rq5GZIrlL_QUmLxiV-230" target="ih9rq5GZIrlL_QUmLxiV-238" edge="1">
          <mxGeometry width="50" height="50" relative="1" as="geometry">
            <mxPoint x="1485" y="1112" as="sourcePoint" />
            <mxPoint x="1535" y="1062" as="targetPoint" />
          </mxGeometry>
        </mxCell>
        <mxCell id="ih9rq5GZIrlL_QUmLxiV-242" value="" style="endArrow=classic;html=1;rounded=0;entryX=0.5;entryY=1;entryDx=0;entryDy=0;exitX=0.5;exitY=0;exitDx=0;exitDy=0;" parent="1" source="ih9rq5GZIrlL_QUmLxiV-230" target="ih9rq5GZIrlL_QUmLxiV-239" edge="1">
          <mxGeometry width="50" height="50" relative="1" as="geometry">
            <mxPoint x="1485" y="962" as="sourcePoint" />
            <mxPoint x="1380" y="982" as="targetPoint" />
          </mxGeometry>
        </mxCell>
        <mxCell id="ih9rq5GZIrlL_QUmLxiV-243" value="" style="endArrow=classic;html=1;rounded=0;entryX=0.5;entryY=1;entryDx=0;entryDy=0;exitX=1;exitY=0;exitDx=0;exitDy=0;" parent="1" source="ih9rq5GZIrlL_QUmLxiV-230" target="ih9rq5GZIrlL_QUmLxiV-240" edge="1">
          <mxGeometry width="50" height="50" relative="1" as="geometry">
            <mxPoint x="1477" y="1002" as="sourcePoint" />
            <mxPoint x="1475" y="932" as="targetPoint" />
          </mxGeometry>
        </mxCell>
        <mxCell id="ih9rq5GZIrlL_QUmLxiV-244" value="Fecha" style="rounded=0;whiteSpace=wrap;html=1;" parent="1" vertex="1">
          <mxGeometry x="1714" y="1040" width="70" height="30" as="geometry" />
        </mxCell>
        <mxCell id="ih9rq5GZIrlL_QUmLxiV-245" value="" style="endArrow=none;html=1;rounded=0;exitX=0.5;exitY=0;exitDx=0;exitDy=0;entryX=0;entryY=1;entryDx=0;entryDy=0;" parent="1" source="ih9rq5GZIrlL_QUmLxiV-244" edge="1">
          <mxGeometry width="50" height="50" relative="1" as="geometry">
            <mxPoint x="1914" y="1078.5" as="sourcePoint" />
            <mxPoint x="1807" y="1021.5" as="targetPoint" />
          </mxGeometry>
        </mxCell>
        <mxCell id="ih9rq5GZIrlL_QUmLxiV-246" value="Agente" style="rounded=0;whiteSpace=wrap;html=1;" parent="1" vertex="1">
          <mxGeometry x="1804" y="1070" width="70" height="30" as="geometry" />
        </mxCell>
        <mxCell id="ih9rq5GZIrlL_QUmLxiV-247" value="" style="endArrow=none;html=1;rounded=0;exitX=0.5;exitY=0;exitDx=0;exitDy=0;entryX=0.5;entryY=1;entryDx=0;entryDy=0;" parent="1" source="ih9rq5GZIrlL_QUmLxiV-246" target="ih9rq5GZIrlL_QUmLxiV-231" edge="1">
          <mxGeometry width="50" height="50" relative="1" as="geometry">
            <mxPoint x="1914" y="1078.5" as="sourcePoint" />
            <mxPoint x="1871" y="1021.5" as="targetPoint" />
          </mxGeometry>
        </mxCell>
        <mxCell id="ih9rq5GZIrlL_QUmLxiV-248" value="Producto" style="rounded=0;whiteSpace=wrap;html=1;" parent="1" vertex="1">
          <mxGeometry x="1904" y="1040" width="70" height="30" as="geometry" />
        </mxCell>
        <mxCell id="ih9rq5GZIrlL_QUmLxiV-249" value="" style="endArrow=none;html=1;rounded=0;exitX=0.5;exitY=0;exitDx=0;exitDy=0;entryX=1;entryY=1;entryDx=0;entryDy=0;" parent="1" source="ih9rq5GZIrlL_QUmLxiV-248" target="ih9rq5GZIrlL_QUmLxiV-231" edge="1">
          <mxGeometry width="50" height="50" relative="1" as="geometry">
            <mxPoint x="1759" y="1050" as="sourcePoint" />
            <mxPoint x="1817" y="1031.5" as="targetPoint" />
          </mxGeometry>
        </mxCell>
        <mxCell id="ih9rq5GZIrlL_QUmLxiV-250" value="Ventas" style="rounded=0;whiteSpace=wrap;html=1;" parent="1" vertex="1">
          <mxGeometry x="1804" y="910" width="70" height="30" as="geometry" />
        </mxCell>
        <mxCell id="ih9rq5GZIrlL_QUmLxiV-251" value="" style="endArrow=classic;html=1;rounded=0;exitX=0.5;exitY=0;exitDx=0;exitDy=0;entryX=0.5;entryY=1;entryDx=0;entryDy=0;" parent="1" source="ih9rq5GZIrlL_QUmLxiV-231" target="ih9rq5GZIrlL_QUmLxiV-250" edge="1">
          <mxGeometry width="50" height="50" relative="1" as="geometry">
            <mxPoint x="1832" y="970" as="sourcePoint" />
            <mxPoint x="1929" y="1033" as="targetPoint" />
          </mxGeometry>
        </mxCell>
        <mxCell id="ih9rq5GZIrlL_QUmLxiV-258" value="&lt;b&gt;Calidad&lt;/b&gt;" style="ellipse;whiteSpace=wrap;html=1;fillColor=#99FFFF;" parent="1" vertex="1">
          <mxGeometry x="1395" y="1220" width="130" height="50" as="geometry" />
        </mxCell>
        <mxCell id="ih9rq5GZIrlL_QUmLxiV-259" value="Fecha" style="rounded=0;whiteSpace=wrap;html=1;" parent="1" vertex="1">
          <mxGeometry x="1340" y="1300" width="70" height="30" as="geometry" />
        </mxCell>
        <mxCell id="ih9rq5GZIrlL_QUmLxiV-260" value="" style="endArrow=none;html=1;rounded=0;exitX=0.5;exitY=0;exitDx=0;exitDy=0;entryX=0;entryY=1;entryDx=0;entryDy=0;" parent="1" source="ih9rq5GZIrlL_QUmLxiV-259" target="ih9rq5GZIrlL_QUmLxiV-258" edge="1">
          <mxGeometry width="50" height="50" relative="1" as="geometry">
            <mxPoint x="1530" y="1320" as="sourcePoint" />
            <mxPoint x="1580" y="1270" as="targetPoint" />
          </mxGeometry>
        </mxCell>
        <mxCell id="ih9rq5GZIrlL_QUmLxiV-261" value="Agente" style="rounded=0;whiteSpace=wrap;html=1;" parent="1" vertex="1">
          <mxGeometry x="1425" y="1340" width="70" height="30" as="geometry" />
        </mxCell>
        <mxCell id="ih9rq5GZIrlL_QUmLxiV-262" value="" style="endArrow=none;html=1;rounded=0;exitX=0.5;exitY=0;exitDx=0;exitDy=0;entryX=0.5;entryY=1;entryDx=0;entryDy=0;" parent="1" source="ih9rq5GZIrlL_QUmLxiV-261" target="ih9rq5GZIrlL_QUmLxiV-258" edge="1">
          <mxGeometry width="50" height="50" relative="1" as="geometry">
            <mxPoint x="1530" y="1320" as="sourcePoint" />
            <mxPoint x="1510" y="1270" as="targetPoint" />
          </mxGeometry>
        </mxCell>
        <mxCell id="ih9rq5GZIrlL_QUmLxiV-263" value="Duración" style="rounded=0;whiteSpace=wrap;html=1;" parent="1" vertex="1">
          <mxGeometry x="1428" y="1150" width="70" height="30" as="geometry" />
        </mxCell>
        <mxCell id="ih9rq5GZIrlL_QUmLxiV-264" value="" style="endArrow=classic;html=1;rounded=0;entryX=0.5;entryY=1;entryDx=0;entryDy=0;exitX=0.515;exitY=0.012;exitDx=0;exitDy=0;exitPerimeter=0;" parent="1" source="ih9rq5GZIrlL_QUmLxiV-258" target="ih9rq5GZIrlL_QUmLxiV-263" edge="1">
          <mxGeometry width="50" height="50" relative="1" as="geometry">
            <mxPoint x="1462" y="1230" as="sourcePoint" />
            <mxPoint x="1460" y="1160" as="targetPoint" />
          </mxGeometry>
        </mxCell>
        <mxCell id="ih9rq5GZIrlL_QUmLxiV-265" value="Satisfacción" style="rounded=0;whiteSpace=wrap;html=1;" parent="1" vertex="1">
          <mxGeometry x="1515" y="1300" width="70" height="30" as="geometry" />
        </mxCell>
        <mxCell id="ih9rq5GZIrlL_QUmLxiV-266" value="" style="endArrow=none;html=1;rounded=0;entryX=1;entryY=1;entryDx=0;entryDy=0;exitX=0.5;exitY=0;exitDx=0;exitDy=0;" parent="1" source="ih9rq5GZIrlL_QUmLxiV-265" target="ih9rq5GZIrlL_QUmLxiV-258" edge="1">
          <mxGeometry width="50" height="50" relative="1" as="geometry">
            <mxPoint x="1545" y="1295" as="sourcePoint" />
            <mxPoint x="1500" y="1255" as="targetPoint" />
          </mxGeometry>
        </mxCell>
        <mxCell id="ih9rq5GZIrlL_QUmLxiV-267" value="Agente" style="rounded=0;whiteSpace=wrap;html=1;" parent="1" vertex="1">
          <mxGeometry x="1756" y="1340" width="70" height="30" as="geometry" />
        </mxCell>
        <mxCell id="ih9rq5GZIrlL_QUmLxiV-268" value="" style="endArrow=none;html=1;rounded=0;exitX=0.5;exitY=0;exitDx=0;exitDy=0;entryX=0.5;entryY=1;entryDx=0;entryDy=0;" parent="1" source="ih9rq5GZIrlL_QUmLxiV-267" target="ih9rq5GZIrlL_QUmLxiV-232" edge="1">
          <mxGeometry width="50" height="50" relative="1" as="geometry">
            <mxPoint x="1911" y="1362" as="sourcePoint" />
            <mxPoint x="1836" y="1312" as="targetPoint" />
          </mxGeometry>
        </mxCell>
        <mxCell id="ih9rq5GZIrlL_QUmLxiV-269" value="Satisfacción" style="rounded=0;whiteSpace=wrap;html=1;" parent="1" vertex="1">
          <mxGeometry x="1856" y="1340" width="70" height="30" as="geometry" />
        </mxCell>
        <mxCell id="ih9rq5GZIrlL_QUmLxiV-270" value="" style="endArrow=none;html=1;rounded=0;entryX=0.5;entryY=1;entryDx=0;entryDy=0;exitX=0.5;exitY=0;exitDx=0;exitDy=0;" parent="1" source="ih9rq5GZIrlL_QUmLxiV-269" target="ih9rq5GZIrlL_QUmLxiV-232" edge="1">
          <mxGeometry width="50" height="50" relative="1" as="geometry">
            <mxPoint x="1926" y="1337" as="sourcePoint" />
            <mxPoint x="1868" y="1305" as="targetPoint" />
          </mxGeometry>
        </mxCell>
        <mxCell id="ih9rq5GZIrlL_QUmLxiV-271" value="Atención" style="rounded=0;whiteSpace=wrap;html=1;" parent="1" vertex="1">
          <mxGeometry x="1686" y="1200" width="70" height="30" as="geometry" />
        </mxCell>
        <mxCell id="ih9rq5GZIrlL_QUmLxiV-272" value="Ventas" style="rounded=0;whiteSpace=wrap;html=1;" parent="1" vertex="1">
          <mxGeometry x="1751" y="1150" width="70" height="30" as="geometry" />
        </mxCell>
        <mxCell id="ih9rq5GZIrlL_QUmLxiV-273" value="Duración" style="rounded=0;whiteSpace=wrap;html=1;" parent="1" vertex="1">
          <mxGeometry x="1921" y="1201.5" width="70" height="30" as="geometry" />
        </mxCell>
        <mxCell id="ih9rq5GZIrlL_QUmLxiV-274" value="" style="endArrow=classic;html=1;rounded=0;exitX=0;exitY=0;exitDx=0;exitDy=0;entryX=0.5;entryY=1;entryDx=0;entryDy=0;" parent="1" source="ih9rq5GZIrlL_QUmLxiV-232" target="ih9rq5GZIrlL_QUmLxiV-271" edge="1">
          <mxGeometry width="50" height="50" relative="1" as="geometry">
            <mxPoint x="1799" y="1258.5" as="sourcePoint" />
            <mxPoint x="1896" y="1321.5" as="targetPoint" />
          </mxGeometry>
        </mxCell>
        <mxCell id="ih9rq5GZIrlL_QUmLxiV-275" value="" style="endArrow=classic;html=1;rounded=0;entryX=0.5;entryY=1;entryDx=0;entryDy=0;" parent="1" source="ih9rq5GZIrlL_QUmLxiV-232" target="ih9rq5GZIrlL_QUmLxiV-272" edge="1">
          <mxGeometry width="50" height="50" relative="1" as="geometry">
            <mxPoint x="1831" y="1251.5" as="sourcePoint" />
            <mxPoint x="1741" y="1241.5" as="targetPoint" />
          </mxGeometry>
        </mxCell>
        <mxCell id="ih9rq5GZIrlL_QUmLxiV-276" value="" style="endArrow=classic;html=1;rounded=0;entryX=0.5;entryY=1;entryDx=0;entryDy=0;exitX=1;exitY=0;exitDx=0;exitDy=0;" parent="1" source="ih9rq5GZIrlL_QUmLxiV-232" target="ih9rq5GZIrlL_QUmLxiV-273" edge="1">
          <mxGeometry width="50" height="50" relative="1" as="geometry">
            <mxPoint x="1926" y="1267" as="sourcePoint" />
            <mxPoint x="1875.04" y="1191.5" as="targetPoint" />
          </mxGeometry>
        </mxCell>
        <mxCell id="ih9rq5GZIrlL_QUmLxiV-277" value="Ingresos" style="rounded=0;whiteSpace=wrap;html=1;" parent="1" vertex="1">
          <mxGeometry x="1856" y="1150" width="70" height="30" as="geometry" />
        </mxCell>
        <mxCell id="ih9rq5GZIrlL_QUmLxiV-278" value="" style="endArrow=classic;html=1;rounded=0;entryX=0.5;entryY=1;entryDx=0;entryDy=0;exitX=0.458;exitY=0.009;exitDx=0;exitDy=0;exitPerimeter=0;" parent="1" source="ih9rq5GZIrlL_QUmLxiV-232" target="ih9rq5GZIrlL_QUmLxiV-277" edge="1">
          <mxGeometry width="50" height="50" relative="1" as="geometry">
            <mxPoint x="1844" y="1270" as="sourcePoint" />
            <mxPoint x="1821" y="1190" as="targetPoint" />
          </mxGeometry>
        </mxCell>
        <mxCell id="ih9rq5GZIrlL_QUmLxiV-279" value="&lt;b&gt;Satisfacción:&lt;/b&gt; Varias preguntas a la vez" style="rounded=0;whiteSpace=wrap;html=1;fillColor=#CCFFCC;" parent="1" vertex="1">
          <mxGeometry x="1781" y="1410" width="230" height="60" as="geometry" />
        </mxCell>
        <mxCell id="ih9rq5GZIrlL_QUmLxiV-280" value="&lt;b&gt;Agente: &lt;/b&gt;Se pretende analizar a cada agente de manera individual, por varias métricas de interés" style="rounded=0;whiteSpace=wrap;html=1;fillColor=#CCFFCC;" parent="1" vertex="1">
          <mxGeometry x="2020" y="1130" width="180" height="120" as="geometry" />
        </mxCell>
        <mxCell id="YLiVXb2pXkyYQfCGrXQz-1" value="Esquema Conceptual" style="text;html=1;align=center;verticalAlign=middle;resizable=0;points=[];autosize=1;strokeColor=none;fillColor=none;" vertex="1" parent="1">
          <mxGeometry x="1580" y="790" width="140" height="30" as="geometry" />
        </mxCell>
        <mxCell id="YLiVXb2pXkyYQfCGrXQz-2" value="" style="rounded=0;whiteSpace=wrap;html=1;fillColor=#FFF2CC;" vertex="1" parent="1">
          <mxGeometry x="2530" y="200" width="240" height="220" as="geometry" />
        </mxCell>
        <mxCell id="YLiVXb2pXkyYQfCGrXQz-3" value="&lt;b&gt;Efectividad&lt;/b&gt;" style="ellipse;whiteSpace=wrap;html=1;fillColor=#99FFFF;" vertex="1" parent="1">
          <mxGeometry x="2610" y="302" width="90" height="50" as="geometry" />
        </mxCell>
        <mxCell id="YLiVXb2pXkyYQfCGrXQz-4" value="Fecha" style="rounded=0;whiteSpace=wrap;html=1;" vertex="1" parent="1">
          <mxGeometry x="2560" y="382" width="70" height="30" as="geometry" />
        </mxCell>
        <mxCell id="YLiVXb2pXkyYQfCGrXQz-5" value="" style="endArrow=none;html=1;rounded=0;exitX=0.5;exitY=0;exitDx=0;exitDy=0;entryX=0;entryY=1;entryDx=0;entryDy=0;" edge="1" parent="1" source="YLiVXb2pXkyYQfCGrXQz-4" target="YLiVXb2pXkyYQfCGrXQz-3">
          <mxGeometry width="50" height="50" relative="1" as="geometry">
            <mxPoint x="2730" y="402" as="sourcePoint" />
            <mxPoint x="2780" y="352" as="targetPoint" />
          </mxGeometry>
        </mxCell>
        <mxCell id="YLiVXb2pXkyYQfCGrXQz-6" value="Agente" style="rounded=0;whiteSpace=wrap;html=1;" vertex="1" parent="1">
          <mxGeometry x="2680" y="382" width="70" height="30" as="geometry" />
        </mxCell>
        <mxCell id="YLiVXb2pXkyYQfCGrXQz-7" value="" style="endArrow=none;html=1;rounded=0;exitX=0.5;exitY=0;exitDx=0;exitDy=0;entryX=1;entryY=1;entryDx=0;entryDy=0;" edge="1" parent="1" source="YLiVXb2pXkyYQfCGrXQz-6" target="YLiVXb2pXkyYQfCGrXQz-3">
          <mxGeometry width="50" height="50" relative="1" as="geometry">
            <mxPoint x="2730" y="402" as="sourcePoint" />
            <mxPoint x="2710" y="352" as="targetPoint" />
          </mxGeometry>
        </mxCell>
        <mxCell id="YLiVXb2pXkyYQfCGrXQz-8" value="Atención" style="rounded=0;whiteSpace=wrap;html=1;" vertex="1" parent="1">
          <mxGeometry x="2540" y="252" width="70" height="30" as="geometry" />
        </mxCell>
        <mxCell id="YLiVXb2pXkyYQfCGrXQz-9" value="Ventas" style="rounded=0;whiteSpace=wrap;html=1;" vertex="1" parent="1">
          <mxGeometry x="2620" y="212" width="70" height="30" as="geometry" />
        </mxCell>
        <mxCell id="YLiVXb2pXkyYQfCGrXQz-10" value="Duración" style="rounded=0;whiteSpace=wrap;html=1;" vertex="1" parent="1">
          <mxGeometry x="2690" y="252" width="70" height="30" as="geometry" />
        </mxCell>
        <mxCell id="YLiVXb2pXkyYQfCGrXQz-11" value="" style="endArrow=classic;html=1;rounded=0;exitX=0;exitY=0;exitDx=0;exitDy=0;entryX=0.5;entryY=1;entryDx=0;entryDy=0;" edge="1" parent="1" source="YLiVXb2pXkyYQfCGrXQz-3" target="YLiVXb2pXkyYQfCGrXQz-8">
          <mxGeometry width="50" height="50" relative="1" as="geometry">
            <mxPoint x="2670" y="422" as="sourcePoint" />
            <mxPoint x="2720" y="372" as="targetPoint" />
          </mxGeometry>
        </mxCell>
        <mxCell id="YLiVXb2pXkyYQfCGrXQz-12" value="" style="endArrow=classic;html=1;rounded=0;entryX=0.5;entryY=1;entryDx=0;entryDy=0;exitX=0.5;exitY=0;exitDx=0;exitDy=0;" edge="1" parent="1" source="YLiVXb2pXkyYQfCGrXQz-3" target="YLiVXb2pXkyYQfCGrXQz-9">
          <mxGeometry width="50" height="50" relative="1" as="geometry">
            <mxPoint x="2670" y="272" as="sourcePoint" />
            <mxPoint x="2565" y="292" as="targetPoint" />
          </mxGeometry>
        </mxCell>
        <mxCell id="YLiVXb2pXkyYQfCGrXQz-13" value="" style="endArrow=classic;html=1;rounded=0;entryX=0.5;entryY=1;entryDx=0;entryDy=0;exitX=1;exitY=0;exitDx=0;exitDy=0;" edge="1" parent="1" source="YLiVXb2pXkyYQfCGrXQz-3" target="YLiVXb2pXkyYQfCGrXQz-10">
          <mxGeometry width="50" height="50" relative="1" as="geometry">
            <mxPoint x="2662" y="312" as="sourcePoint" />
            <mxPoint x="2660" y="242" as="targetPoint" />
          </mxGeometry>
        </mxCell>
        <mxCell id="YLiVXb2pXkyYQfCGrXQz-14" value="Modelo Lógico" style="text;html=1;align=center;verticalAlign=middle;resizable=0;points=[];autosize=1;strokeColor=none;fillColor=none;" vertex="1" parent="1">
          <mxGeometry x="3510" y="80" width="100" height="30" as="geometry" />
        </mxCell>
        <mxCell id="YLiVXb2pXkyYQfCGrXQz-15" value="Efectividad" style="shape=table;startSize=30;container=1;collapsible=1;childLayout=tableLayout;fixedRows=1;rowLines=0;fontStyle=1;align=center;resizeLast=1;html=1;" vertex="1" parent="1">
          <mxGeometry x="3070" y="465" width="180" height="210" as="geometry">
            <mxRectangle x="2790" y="401.5" width="100" height="30" as="alternateBounds" />
          </mxGeometry>
        </mxCell>
        <mxCell id="YLiVXb2pXkyYQfCGrXQz-16" value="" style="shape=tableRow;horizontal=0;startSize=0;swimlaneHead=0;swimlaneBody=0;fillColor=none;collapsible=0;dropTarget=0;points=[[0,0.5],[1,0.5]];portConstraint=eastwest;top=0;left=0;right=0;bottom=1;" vertex="1" parent="YLiVXb2pXkyYQfCGrXQz-15">
          <mxGeometry y="30" width="180" height="30" as="geometry" />
        </mxCell>
        <mxCell id="YLiVXb2pXkyYQfCGrXQz-17" value="PK" style="shape=partialRectangle;connectable=0;fillColor=none;top=0;left=0;bottom=0;right=0;fontStyle=1;overflow=hidden;whiteSpace=wrap;html=1;" vertex="1" parent="YLiVXb2pXkyYQfCGrXQz-16">
          <mxGeometry width="30" height="30" as="geometry">
            <mxRectangle width="30" height="30" as="alternateBounds" />
          </mxGeometry>
        </mxCell>
        <mxCell id="YLiVXb2pXkyYQfCGrXQz-18" value="EfectividadId" style="shape=partialRectangle;connectable=0;fillColor=none;top=0;left=0;bottom=0;right=0;align=left;spacingLeft=6;fontStyle=5;overflow=hidden;whiteSpace=wrap;html=1;" vertex="1" parent="YLiVXb2pXkyYQfCGrXQz-16">
          <mxGeometry x="30" width="150" height="30" as="geometry">
            <mxRectangle width="150" height="30" as="alternateBounds" />
          </mxGeometry>
        </mxCell>
        <mxCell id="YLiVXb2pXkyYQfCGrXQz-19" value="" style="shape=tableRow;horizontal=0;startSize=0;swimlaneHead=0;swimlaneBody=0;fillColor=none;collapsible=0;dropTarget=0;points=[[0,0.5],[1,0.5]];portConstraint=eastwest;top=0;left=0;right=0;bottom=0;" vertex="1" parent="YLiVXb2pXkyYQfCGrXQz-15">
          <mxGeometry y="60" width="180" height="30" as="geometry" />
        </mxCell>
        <mxCell id="YLiVXb2pXkyYQfCGrXQz-20" value="" style="shape=partialRectangle;connectable=0;fillColor=none;top=0;left=0;bottom=0;right=0;editable=1;overflow=hidden;whiteSpace=wrap;html=1;" vertex="1" parent="YLiVXb2pXkyYQfCGrXQz-19">
          <mxGeometry width="30" height="30" as="geometry">
            <mxRectangle width="30" height="30" as="alternateBounds" />
          </mxGeometry>
        </mxCell>
        <mxCell id="YLiVXb2pXkyYQfCGrXQz-21" value="clientes_atendidos" style="shape=partialRectangle;connectable=0;fillColor=none;top=0;left=0;bottom=0;right=0;align=left;spacingLeft=6;overflow=hidden;whiteSpace=wrap;html=1;" vertex="1" parent="YLiVXb2pXkyYQfCGrXQz-19">
          <mxGeometry x="30" width="150" height="30" as="geometry">
            <mxRectangle width="150" height="30" as="alternateBounds" />
          </mxGeometry>
        </mxCell>
        <mxCell id="YLiVXb2pXkyYQfCGrXQz-22" value="" style="shape=tableRow;horizontal=0;startSize=0;swimlaneHead=0;swimlaneBody=0;fillColor=none;collapsible=0;dropTarget=0;points=[[0,0.5],[1,0.5]];portConstraint=eastwest;top=0;left=0;right=0;bottom=0;" vertex="1" parent="YLiVXb2pXkyYQfCGrXQz-15">
          <mxGeometry y="90" width="180" height="30" as="geometry" />
        </mxCell>
        <mxCell id="YLiVXb2pXkyYQfCGrXQz-23" value="" style="shape=partialRectangle;connectable=0;fillColor=none;top=0;left=0;bottom=0;right=0;editable=1;overflow=hidden;whiteSpace=wrap;html=1;" vertex="1" parent="YLiVXb2pXkyYQfCGrXQz-22">
          <mxGeometry width="30" height="30" as="geometry">
            <mxRectangle width="30" height="30" as="alternateBounds" />
          </mxGeometry>
        </mxCell>
        <mxCell id="YLiVXb2pXkyYQfCGrXQz-24" value="unidades_vendidas" style="shape=partialRectangle;connectable=0;fillColor=none;top=0;left=0;bottom=0;right=0;align=left;spacingLeft=6;overflow=hidden;whiteSpace=wrap;html=1;" vertex="1" parent="YLiVXb2pXkyYQfCGrXQz-22">
          <mxGeometry x="30" width="150" height="30" as="geometry">
            <mxRectangle width="150" height="30" as="alternateBounds" />
          </mxGeometry>
        </mxCell>
        <mxCell id="YLiVXb2pXkyYQfCGrXQz-25" value="" style="shape=tableRow;horizontal=0;startSize=0;swimlaneHead=0;swimlaneBody=0;fillColor=none;collapsible=0;dropTarget=0;points=[[0,0.5],[1,0.5]];portConstraint=eastwest;top=0;left=0;right=0;bottom=0;" vertex="1" parent="YLiVXb2pXkyYQfCGrXQz-15">
          <mxGeometry y="120" width="180" height="30" as="geometry" />
        </mxCell>
        <mxCell id="YLiVXb2pXkyYQfCGrXQz-26" value="" style="shape=partialRectangle;connectable=0;fillColor=none;top=0;left=0;bottom=0;right=0;editable=1;overflow=hidden;whiteSpace=wrap;html=1;" vertex="1" parent="YLiVXb2pXkyYQfCGrXQz-25">
          <mxGeometry width="30" height="30" as="geometry">
            <mxRectangle width="30" height="30" as="alternateBounds" />
          </mxGeometry>
        </mxCell>
        <mxCell id="YLiVXb2pXkyYQfCGrXQz-27" value="monto_vendido" style="shape=partialRectangle;connectable=0;fillColor=none;top=0;left=0;bottom=0;right=0;align=left;spacingLeft=6;overflow=hidden;whiteSpace=wrap;html=1;" vertex="1" parent="YLiVXb2pXkyYQfCGrXQz-25">
          <mxGeometry x="30" width="150" height="30" as="geometry">
            <mxRectangle width="150" height="30" as="alternateBounds" />
          </mxGeometry>
        </mxCell>
        <mxCell id="YLiVXb2pXkyYQfCGrXQz-55" value="" style="shape=tableRow;horizontal=0;startSize=0;swimlaneHead=0;swimlaneBody=0;fillColor=none;collapsible=0;dropTarget=0;points=[[0,0.5],[1,0.5]];portConstraint=eastwest;top=0;left=0;right=0;bottom=0;" vertex="1" parent="YLiVXb2pXkyYQfCGrXQz-15">
          <mxGeometry y="150" width="180" height="30" as="geometry" />
        </mxCell>
        <mxCell id="YLiVXb2pXkyYQfCGrXQz-56" value="" style="shape=partialRectangle;connectable=0;fillColor=none;top=0;left=0;bottom=0;right=0;editable=1;overflow=hidden;whiteSpace=wrap;html=1;" vertex="1" parent="YLiVXb2pXkyYQfCGrXQz-55">
          <mxGeometry width="30" height="30" as="geometry">
            <mxRectangle width="30" height="30" as="alternateBounds" />
          </mxGeometry>
        </mxCell>
        <mxCell id="YLiVXb2pXkyYQfCGrXQz-57" value="precio_unitario" style="shape=partialRectangle;connectable=0;fillColor=none;top=0;left=0;bottom=0;right=0;align=left;spacingLeft=6;overflow=hidden;whiteSpace=wrap;html=1;" vertex="1" parent="YLiVXb2pXkyYQfCGrXQz-55">
          <mxGeometry x="30" width="150" height="30" as="geometry">
            <mxRectangle width="150" height="30" as="alternateBounds" />
          </mxGeometry>
        </mxCell>
        <mxCell id="YLiVXb2pXkyYQfCGrXQz-58" value="" style="shape=tableRow;horizontal=0;startSize=0;swimlaneHead=0;swimlaneBody=0;fillColor=none;collapsible=0;dropTarget=0;points=[[0,0.5],[1,0.5]];portConstraint=eastwest;top=0;left=0;right=0;bottom=0;" vertex="1" parent="YLiVXb2pXkyYQfCGrXQz-15">
          <mxGeometry y="180" width="180" height="30" as="geometry" />
        </mxCell>
        <mxCell id="YLiVXb2pXkyYQfCGrXQz-59" value="" style="shape=partialRectangle;connectable=0;fillColor=none;top=0;left=0;bottom=0;right=0;editable=1;overflow=hidden;whiteSpace=wrap;html=1;" vertex="1" parent="YLiVXb2pXkyYQfCGrXQz-58">
          <mxGeometry width="30" height="30" as="geometry">
            <mxRectangle width="30" height="30" as="alternateBounds" />
          </mxGeometry>
        </mxCell>
        <mxCell id="YLiVXb2pXkyYQfCGrXQz-60" value="minutos_esperados" style="shape=partialRectangle;connectable=0;fillColor=none;top=0;left=0;bottom=0;right=0;align=left;spacingLeft=6;overflow=hidden;whiteSpace=wrap;html=1;" vertex="1" parent="YLiVXb2pXkyYQfCGrXQz-58">
          <mxGeometry x="30" width="150" height="30" as="geometry">
            <mxRectangle width="150" height="30" as="alternateBounds" />
          </mxGeometry>
        </mxCell>
        <mxCell id="YLiVXb2pXkyYQfCGrXQz-28" value="" style="rounded=0;whiteSpace=wrap;html=1;shadow=1;fillColor=#FFF2CC;" vertex="1" parent="1">
          <mxGeometry x="2925" y="-100" width="160" height="80" as="geometry" />
        </mxCell>
        <mxCell id="YLiVXb2pXkyYQfCGrXQz-29" value="Atencion" style="text;html=1;align=center;verticalAlign=middle;resizable=0;points=[];autosize=1;strokeColor=none;fillColor=none;" vertex="1" parent="1">
          <mxGeometry x="2925" y="-100" width="70" height="30" as="geometry" />
        </mxCell>
        <mxCell id="YLiVXb2pXkyYQfCGrXQz-30" value="clientes_atendidos" style="rounded=0;whiteSpace=wrap;html=1;" vertex="1" parent="1">
          <mxGeometry x="2935" y="-70" width="140" height="30" as="geometry" />
        </mxCell>
        <mxCell id="YLiVXb2pXkyYQfCGrXQz-31" value="" style="rounded=0;whiteSpace=wrap;html=1;shadow=1;fillColor=#FFF2CC;" vertex="1" parent="1">
          <mxGeometry x="3115" y="-100" width="160" height="80" as="geometry" />
        </mxCell>
        <mxCell id="YLiVXb2pXkyYQfCGrXQz-32" value="Ingresos" style="text;html=1;align=center;verticalAlign=middle;resizable=0;points=[];autosize=1;strokeColor=none;fillColor=none;" vertex="1" parent="1">
          <mxGeometry x="3115" y="-100" width="70" height="30" as="geometry" />
        </mxCell>
        <mxCell id="YLiVXb2pXkyYQfCGrXQz-33" value="unidades_vendidas&lt;br&gt;monto_vendido" style="rounded=0;whiteSpace=wrap;html=1;" vertex="1" parent="1">
          <mxGeometry x="3125" y="-70" width="140" height="30" as="geometry" />
        </mxCell>
        <mxCell id="YLiVXb2pXkyYQfCGrXQz-34" value="" style="rounded=0;whiteSpace=wrap;html=1;shadow=1;fillColor=#FFF2CC;" vertex="1" parent="1">
          <mxGeometry x="3305" y="-100" width="160" height="100" as="geometry" />
        </mxCell>
        <mxCell id="YLiVXb2pXkyYQfCGrXQz-35" value="Ventas" style="text;html=1;align=center;verticalAlign=middle;resizable=0;points=[];autosize=1;strokeColor=none;fillColor=none;" vertex="1" parent="1">
          <mxGeometry x="3310" y="-100" width="60" height="30" as="geometry" />
        </mxCell>
        <mxCell id="YLiVXb2pXkyYQfCGrXQz-36" value="unidades_vendidas&lt;br&gt;monto_vendido&lt;br&gt;precio_unitario" style="rounded=0;whiteSpace=wrap;html=1;" vertex="1" parent="1">
          <mxGeometry x="3315" y="-70" width="140" height="60" as="geometry" />
        </mxCell>
        <mxCell id="YLiVXb2pXkyYQfCGrXQz-37" value="" style="rounded=0;whiteSpace=wrap;html=1;shadow=1;fillColor=#FFF2CC;" vertex="1" parent="1">
          <mxGeometry x="3495" y="-100" width="160" height="80" as="geometry" />
        </mxCell>
        <mxCell id="YLiVXb2pXkyYQfCGrXQz-38" value="Duración" style="text;html=1;align=center;verticalAlign=middle;resizable=0;points=[];autosize=1;strokeColor=none;fillColor=none;" vertex="1" parent="1">
          <mxGeometry x="3505" y="-100" width="70" height="30" as="geometry" />
        </mxCell>
        <mxCell id="YLiVXb2pXkyYQfCGrXQz-39" value="minutos_empleados" style="rounded=0;whiteSpace=wrap;html=1;" vertex="1" parent="1">
          <mxGeometry x="3510" y="-70" width="130" height="30" as="geometry" />
        </mxCell>
        <mxCell id="YLiVXb2pXkyYQfCGrXQz-61" value="Fecha" style="shape=table;startSize=30;container=1;collapsible=1;childLayout=tableLayout;fixedRows=1;rowLines=0;fontStyle=1;align=center;resizeLast=1;html=1;" vertex="1" parent="1">
          <mxGeometry x="2820" y="200" width="180" height="180" as="geometry" />
        </mxCell>
        <mxCell id="YLiVXb2pXkyYQfCGrXQz-62" value="" style="shape=tableRow;horizontal=0;startSize=0;swimlaneHead=0;swimlaneBody=0;fillColor=none;collapsible=0;dropTarget=0;points=[[0,0.5],[1,0.5]];portConstraint=eastwest;top=0;left=0;right=0;bottom=1;" vertex="1" parent="YLiVXb2pXkyYQfCGrXQz-61">
          <mxGeometry y="30" width="180" height="30" as="geometry" />
        </mxCell>
        <mxCell id="YLiVXb2pXkyYQfCGrXQz-63" value="PK" style="shape=partialRectangle;connectable=0;fillColor=none;top=0;left=0;bottom=0;right=0;fontStyle=1;overflow=hidden;whiteSpace=wrap;html=1;" vertex="1" parent="YLiVXb2pXkyYQfCGrXQz-62">
          <mxGeometry width="30" height="30" as="geometry">
            <mxRectangle width="30" height="30" as="alternateBounds" />
          </mxGeometry>
        </mxCell>
        <mxCell id="YLiVXb2pXkyYQfCGrXQz-64" value="idFecha" style="shape=partialRectangle;connectable=0;fillColor=none;top=0;left=0;bottom=0;right=0;align=left;spacingLeft=6;fontStyle=5;overflow=hidden;whiteSpace=wrap;html=1;" vertex="1" parent="YLiVXb2pXkyYQfCGrXQz-62">
          <mxGeometry x="30" width="150" height="30" as="geometry">
            <mxRectangle width="150" height="30" as="alternateBounds" />
          </mxGeometry>
        </mxCell>
        <mxCell id="YLiVXb2pXkyYQfCGrXQz-65" value="" style="shape=tableRow;horizontal=0;startSize=0;swimlaneHead=0;swimlaneBody=0;fillColor=none;collapsible=0;dropTarget=0;points=[[0,0.5],[1,0.5]];portConstraint=eastwest;top=0;left=0;right=0;bottom=0;" vertex="1" parent="YLiVXb2pXkyYQfCGrXQz-61">
          <mxGeometry y="60" width="180" height="30" as="geometry" />
        </mxCell>
        <mxCell id="YLiVXb2pXkyYQfCGrXQz-66" value="" style="shape=partialRectangle;connectable=0;fillColor=none;top=0;left=0;bottom=0;right=0;editable=1;overflow=hidden;whiteSpace=wrap;html=1;" vertex="1" parent="YLiVXb2pXkyYQfCGrXQz-65">
          <mxGeometry width="30" height="30" as="geometry">
            <mxRectangle width="30" height="30" as="alternateBounds" />
          </mxGeometry>
        </mxCell>
        <mxCell id="YLiVXb2pXkyYQfCGrXQz-67" value="num_anio" style="shape=partialRectangle;connectable=0;fillColor=none;top=0;left=0;bottom=0;right=0;align=left;spacingLeft=6;overflow=hidden;whiteSpace=wrap;html=1;" vertex="1" parent="YLiVXb2pXkyYQfCGrXQz-65">
          <mxGeometry x="30" width="150" height="30" as="geometry">
            <mxRectangle width="150" height="30" as="alternateBounds" />
          </mxGeometry>
        </mxCell>
        <mxCell id="YLiVXb2pXkyYQfCGrXQz-68" value="" style="shape=tableRow;horizontal=0;startSize=0;swimlaneHead=0;swimlaneBody=0;fillColor=none;collapsible=0;dropTarget=0;points=[[0,0.5],[1,0.5]];portConstraint=eastwest;top=0;left=0;right=0;bottom=0;" vertex="1" parent="YLiVXb2pXkyYQfCGrXQz-61">
          <mxGeometry y="90" width="180" height="30" as="geometry" />
        </mxCell>
        <mxCell id="YLiVXb2pXkyYQfCGrXQz-69" value="" style="shape=partialRectangle;connectable=0;fillColor=none;top=0;left=0;bottom=0;right=0;editable=1;overflow=hidden;whiteSpace=wrap;html=1;" vertex="1" parent="YLiVXb2pXkyYQfCGrXQz-68">
          <mxGeometry width="30" height="30" as="geometry">
            <mxRectangle width="30" height="30" as="alternateBounds" />
          </mxGeometry>
        </mxCell>
        <mxCell id="YLiVXb2pXkyYQfCGrXQz-70" value="num_mes" style="shape=partialRectangle;connectable=0;fillColor=none;top=0;left=0;bottom=0;right=0;align=left;spacingLeft=6;overflow=hidden;whiteSpace=wrap;html=1;" vertex="1" parent="YLiVXb2pXkyYQfCGrXQz-68">
          <mxGeometry x="30" width="150" height="30" as="geometry">
            <mxRectangle width="150" height="30" as="alternateBounds" />
          </mxGeometry>
        </mxCell>
        <mxCell id="YLiVXb2pXkyYQfCGrXQz-71" value="" style="shape=tableRow;horizontal=0;startSize=0;swimlaneHead=0;swimlaneBody=0;fillColor=none;collapsible=0;dropTarget=0;points=[[0,0.5],[1,0.5]];portConstraint=eastwest;top=0;left=0;right=0;bottom=0;" vertex="1" parent="YLiVXb2pXkyYQfCGrXQz-61">
          <mxGeometry y="120" width="180" height="30" as="geometry" />
        </mxCell>
        <mxCell id="YLiVXb2pXkyYQfCGrXQz-72" value="" style="shape=partialRectangle;connectable=0;fillColor=none;top=0;left=0;bottom=0;right=0;editable=1;overflow=hidden;whiteSpace=wrap;html=1;" vertex="1" parent="YLiVXb2pXkyYQfCGrXQz-71">
          <mxGeometry width="30" height="30" as="geometry">
            <mxRectangle width="30" height="30" as="alternateBounds" />
          </mxGeometry>
        </mxCell>
        <mxCell id="YLiVXb2pXkyYQfCGrXQz-73" value="num_semana" style="shape=partialRectangle;connectable=0;fillColor=none;top=0;left=0;bottom=0;right=0;align=left;spacingLeft=6;overflow=hidden;whiteSpace=wrap;html=1;" vertex="1" parent="YLiVXb2pXkyYQfCGrXQz-71">
          <mxGeometry x="30" width="150" height="30" as="geometry">
            <mxRectangle width="150" height="30" as="alternateBounds" />
          </mxGeometry>
        </mxCell>
        <mxCell id="YLiVXb2pXkyYQfCGrXQz-87" value="" style="shape=tableRow;horizontal=0;startSize=0;swimlaneHead=0;swimlaneBody=0;fillColor=none;collapsible=0;dropTarget=0;points=[[0,0.5],[1,0.5]];portConstraint=eastwest;top=0;left=0;right=0;bottom=0;" vertex="1" parent="YLiVXb2pXkyYQfCGrXQz-61">
          <mxGeometry y="150" width="180" height="30" as="geometry" />
        </mxCell>
        <mxCell id="YLiVXb2pXkyYQfCGrXQz-88" value="" style="shape=partialRectangle;connectable=0;fillColor=none;top=0;left=0;bottom=0;right=0;editable=1;overflow=hidden;whiteSpace=wrap;html=1;" vertex="1" parent="YLiVXb2pXkyYQfCGrXQz-87">
          <mxGeometry width="30" height="30" as="geometry">
            <mxRectangle width="30" height="30" as="alternateBounds" />
          </mxGeometry>
        </mxCell>
        <mxCell id="YLiVXb2pXkyYQfCGrXQz-89" value="num_dia" style="shape=partialRectangle;connectable=0;fillColor=none;top=0;left=0;bottom=0;right=0;align=left;spacingLeft=6;overflow=hidden;whiteSpace=wrap;html=1;" vertex="1" parent="YLiVXb2pXkyYQfCGrXQz-87">
          <mxGeometry x="30" width="150" height="30" as="geometry">
            <mxRectangle width="150" height="30" as="alternateBounds" />
          </mxGeometry>
        </mxCell>
        <mxCell id="YLiVXb2pXkyYQfCGrXQz-74" value="Agente" style="shape=table;startSize=30;container=1;collapsible=1;childLayout=tableLayout;fixedRows=1;rowLines=0;fontStyle=1;align=center;resizeLast=1;html=1;" vertex="1" parent="1">
          <mxGeometry x="3340" y="200" width="180" height="150" as="geometry" />
        </mxCell>
        <mxCell id="YLiVXb2pXkyYQfCGrXQz-75" value="" style="shape=tableRow;horizontal=0;startSize=0;swimlaneHead=0;swimlaneBody=0;fillColor=none;collapsible=0;dropTarget=0;points=[[0,0.5],[1,0.5]];portConstraint=eastwest;top=0;left=0;right=0;bottom=1;" vertex="1" parent="YLiVXb2pXkyYQfCGrXQz-74">
          <mxGeometry y="30" width="180" height="30" as="geometry" />
        </mxCell>
        <mxCell id="YLiVXb2pXkyYQfCGrXQz-76" value="PK" style="shape=partialRectangle;connectable=0;fillColor=none;top=0;left=0;bottom=0;right=0;fontStyle=1;overflow=hidden;whiteSpace=wrap;html=1;" vertex="1" parent="YLiVXb2pXkyYQfCGrXQz-75">
          <mxGeometry width="30" height="30" as="geometry">
            <mxRectangle width="30" height="30" as="alternateBounds" />
          </mxGeometry>
        </mxCell>
        <mxCell id="YLiVXb2pXkyYQfCGrXQz-77" value="idAgente" style="shape=partialRectangle;connectable=0;fillColor=none;top=0;left=0;bottom=0;right=0;align=left;spacingLeft=6;fontStyle=5;overflow=hidden;whiteSpace=wrap;html=1;" vertex="1" parent="YLiVXb2pXkyYQfCGrXQz-75">
          <mxGeometry x="30" width="150" height="30" as="geometry">
            <mxRectangle width="150" height="30" as="alternateBounds" />
          </mxGeometry>
        </mxCell>
        <mxCell id="YLiVXb2pXkyYQfCGrXQz-78" value="" style="shape=tableRow;horizontal=0;startSize=0;swimlaneHead=0;swimlaneBody=0;fillColor=none;collapsible=0;dropTarget=0;points=[[0,0.5],[1,0.5]];portConstraint=eastwest;top=0;left=0;right=0;bottom=0;" vertex="1" parent="YLiVXb2pXkyYQfCGrXQz-74">
          <mxGeometry y="60" width="180" height="30" as="geometry" />
        </mxCell>
        <mxCell id="YLiVXb2pXkyYQfCGrXQz-79" value="" style="shape=partialRectangle;connectable=0;fillColor=none;top=0;left=0;bottom=0;right=0;editable=1;overflow=hidden;whiteSpace=wrap;html=1;" vertex="1" parent="YLiVXb2pXkyYQfCGrXQz-78">
          <mxGeometry width="30" height="30" as="geometry">
            <mxRectangle width="30" height="30" as="alternateBounds" />
          </mxGeometry>
        </mxCell>
        <mxCell id="YLiVXb2pXkyYQfCGrXQz-80" value="idTipoAgente" style="shape=partialRectangle;connectable=0;fillColor=none;top=0;left=0;bottom=0;right=0;align=left;spacingLeft=6;overflow=hidden;whiteSpace=wrap;html=1;" vertex="1" parent="YLiVXb2pXkyYQfCGrXQz-78">
          <mxGeometry x="30" width="150" height="30" as="geometry">
            <mxRectangle width="150" height="30" as="alternateBounds" />
          </mxGeometry>
        </mxCell>
        <mxCell id="YLiVXb2pXkyYQfCGrXQz-81" value="" style="shape=tableRow;horizontal=0;startSize=0;swimlaneHead=0;swimlaneBody=0;fillColor=none;collapsible=0;dropTarget=0;points=[[0,0.5],[1,0.5]];portConstraint=eastwest;top=0;left=0;right=0;bottom=0;" vertex="1" parent="YLiVXb2pXkyYQfCGrXQz-74">
          <mxGeometry y="90" width="180" height="30" as="geometry" />
        </mxCell>
        <mxCell id="YLiVXb2pXkyYQfCGrXQz-82" value="" style="shape=partialRectangle;connectable=0;fillColor=none;top=0;left=0;bottom=0;right=0;editable=1;overflow=hidden;whiteSpace=wrap;html=1;" vertex="1" parent="YLiVXb2pXkyYQfCGrXQz-81">
          <mxGeometry width="30" height="30" as="geometry">
            <mxRectangle width="30" height="30" as="alternateBounds" />
          </mxGeometry>
        </mxCell>
        <mxCell id="YLiVXb2pXkyYQfCGrXQz-83" value="nombreTipo" style="shape=partialRectangle;connectable=0;fillColor=none;top=0;left=0;bottom=0;right=0;align=left;spacingLeft=6;overflow=hidden;whiteSpace=wrap;html=1;" vertex="1" parent="YLiVXb2pXkyYQfCGrXQz-81">
          <mxGeometry x="30" width="150" height="30" as="geometry">
            <mxRectangle width="150" height="30" as="alternateBounds" />
          </mxGeometry>
        </mxCell>
        <mxCell id="YLiVXb2pXkyYQfCGrXQz-84" value="" style="shape=tableRow;horizontal=0;startSize=0;swimlaneHead=0;swimlaneBody=0;fillColor=none;collapsible=0;dropTarget=0;points=[[0,0.5],[1,0.5]];portConstraint=eastwest;top=0;left=0;right=0;bottom=0;" vertex="1" parent="YLiVXb2pXkyYQfCGrXQz-74">
          <mxGeometry y="120" width="180" height="30" as="geometry" />
        </mxCell>
        <mxCell id="YLiVXb2pXkyYQfCGrXQz-85" value="" style="shape=partialRectangle;connectable=0;fillColor=none;top=0;left=0;bottom=0;right=0;editable=1;overflow=hidden;whiteSpace=wrap;html=1;" vertex="1" parent="YLiVXb2pXkyYQfCGrXQz-84">
          <mxGeometry width="30" height="30" as="geometry">
            <mxRectangle width="30" height="30" as="alternateBounds" />
          </mxGeometry>
        </mxCell>
        <mxCell id="YLiVXb2pXkyYQfCGrXQz-86" value="nombreAgente" style="shape=partialRectangle;connectable=0;fillColor=none;top=0;left=0;bottom=0;right=0;align=left;spacingLeft=6;overflow=hidden;whiteSpace=wrap;html=1;" vertex="1" parent="YLiVXb2pXkyYQfCGrXQz-84">
          <mxGeometry x="30" width="150" height="30" as="geometry">
            <mxRectangle width="150" height="30" as="alternateBounds" />
          </mxGeometry>
        </mxCell>
        <mxCell id="YLiVXb2pXkyYQfCGrXQz-97" value="" style="rounded=0;whiteSpace=wrap;html=1;fillColor=#FFF2CC;" vertex="1" parent="1">
          <mxGeometry x="2530" y="906" width="280" height="230" as="geometry" />
        </mxCell>
        <mxCell id="YLiVXb2pXkyYQfCGrXQz-98" value="&lt;b&gt;# Ventas&lt;/b&gt;" style="ellipse;whiteSpace=wrap;html=1;fillColor=#99FFFF;" vertex="1" parent="1">
          <mxGeometry x="2623" y="996" width="90" height="50" as="geometry" />
        </mxCell>
        <mxCell id="YLiVXb2pXkyYQfCGrXQz-99" value="Fecha" style="rounded=0;whiteSpace=wrap;html=1;" vertex="1" parent="1">
          <mxGeometry x="2543" y="1056" width="70" height="30" as="geometry" />
        </mxCell>
        <mxCell id="YLiVXb2pXkyYQfCGrXQz-100" value="" style="endArrow=none;html=1;rounded=0;exitX=0.5;exitY=0;exitDx=0;exitDy=0;entryX=0;entryY=1;entryDx=0;entryDy=0;" edge="1" parent="1" source="YLiVXb2pXkyYQfCGrXQz-99">
          <mxGeometry width="50" height="50" relative="1" as="geometry">
            <mxPoint x="2743" y="1094.5" as="sourcePoint" />
            <mxPoint x="2636" y="1037.5" as="targetPoint" />
          </mxGeometry>
        </mxCell>
        <mxCell id="YLiVXb2pXkyYQfCGrXQz-101" value="Agente" style="rounded=0;whiteSpace=wrap;html=1;" vertex="1" parent="1">
          <mxGeometry x="2633" y="1086" width="70" height="30" as="geometry" />
        </mxCell>
        <mxCell id="YLiVXb2pXkyYQfCGrXQz-102" value="" style="endArrow=none;html=1;rounded=0;exitX=0.5;exitY=0;exitDx=0;exitDy=0;entryX=0.5;entryY=1;entryDx=0;entryDy=0;" edge="1" parent="1" source="YLiVXb2pXkyYQfCGrXQz-101" target="YLiVXb2pXkyYQfCGrXQz-98">
          <mxGeometry width="50" height="50" relative="1" as="geometry">
            <mxPoint x="2743" y="1094.5" as="sourcePoint" />
            <mxPoint x="2700" y="1037.5" as="targetPoint" />
          </mxGeometry>
        </mxCell>
        <mxCell id="YLiVXb2pXkyYQfCGrXQz-103" value="Producto" style="rounded=0;whiteSpace=wrap;html=1;" vertex="1" parent="1">
          <mxGeometry x="2733" y="1056" width="70" height="30" as="geometry" />
        </mxCell>
        <mxCell id="YLiVXb2pXkyYQfCGrXQz-104" value="" style="endArrow=none;html=1;rounded=0;exitX=0.5;exitY=0;exitDx=0;exitDy=0;entryX=1;entryY=1;entryDx=0;entryDy=0;" edge="1" parent="1" source="YLiVXb2pXkyYQfCGrXQz-103" target="YLiVXb2pXkyYQfCGrXQz-98">
          <mxGeometry width="50" height="50" relative="1" as="geometry">
            <mxPoint x="2588" y="1066" as="sourcePoint" />
            <mxPoint x="2646" y="1047.5" as="targetPoint" />
          </mxGeometry>
        </mxCell>
        <mxCell id="YLiVXb2pXkyYQfCGrXQz-105" value="Ventas" style="rounded=0;whiteSpace=wrap;html=1;" vertex="1" parent="1">
          <mxGeometry x="2633" y="926" width="70" height="30" as="geometry" />
        </mxCell>
        <mxCell id="YLiVXb2pXkyYQfCGrXQz-106" value="" style="endArrow=classic;html=1;rounded=0;exitX=0.5;exitY=0;exitDx=0;exitDy=0;entryX=0.5;entryY=1;entryDx=0;entryDy=0;" edge="1" parent="1" source="YLiVXb2pXkyYQfCGrXQz-98" target="YLiVXb2pXkyYQfCGrXQz-105">
          <mxGeometry width="50" height="50" relative="1" as="geometry">
            <mxPoint x="2661" y="986" as="sourcePoint" />
            <mxPoint x="2758" y="1049" as="targetPoint" />
          </mxGeometry>
        </mxCell>
        <mxCell id="YLiVXb2pXkyYQfCGrXQz-107" value="Ventas" style="shape=table;startSize=30;container=1;collapsible=1;childLayout=tableLayout;fixedRows=1;rowLines=0;fontStyle=1;align=center;resizeLast=1;html=1;" vertex="1" parent="1">
          <mxGeometry x="3100" y="1165" width="180" height="150" as="geometry">
            <mxRectangle x="2790" y="401.5" width="100" height="30" as="alternateBounds" />
          </mxGeometry>
        </mxCell>
        <mxCell id="YLiVXb2pXkyYQfCGrXQz-108" value="" style="shape=tableRow;horizontal=0;startSize=0;swimlaneHead=0;swimlaneBody=0;fillColor=none;collapsible=0;dropTarget=0;points=[[0,0.5],[1,0.5]];portConstraint=eastwest;top=0;left=0;right=0;bottom=1;" vertex="1" parent="YLiVXb2pXkyYQfCGrXQz-107">
          <mxGeometry y="30" width="180" height="30" as="geometry" />
        </mxCell>
        <mxCell id="YLiVXb2pXkyYQfCGrXQz-109" value="PK" style="shape=partialRectangle;connectable=0;fillColor=none;top=0;left=0;bottom=0;right=0;fontStyle=1;overflow=hidden;whiteSpace=wrap;html=1;" vertex="1" parent="YLiVXb2pXkyYQfCGrXQz-108">
          <mxGeometry width="30" height="30" as="geometry">
            <mxRectangle width="30" height="30" as="alternateBounds" />
          </mxGeometry>
        </mxCell>
        <mxCell id="YLiVXb2pXkyYQfCGrXQz-110" value="VentasId" style="shape=partialRectangle;connectable=0;fillColor=none;top=0;left=0;bottom=0;right=0;align=left;spacingLeft=6;fontStyle=5;overflow=hidden;whiteSpace=wrap;html=1;" vertex="1" parent="YLiVXb2pXkyYQfCGrXQz-108">
          <mxGeometry x="30" width="150" height="30" as="geometry">
            <mxRectangle width="150" height="30" as="alternateBounds" />
          </mxGeometry>
        </mxCell>
        <mxCell id="YLiVXb2pXkyYQfCGrXQz-114" value="" style="shape=tableRow;horizontal=0;startSize=0;swimlaneHead=0;swimlaneBody=0;fillColor=none;collapsible=0;dropTarget=0;points=[[0,0.5],[1,0.5]];portConstraint=eastwest;top=0;left=0;right=0;bottom=0;" vertex="1" parent="YLiVXb2pXkyYQfCGrXQz-107">
          <mxGeometry y="60" width="180" height="30" as="geometry" />
        </mxCell>
        <mxCell id="YLiVXb2pXkyYQfCGrXQz-115" value="" style="shape=partialRectangle;connectable=0;fillColor=none;top=0;left=0;bottom=0;right=0;editable=1;overflow=hidden;whiteSpace=wrap;html=1;" vertex="1" parent="YLiVXb2pXkyYQfCGrXQz-114">
          <mxGeometry width="30" height="30" as="geometry">
            <mxRectangle width="30" height="30" as="alternateBounds" />
          </mxGeometry>
        </mxCell>
        <mxCell id="YLiVXb2pXkyYQfCGrXQz-116" value="unidades_vendidas" style="shape=partialRectangle;connectable=0;fillColor=none;top=0;left=0;bottom=0;right=0;align=left;spacingLeft=6;overflow=hidden;whiteSpace=wrap;html=1;" vertex="1" parent="YLiVXb2pXkyYQfCGrXQz-114">
          <mxGeometry x="30" width="150" height="30" as="geometry">
            <mxRectangle width="150" height="30" as="alternateBounds" />
          </mxGeometry>
        </mxCell>
        <mxCell id="YLiVXb2pXkyYQfCGrXQz-117" value="" style="shape=tableRow;horizontal=0;startSize=0;swimlaneHead=0;swimlaneBody=0;fillColor=none;collapsible=0;dropTarget=0;points=[[0,0.5],[1,0.5]];portConstraint=eastwest;top=0;left=0;right=0;bottom=0;" vertex="1" parent="YLiVXb2pXkyYQfCGrXQz-107">
          <mxGeometry y="90" width="180" height="30" as="geometry" />
        </mxCell>
        <mxCell id="YLiVXb2pXkyYQfCGrXQz-118" value="" style="shape=partialRectangle;connectable=0;fillColor=none;top=0;left=0;bottom=0;right=0;editable=1;overflow=hidden;whiteSpace=wrap;html=1;" vertex="1" parent="YLiVXb2pXkyYQfCGrXQz-117">
          <mxGeometry width="30" height="30" as="geometry">
            <mxRectangle width="30" height="30" as="alternateBounds" />
          </mxGeometry>
        </mxCell>
        <mxCell id="YLiVXb2pXkyYQfCGrXQz-119" value="monto_vendido" style="shape=partialRectangle;connectable=0;fillColor=none;top=0;left=0;bottom=0;right=0;align=left;spacingLeft=6;overflow=hidden;whiteSpace=wrap;html=1;" vertex="1" parent="YLiVXb2pXkyYQfCGrXQz-117">
          <mxGeometry x="30" width="150" height="30" as="geometry">
            <mxRectangle width="150" height="30" as="alternateBounds" />
          </mxGeometry>
        </mxCell>
        <mxCell id="YLiVXb2pXkyYQfCGrXQz-120" value="" style="shape=tableRow;horizontal=0;startSize=0;swimlaneHead=0;swimlaneBody=0;fillColor=none;collapsible=0;dropTarget=0;points=[[0,0.5],[1,0.5]];portConstraint=eastwest;top=0;left=0;right=0;bottom=0;" vertex="1" parent="YLiVXb2pXkyYQfCGrXQz-107">
          <mxGeometry y="120" width="180" height="30" as="geometry" />
        </mxCell>
        <mxCell id="YLiVXb2pXkyYQfCGrXQz-121" value="" style="shape=partialRectangle;connectable=0;fillColor=none;top=0;left=0;bottom=0;right=0;editable=1;overflow=hidden;whiteSpace=wrap;html=1;" vertex="1" parent="YLiVXb2pXkyYQfCGrXQz-120">
          <mxGeometry width="30" height="30" as="geometry">
            <mxRectangle width="30" height="30" as="alternateBounds" />
          </mxGeometry>
        </mxCell>
        <mxCell id="YLiVXb2pXkyYQfCGrXQz-122" value="precio_unitario" style="shape=partialRectangle;connectable=0;fillColor=none;top=0;left=0;bottom=0;right=0;align=left;spacingLeft=6;overflow=hidden;whiteSpace=wrap;html=1;" vertex="1" parent="YLiVXb2pXkyYQfCGrXQz-120">
          <mxGeometry x="30" width="150" height="30" as="geometry">
            <mxRectangle width="150" height="30" as="alternateBounds" />
          </mxGeometry>
        </mxCell>
        <mxCell id="YLiVXb2pXkyYQfCGrXQz-126" value="" style="rounded=0;whiteSpace=wrap;html=1;shadow=1;fillColor=#FFF2CC;" vertex="1" parent="1">
          <mxGeometry x="2575" y="1196.5" width="160" height="100" as="geometry" />
        </mxCell>
        <mxCell id="YLiVXb2pXkyYQfCGrXQz-127" value="Ventas" style="text;html=1;align=center;verticalAlign=middle;resizable=0;points=[];autosize=1;strokeColor=none;fillColor=none;" vertex="1" parent="1">
          <mxGeometry x="2580" y="1196.5" width="60" height="30" as="geometry" />
        </mxCell>
        <mxCell id="YLiVXb2pXkyYQfCGrXQz-128" value="unidades_vendidas&lt;br&gt;monto_vendido&lt;br&gt;precio_unitario" style="rounded=0;whiteSpace=wrap;html=1;" vertex="1" parent="1">
          <mxGeometry x="2585" y="1226.5" width="140" height="60" as="geometry" />
        </mxCell>
        <mxCell id="YLiVXb2pXkyYQfCGrXQz-129" value="Fecha" style="shape=table;startSize=30;container=1;collapsible=1;childLayout=tableLayout;fixedRows=1;rowLines=0;fontStyle=1;align=center;resizeLast=1;html=1;" vertex="1" parent="1">
          <mxGeometry x="2860" y="920" width="180" height="180" as="geometry" />
        </mxCell>
        <mxCell id="YLiVXb2pXkyYQfCGrXQz-130" value="" style="shape=tableRow;horizontal=0;startSize=0;swimlaneHead=0;swimlaneBody=0;fillColor=none;collapsible=0;dropTarget=0;points=[[0,0.5],[1,0.5]];portConstraint=eastwest;top=0;left=0;right=0;bottom=1;" vertex="1" parent="YLiVXb2pXkyYQfCGrXQz-129">
          <mxGeometry y="30" width="180" height="30" as="geometry" />
        </mxCell>
        <mxCell id="YLiVXb2pXkyYQfCGrXQz-131" value="PK" style="shape=partialRectangle;connectable=0;fillColor=none;top=0;left=0;bottom=0;right=0;fontStyle=1;overflow=hidden;whiteSpace=wrap;html=1;" vertex="1" parent="YLiVXb2pXkyYQfCGrXQz-130">
          <mxGeometry width="30" height="30" as="geometry">
            <mxRectangle width="30" height="30" as="alternateBounds" />
          </mxGeometry>
        </mxCell>
        <mxCell id="YLiVXb2pXkyYQfCGrXQz-132" value="idFecha" style="shape=partialRectangle;connectable=0;fillColor=none;top=0;left=0;bottom=0;right=0;align=left;spacingLeft=6;fontStyle=5;overflow=hidden;whiteSpace=wrap;html=1;" vertex="1" parent="YLiVXb2pXkyYQfCGrXQz-130">
          <mxGeometry x="30" width="150" height="30" as="geometry">
            <mxRectangle width="150" height="30" as="alternateBounds" />
          </mxGeometry>
        </mxCell>
        <mxCell id="YLiVXb2pXkyYQfCGrXQz-133" value="" style="shape=tableRow;horizontal=0;startSize=0;swimlaneHead=0;swimlaneBody=0;fillColor=none;collapsible=0;dropTarget=0;points=[[0,0.5],[1,0.5]];portConstraint=eastwest;top=0;left=0;right=0;bottom=0;" vertex="1" parent="YLiVXb2pXkyYQfCGrXQz-129">
          <mxGeometry y="60" width="180" height="30" as="geometry" />
        </mxCell>
        <mxCell id="YLiVXb2pXkyYQfCGrXQz-134" value="" style="shape=partialRectangle;connectable=0;fillColor=none;top=0;left=0;bottom=0;right=0;editable=1;overflow=hidden;whiteSpace=wrap;html=1;" vertex="1" parent="YLiVXb2pXkyYQfCGrXQz-133">
          <mxGeometry width="30" height="30" as="geometry">
            <mxRectangle width="30" height="30" as="alternateBounds" />
          </mxGeometry>
        </mxCell>
        <mxCell id="YLiVXb2pXkyYQfCGrXQz-135" value="num_anio" style="shape=partialRectangle;connectable=0;fillColor=none;top=0;left=0;bottom=0;right=0;align=left;spacingLeft=6;overflow=hidden;whiteSpace=wrap;html=1;" vertex="1" parent="YLiVXb2pXkyYQfCGrXQz-133">
          <mxGeometry x="30" width="150" height="30" as="geometry">
            <mxRectangle width="150" height="30" as="alternateBounds" />
          </mxGeometry>
        </mxCell>
        <mxCell id="YLiVXb2pXkyYQfCGrXQz-136" value="" style="shape=tableRow;horizontal=0;startSize=0;swimlaneHead=0;swimlaneBody=0;fillColor=none;collapsible=0;dropTarget=0;points=[[0,0.5],[1,0.5]];portConstraint=eastwest;top=0;left=0;right=0;bottom=0;" vertex="1" parent="YLiVXb2pXkyYQfCGrXQz-129">
          <mxGeometry y="90" width="180" height="30" as="geometry" />
        </mxCell>
        <mxCell id="YLiVXb2pXkyYQfCGrXQz-137" value="" style="shape=partialRectangle;connectable=0;fillColor=none;top=0;left=0;bottom=0;right=0;editable=1;overflow=hidden;whiteSpace=wrap;html=1;" vertex="1" parent="YLiVXb2pXkyYQfCGrXQz-136">
          <mxGeometry width="30" height="30" as="geometry">
            <mxRectangle width="30" height="30" as="alternateBounds" />
          </mxGeometry>
        </mxCell>
        <mxCell id="YLiVXb2pXkyYQfCGrXQz-138" value="num_mes" style="shape=partialRectangle;connectable=0;fillColor=none;top=0;left=0;bottom=0;right=0;align=left;spacingLeft=6;overflow=hidden;whiteSpace=wrap;html=1;" vertex="1" parent="YLiVXb2pXkyYQfCGrXQz-136">
          <mxGeometry x="30" width="150" height="30" as="geometry">
            <mxRectangle width="150" height="30" as="alternateBounds" />
          </mxGeometry>
        </mxCell>
        <mxCell id="YLiVXb2pXkyYQfCGrXQz-139" value="" style="shape=tableRow;horizontal=0;startSize=0;swimlaneHead=0;swimlaneBody=0;fillColor=none;collapsible=0;dropTarget=0;points=[[0,0.5],[1,0.5]];portConstraint=eastwest;top=0;left=0;right=0;bottom=0;" vertex="1" parent="YLiVXb2pXkyYQfCGrXQz-129">
          <mxGeometry y="120" width="180" height="30" as="geometry" />
        </mxCell>
        <mxCell id="YLiVXb2pXkyYQfCGrXQz-140" value="" style="shape=partialRectangle;connectable=0;fillColor=none;top=0;left=0;bottom=0;right=0;editable=1;overflow=hidden;whiteSpace=wrap;html=1;" vertex="1" parent="YLiVXb2pXkyYQfCGrXQz-139">
          <mxGeometry width="30" height="30" as="geometry">
            <mxRectangle width="30" height="30" as="alternateBounds" />
          </mxGeometry>
        </mxCell>
        <mxCell id="YLiVXb2pXkyYQfCGrXQz-141" value="num_semana" style="shape=partialRectangle;connectable=0;fillColor=none;top=0;left=0;bottom=0;right=0;align=left;spacingLeft=6;overflow=hidden;whiteSpace=wrap;html=1;" vertex="1" parent="YLiVXb2pXkyYQfCGrXQz-139">
          <mxGeometry x="30" width="150" height="30" as="geometry">
            <mxRectangle width="150" height="30" as="alternateBounds" />
          </mxGeometry>
        </mxCell>
        <mxCell id="YLiVXb2pXkyYQfCGrXQz-142" value="" style="shape=tableRow;horizontal=0;startSize=0;swimlaneHead=0;swimlaneBody=0;fillColor=none;collapsible=0;dropTarget=0;points=[[0,0.5],[1,0.5]];portConstraint=eastwest;top=0;left=0;right=0;bottom=0;" vertex="1" parent="YLiVXb2pXkyYQfCGrXQz-129">
          <mxGeometry y="150" width="180" height="30" as="geometry" />
        </mxCell>
        <mxCell id="YLiVXb2pXkyYQfCGrXQz-143" value="" style="shape=partialRectangle;connectable=0;fillColor=none;top=0;left=0;bottom=0;right=0;editable=1;overflow=hidden;whiteSpace=wrap;html=1;" vertex="1" parent="YLiVXb2pXkyYQfCGrXQz-142">
          <mxGeometry width="30" height="30" as="geometry">
            <mxRectangle width="30" height="30" as="alternateBounds" />
          </mxGeometry>
        </mxCell>
        <mxCell id="YLiVXb2pXkyYQfCGrXQz-144" value="num_dia" style="shape=partialRectangle;connectable=0;fillColor=none;top=0;left=0;bottom=0;right=0;align=left;spacingLeft=6;overflow=hidden;whiteSpace=wrap;html=1;" vertex="1" parent="YLiVXb2pXkyYQfCGrXQz-142">
          <mxGeometry x="30" width="150" height="30" as="geometry">
            <mxRectangle width="150" height="30" as="alternateBounds" />
          </mxGeometry>
        </mxCell>
        <mxCell id="YLiVXb2pXkyYQfCGrXQz-145" value="Agente" style="shape=table;startSize=30;container=1;collapsible=1;childLayout=tableLayout;fixedRows=1;rowLines=0;fontStyle=1;align=center;resizeLast=1;html=1;" vertex="1" parent="1">
          <mxGeometry x="3340" y="920" width="180" height="150" as="geometry" />
        </mxCell>
        <mxCell id="YLiVXb2pXkyYQfCGrXQz-146" value="" style="shape=tableRow;horizontal=0;startSize=0;swimlaneHead=0;swimlaneBody=0;fillColor=none;collapsible=0;dropTarget=0;points=[[0,0.5],[1,0.5]];portConstraint=eastwest;top=0;left=0;right=0;bottom=1;" vertex="1" parent="YLiVXb2pXkyYQfCGrXQz-145">
          <mxGeometry y="30" width="180" height="30" as="geometry" />
        </mxCell>
        <mxCell id="YLiVXb2pXkyYQfCGrXQz-147" value="PK" style="shape=partialRectangle;connectable=0;fillColor=none;top=0;left=0;bottom=0;right=0;fontStyle=1;overflow=hidden;whiteSpace=wrap;html=1;" vertex="1" parent="YLiVXb2pXkyYQfCGrXQz-146">
          <mxGeometry width="30" height="30" as="geometry">
            <mxRectangle width="30" height="30" as="alternateBounds" />
          </mxGeometry>
        </mxCell>
        <mxCell id="YLiVXb2pXkyYQfCGrXQz-148" value="idAgente" style="shape=partialRectangle;connectable=0;fillColor=none;top=0;left=0;bottom=0;right=0;align=left;spacingLeft=6;fontStyle=5;overflow=hidden;whiteSpace=wrap;html=1;" vertex="1" parent="YLiVXb2pXkyYQfCGrXQz-146">
          <mxGeometry x="30" width="150" height="30" as="geometry">
            <mxRectangle width="150" height="30" as="alternateBounds" />
          </mxGeometry>
        </mxCell>
        <mxCell id="YLiVXb2pXkyYQfCGrXQz-149" value="" style="shape=tableRow;horizontal=0;startSize=0;swimlaneHead=0;swimlaneBody=0;fillColor=none;collapsible=0;dropTarget=0;points=[[0,0.5],[1,0.5]];portConstraint=eastwest;top=0;left=0;right=0;bottom=0;" vertex="1" parent="YLiVXb2pXkyYQfCGrXQz-145">
          <mxGeometry y="60" width="180" height="30" as="geometry" />
        </mxCell>
        <mxCell id="YLiVXb2pXkyYQfCGrXQz-150" value="" style="shape=partialRectangle;connectable=0;fillColor=none;top=0;left=0;bottom=0;right=0;editable=1;overflow=hidden;whiteSpace=wrap;html=1;" vertex="1" parent="YLiVXb2pXkyYQfCGrXQz-149">
          <mxGeometry width="30" height="30" as="geometry">
            <mxRectangle width="30" height="30" as="alternateBounds" />
          </mxGeometry>
        </mxCell>
        <mxCell id="YLiVXb2pXkyYQfCGrXQz-151" value="idTipoAgente" style="shape=partialRectangle;connectable=0;fillColor=none;top=0;left=0;bottom=0;right=0;align=left;spacingLeft=6;overflow=hidden;whiteSpace=wrap;html=1;" vertex="1" parent="YLiVXb2pXkyYQfCGrXQz-149">
          <mxGeometry x="30" width="150" height="30" as="geometry">
            <mxRectangle width="150" height="30" as="alternateBounds" />
          </mxGeometry>
        </mxCell>
        <mxCell id="YLiVXb2pXkyYQfCGrXQz-152" value="" style="shape=tableRow;horizontal=0;startSize=0;swimlaneHead=0;swimlaneBody=0;fillColor=none;collapsible=0;dropTarget=0;points=[[0,0.5],[1,0.5]];portConstraint=eastwest;top=0;left=0;right=0;bottom=0;" vertex="1" parent="YLiVXb2pXkyYQfCGrXQz-145">
          <mxGeometry y="90" width="180" height="30" as="geometry" />
        </mxCell>
        <mxCell id="YLiVXb2pXkyYQfCGrXQz-153" value="" style="shape=partialRectangle;connectable=0;fillColor=none;top=0;left=0;bottom=0;right=0;editable=1;overflow=hidden;whiteSpace=wrap;html=1;" vertex="1" parent="YLiVXb2pXkyYQfCGrXQz-152">
          <mxGeometry width="30" height="30" as="geometry">
            <mxRectangle width="30" height="30" as="alternateBounds" />
          </mxGeometry>
        </mxCell>
        <mxCell id="YLiVXb2pXkyYQfCGrXQz-154" value="nombreTipo" style="shape=partialRectangle;connectable=0;fillColor=none;top=0;left=0;bottom=0;right=0;align=left;spacingLeft=6;overflow=hidden;whiteSpace=wrap;html=1;" vertex="1" parent="YLiVXb2pXkyYQfCGrXQz-152">
          <mxGeometry x="30" width="150" height="30" as="geometry">
            <mxRectangle width="150" height="30" as="alternateBounds" />
          </mxGeometry>
        </mxCell>
        <mxCell id="YLiVXb2pXkyYQfCGrXQz-155" value="" style="shape=tableRow;horizontal=0;startSize=0;swimlaneHead=0;swimlaneBody=0;fillColor=none;collapsible=0;dropTarget=0;points=[[0,0.5],[1,0.5]];portConstraint=eastwest;top=0;left=0;right=0;bottom=0;" vertex="1" parent="YLiVXb2pXkyYQfCGrXQz-145">
          <mxGeometry y="120" width="180" height="30" as="geometry" />
        </mxCell>
        <mxCell id="YLiVXb2pXkyYQfCGrXQz-156" value="" style="shape=partialRectangle;connectable=0;fillColor=none;top=0;left=0;bottom=0;right=0;editable=1;overflow=hidden;whiteSpace=wrap;html=1;" vertex="1" parent="YLiVXb2pXkyYQfCGrXQz-155">
          <mxGeometry width="30" height="30" as="geometry">
            <mxRectangle width="30" height="30" as="alternateBounds" />
          </mxGeometry>
        </mxCell>
        <mxCell id="YLiVXb2pXkyYQfCGrXQz-157" value="nombreAgente" style="shape=partialRectangle;connectable=0;fillColor=none;top=0;left=0;bottom=0;right=0;align=left;spacingLeft=6;overflow=hidden;whiteSpace=wrap;html=1;" vertex="1" parent="YLiVXb2pXkyYQfCGrXQz-155">
          <mxGeometry x="30" width="150" height="30" as="geometry">
            <mxRectangle width="150" height="30" as="alternateBounds" />
          </mxGeometry>
        </mxCell>
        <mxCell id="YLiVXb2pXkyYQfCGrXQz-158" value="Producto" style="shape=table;startSize=30;container=1;collapsible=1;childLayout=tableLayout;fixedRows=1;rowLines=0;fontStyle=1;align=center;resizeLast=1;html=1;" vertex="1" parent="1">
          <mxGeometry x="2860" y="1410" width="180" height="150" as="geometry" />
        </mxCell>
        <mxCell id="YLiVXb2pXkyYQfCGrXQz-159" value="" style="shape=tableRow;horizontal=0;startSize=0;swimlaneHead=0;swimlaneBody=0;fillColor=none;collapsible=0;dropTarget=0;points=[[0,0.5],[1,0.5]];portConstraint=eastwest;top=0;left=0;right=0;bottom=1;" vertex="1" parent="YLiVXb2pXkyYQfCGrXQz-158">
          <mxGeometry y="30" width="180" height="30" as="geometry" />
        </mxCell>
        <mxCell id="YLiVXb2pXkyYQfCGrXQz-160" value="PK" style="shape=partialRectangle;connectable=0;fillColor=none;top=0;left=0;bottom=0;right=0;fontStyle=1;overflow=hidden;whiteSpace=wrap;html=1;" vertex="1" parent="YLiVXb2pXkyYQfCGrXQz-159">
          <mxGeometry width="30" height="30" as="geometry">
            <mxRectangle width="30" height="30" as="alternateBounds" />
          </mxGeometry>
        </mxCell>
        <mxCell id="YLiVXb2pXkyYQfCGrXQz-161" value="idProducto" style="shape=partialRectangle;connectable=0;fillColor=none;top=0;left=0;bottom=0;right=0;align=left;spacingLeft=6;fontStyle=5;overflow=hidden;whiteSpace=wrap;html=1;" vertex="1" parent="YLiVXb2pXkyYQfCGrXQz-159">
          <mxGeometry x="30" width="150" height="30" as="geometry">
            <mxRectangle width="150" height="30" as="alternateBounds" />
          </mxGeometry>
        </mxCell>
        <mxCell id="YLiVXb2pXkyYQfCGrXQz-162" value="" style="shape=tableRow;horizontal=0;startSize=0;swimlaneHead=0;swimlaneBody=0;fillColor=none;collapsible=0;dropTarget=0;points=[[0,0.5],[1,0.5]];portConstraint=eastwest;top=0;left=0;right=0;bottom=0;" vertex="1" parent="YLiVXb2pXkyYQfCGrXQz-158">
          <mxGeometry y="60" width="180" height="30" as="geometry" />
        </mxCell>
        <mxCell id="YLiVXb2pXkyYQfCGrXQz-163" value="" style="shape=partialRectangle;connectable=0;fillColor=none;top=0;left=0;bottom=0;right=0;editable=1;overflow=hidden;whiteSpace=wrap;html=1;" vertex="1" parent="YLiVXb2pXkyYQfCGrXQz-162">
          <mxGeometry width="30" height="30" as="geometry">
            <mxRectangle width="30" height="30" as="alternateBounds" />
          </mxGeometry>
        </mxCell>
        <mxCell id="YLiVXb2pXkyYQfCGrXQz-164" value="idDivision" style="shape=partialRectangle;connectable=0;fillColor=none;top=0;left=0;bottom=0;right=0;align=left;spacingLeft=6;overflow=hidden;whiteSpace=wrap;html=1;" vertex="1" parent="YLiVXb2pXkyYQfCGrXQz-162">
          <mxGeometry x="30" width="150" height="30" as="geometry">
            <mxRectangle width="150" height="30" as="alternateBounds" />
          </mxGeometry>
        </mxCell>
        <mxCell id="YLiVXb2pXkyYQfCGrXQz-165" value="" style="shape=tableRow;horizontal=0;startSize=0;swimlaneHead=0;swimlaneBody=0;fillColor=none;collapsible=0;dropTarget=0;points=[[0,0.5],[1,0.5]];portConstraint=eastwest;top=0;left=0;right=0;bottom=0;" vertex="1" parent="YLiVXb2pXkyYQfCGrXQz-158">
          <mxGeometry y="90" width="180" height="30" as="geometry" />
        </mxCell>
        <mxCell id="YLiVXb2pXkyYQfCGrXQz-166" value="" style="shape=partialRectangle;connectable=0;fillColor=none;top=0;left=0;bottom=0;right=0;editable=1;overflow=hidden;whiteSpace=wrap;html=1;" vertex="1" parent="YLiVXb2pXkyYQfCGrXQz-165">
          <mxGeometry width="30" height="30" as="geometry">
            <mxRectangle width="30" height="30" as="alternateBounds" />
          </mxGeometry>
        </mxCell>
        <mxCell id="YLiVXb2pXkyYQfCGrXQz-167" value="nombreDivision" style="shape=partialRectangle;connectable=0;fillColor=none;top=0;left=0;bottom=0;right=0;align=left;spacingLeft=6;overflow=hidden;whiteSpace=wrap;html=1;" vertex="1" parent="YLiVXb2pXkyYQfCGrXQz-165">
          <mxGeometry x="30" width="150" height="30" as="geometry">
            <mxRectangle width="150" height="30" as="alternateBounds" />
          </mxGeometry>
        </mxCell>
        <mxCell id="YLiVXb2pXkyYQfCGrXQz-168" value="" style="shape=tableRow;horizontal=0;startSize=0;swimlaneHead=0;swimlaneBody=0;fillColor=none;collapsible=0;dropTarget=0;points=[[0,0.5],[1,0.5]];portConstraint=eastwest;top=0;left=0;right=0;bottom=0;" vertex="1" parent="YLiVXb2pXkyYQfCGrXQz-158">
          <mxGeometry y="120" width="180" height="30" as="geometry" />
        </mxCell>
        <mxCell id="YLiVXb2pXkyYQfCGrXQz-169" value="" style="shape=partialRectangle;connectable=0;fillColor=none;top=0;left=0;bottom=0;right=0;editable=1;overflow=hidden;whiteSpace=wrap;html=1;" vertex="1" parent="YLiVXb2pXkyYQfCGrXQz-168">
          <mxGeometry width="30" height="30" as="geometry">
            <mxRectangle width="30" height="30" as="alternateBounds" />
          </mxGeometry>
        </mxCell>
        <mxCell id="YLiVXb2pXkyYQfCGrXQz-170" value="nombreProducto" style="shape=partialRectangle;connectable=0;fillColor=none;top=0;left=0;bottom=0;right=0;align=left;spacingLeft=6;overflow=hidden;whiteSpace=wrap;html=1;" vertex="1" parent="YLiVXb2pXkyYQfCGrXQz-168">
          <mxGeometry x="30" width="150" height="30" as="geometry">
            <mxRectangle width="150" height="30" as="alternateBounds" />
          </mxGeometry>
        </mxCell>
        <mxCell id="YLiVXb2pXkyYQfCGrXQz-171" value="" style="rounded=0;whiteSpace=wrap;html=1;shadow=1;fillColor=#FFF2CC;" vertex="1" parent="1">
          <mxGeometry x="2575" y="1370" width="160" height="170" as="geometry" />
        </mxCell>
        <mxCell id="YLiVXb2pXkyYQfCGrXQz-172" value="Producto" style="text;html=1;align=center;verticalAlign=middle;resizable=0;points=[];autosize=1;strokeColor=none;fillColor=none;" vertex="1" parent="1">
          <mxGeometry x="2575" y="1370" width="70" height="30" as="geometry" />
        </mxCell>
        <mxCell id="YLiVXb2pXkyYQfCGrXQz-173" style="edgeStyle=orthogonalEdgeStyle;rounded=0;orthogonalLoop=1;jettySize=auto;html=1;entryX=0.5;entryY=1;entryDx=0;entryDy=0;" edge="1" parent="1" source="YLiVXb2pXkyYQfCGrXQz-174" target="YLiVXb2pXkyYQfCGrXQz-175">
          <mxGeometry relative="1" as="geometry" />
        </mxCell>
        <mxCell id="YLiVXb2pXkyYQfCGrXQz-174" value="Producto&lt;br&gt;id_division&lt;br&gt;id_producto&lt;br&gt;nombre_producto" style="rounded=0;whiteSpace=wrap;html=1;" vertex="1" parent="1">
          <mxGeometry x="2600" y="1462" width="110" height="70" as="geometry" />
        </mxCell>
        <mxCell id="YLiVXb2pXkyYQfCGrXQz-175" value="División&lt;br&gt;id_division&lt;br&gt;nombre_division" style="rounded=0;whiteSpace=wrap;html=1;" vertex="1" parent="1">
          <mxGeometry x="2600" y="1397" width="110" height="48" as="geometry" />
        </mxCell>
        <mxCell id="YLiVXb2pXkyYQfCGrXQz-180" value="" style="rounded=0;whiteSpace=wrap;html=1;fillColor=#FFF2CC;" vertex="1" parent="1">
          <mxGeometry x="3620" y="200" width="340" height="270" as="geometry" />
        </mxCell>
        <mxCell id="YLiVXb2pXkyYQfCGrXQz-181" value="&lt;b&gt;Calidad&lt;/b&gt;" style="ellipse;whiteSpace=wrap;html=1;fillColor=#99FFFF;" vertex="1" parent="1">
          <mxGeometry x="3725" y="290" width="130" height="50" as="geometry" />
        </mxCell>
        <mxCell id="YLiVXb2pXkyYQfCGrXQz-182" value="Fecha" style="rounded=0;whiteSpace=wrap;html=1;" vertex="1" parent="1">
          <mxGeometry x="3670" y="370" width="70" height="30" as="geometry" />
        </mxCell>
        <mxCell id="YLiVXb2pXkyYQfCGrXQz-183" value="" style="endArrow=none;html=1;rounded=0;exitX=0.5;exitY=0;exitDx=0;exitDy=0;entryX=0;entryY=1;entryDx=0;entryDy=0;" edge="1" parent="1" source="YLiVXb2pXkyYQfCGrXQz-182" target="YLiVXb2pXkyYQfCGrXQz-181">
          <mxGeometry width="50" height="50" relative="1" as="geometry">
            <mxPoint x="3860" y="390" as="sourcePoint" />
            <mxPoint x="3910" y="340" as="targetPoint" />
          </mxGeometry>
        </mxCell>
        <mxCell id="YLiVXb2pXkyYQfCGrXQz-184" value="Agente" style="rounded=0;whiteSpace=wrap;html=1;" vertex="1" parent="1">
          <mxGeometry x="3755" y="410" width="70" height="30" as="geometry" />
        </mxCell>
        <mxCell id="YLiVXb2pXkyYQfCGrXQz-185" value="" style="endArrow=none;html=1;rounded=0;exitX=0.5;exitY=0;exitDx=0;exitDy=0;entryX=0.5;entryY=1;entryDx=0;entryDy=0;" edge="1" parent="1" source="YLiVXb2pXkyYQfCGrXQz-184" target="YLiVXb2pXkyYQfCGrXQz-181">
          <mxGeometry width="50" height="50" relative="1" as="geometry">
            <mxPoint x="3860" y="390" as="sourcePoint" />
            <mxPoint x="3840" y="340" as="targetPoint" />
          </mxGeometry>
        </mxCell>
        <mxCell id="YLiVXb2pXkyYQfCGrXQz-186" value="Duración" style="rounded=0;whiteSpace=wrap;html=1;" vertex="1" parent="1">
          <mxGeometry x="3758" y="220" width="70" height="30" as="geometry" />
        </mxCell>
        <mxCell id="YLiVXb2pXkyYQfCGrXQz-187" value="" style="endArrow=classic;html=1;rounded=0;entryX=0.5;entryY=1;entryDx=0;entryDy=0;exitX=0.515;exitY=0.012;exitDx=0;exitDy=0;exitPerimeter=0;" edge="1" parent="1" source="YLiVXb2pXkyYQfCGrXQz-181" target="YLiVXb2pXkyYQfCGrXQz-186">
          <mxGeometry width="50" height="50" relative="1" as="geometry">
            <mxPoint x="3792" y="300" as="sourcePoint" />
            <mxPoint x="3790" y="230" as="targetPoint" />
          </mxGeometry>
        </mxCell>
        <mxCell id="YLiVXb2pXkyYQfCGrXQz-188" value="Satisfacción" style="rounded=0;whiteSpace=wrap;html=1;" vertex="1" parent="1">
          <mxGeometry x="3845" y="370" width="70" height="30" as="geometry" />
        </mxCell>
        <mxCell id="YLiVXb2pXkyYQfCGrXQz-189" value="" style="endArrow=none;html=1;rounded=0;entryX=1;entryY=1;entryDx=0;entryDy=0;exitX=0.5;exitY=0;exitDx=0;exitDy=0;" edge="1" parent="1" source="YLiVXb2pXkyYQfCGrXQz-188" target="YLiVXb2pXkyYQfCGrXQz-181">
          <mxGeometry width="50" height="50" relative="1" as="geometry">
            <mxPoint x="3875" y="365" as="sourcePoint" />
            <mxPoint x="3830" y="325" as="targetPoint" />
          </mxGeometry>
        </mxCell>
        <mxCell id="YLiVXb2pXkyYQfCGrXQz-190" value="Calidad" style="shape=table;startSize=30;container=1;collapsible=1;childLayout=tableLayout;fixedRows=1;rowLines=0;fontStyle=1;align=center;resizeLast=1;html=1;" vertex="1" parent="1">
          <mxGeometry x="4280" y="440" width="180" height="90" as="geometry">
            <mxRectangle x="2790" y="401.5" width="100" height="30" as="alternateBounds" />
          </mxGeometry>
        </mxCell>
        <mxCell id="YLiVXb2pXkyYQfCGrXQz-191" value="" style="shape=tableRow;horizontal=0;startSize=0;swimlaneHead=0;swimlaneBody=0;fillColor=none;collapsible=0;dropTarget=0;points=[[0,0.5],[1,0.5]];portConstraint=eastwest;top=0;left=0;right=0;bottom=1;" vertex="1" parent="YLiVXb2pXkyYQfCGrXQz-190">
          <mxGeometry y="30" width="180" height="30" as="geometry" />
        </mxCell>
        <mxCell id="YLiVXb2pXkyYQfCGrXQz-192" value="PK" style="shape=partialRectangle;connectable=0;fillColor=none;top=0;left=0;bottom=0;right=0;fontStyle=1;overflow=hidden;whiteSpace=wrap;html=1;" vertex="1" parent="YLiVXb2pXkyYQfCGrXQz-191">
          <mxGeometry width="30" height="30" as="geometry">
            <mxRectangle width="30" height="30" as="alternateBounds" />
          </mxGeometry>
        </mxCell>
        <mxCell id="YLiVXb2pXkyYQfCGrXQz-193" value="CalidadId" style="shape=partialRectangle;connectable=0;fillColor=none;top=0;left=0;bottom=0;right=0;align=left;spacingLeft=6;fontStyle=5;overflow=hidden;whiteSpace=wrap;html=1;" vertex="1" parent="YLiVXb2pXkyYQfCGrXQz-191">
          <mxGeometry x="30" width="150" height="30" as="geometry">
            <mxRectangle width="150" height="30" as="alternateBounds" />
          </mxGeometry>
        </mxCell>
        <mxCell id="YLiVXb2pXkyYQfCGrXQz-194" value="" style="shape=tableRow;horizontal=0;startSize=0;swimlaneHead=0;swimlaneBody=0;fillColor=none;collapsible=0;dropTarget=0;points=[[0,0.5],[1,0.5]];portConstraint=eastwest;top=0;left=0;right=0;bottom=0;" vertex="1" parent="YLiVXb2pXkyYQfCGrXQz-190">
          <mxGeometry y="60" width="180" height="30" as="geometry" />
        </mxCell>
        <mxCell id="YLiVXb2pXkyYQfCGrXQz-195" value="" style="shape=partialRectangle;connectable=0;fillColor=none;top=0;left=0;bottom=0;right=0;editable=1;overflow=hidden;whiteSpace=wrap;html=1;" vertex="1" parent="YLiVXb2pXkyYQfCGrXQz-194">
          <mxGeometry width="30" height="30" as="geometry">
            <mxRectangle width="30" height="30" as="alternateBounds" />
          </mxGeometry>
        </mxCell>
        <mxCell id="YLiVXb2pXkyYQfCGrXQz-196" value="minutos_empleados" style="shape=partialRectangle;connectable=0;fillColor=none;top=0;left=0;bottom=0;right=0;align=left;spacingLeft=6;overflow=hidden;whiteSpace=wrap;html=1;" vertex="1" parent="YLiVXb2pXkyYQfCGrXQz-194">
          <mxGeometry x="30" width="150" height="30" as="geometry">
            <mxRectangle width="150" height="30" as="alternateBounds" />
          </mxGeometry>
        </mxCell>
        <mxCell id="YLiVXb2pXkyYQfCGrXQz-203" value="Fecha" style="shape=table;startSize=30;container=1;collapsible=1;childLayout=tableLayout;fixedRows=1;rowLines=0;fontStyle=1;align=center;resizeLast=1;html=1;" vertex="1" parent="1">
          <mxGeometry x="4010" y="205" width="180" height="180" as="geometry" />
        </mxCell>
        <mxCell id="YLiVXb2pXkyYQfCGrXQz-204" value="" style="shape=tableRow;horizontal=0;startSize=0;swimlaneHead=0;swimlaneBody=0;fillColor=none;collapsible=0;dropTarget=0;points=[[0,0.5],[1,0.5]];portConstraint=eastwest;top=0;left=0;right=0;bottom=1;" vertex="1" parent="YLiVXb2pXkyYQfCGrXQz-203">
          <mxGeometry y="30" width="180" height="30" as="geometry" />
        </mxCell>
        <mxCell id="YLiVXb2pXkyYQfCGrXQz-205" value="PK" style="shape=partialRectangle;connectable=0;fillColor=none;top=0;left=0;bottom=0;right=0;fontStyle=1;overflow=hidden;whiteSpace=wrap;html=1;" vertex="1" parent="YLiVXb2pXkyYQfCGrXQz-204">
          <mxGeometry width="30" height="30" as="geometry">
            <mxRectangle width="30" height="30" as="alternateBounds" />
          </mxGeometry>
        </mxCell>
        <mxCell id="YLiVXb2pXkyYQfCGrXQz-206" value="idFecha" style="shape=partialRectangle;connectable=0;fillColor=none;top=0;left=0;bottom=0;right=0;align=left;spacingLeft=6;fontStyle=5;overflow=hidden;whiteSpace=wrap;html=1;" vertex="1" parent="YLiVXb2pXkyYQfCGrXQz-204">
          <mxGeometry x="30" width="150" height="30" as="geometry">
            <mxRectangle width="150" height="30" as="alternateBounds" />
          </mxGeometry>
        </mxCell>
        <mxCell id="YLiVXb2pXkyYQfCGrXQz-207" value="" style="shape=tableRow;horizontal=0;startSize=0;swimlaneHead=0;swimlaneBody=0;fillColor=none;collapsible=0;dropTarget=0;points=[[0,0.5],[1,0.5]];portConstraint=eastwest;top=0;left=0;right=0;bottom=0;" vertex="1" parent="YLiVXb2pXkyYQfCGrXQz-203">
          <mxGeometry y="60" width="180" height="30" as="geometry" />
        </mxCell>
        <mxCell id="YLiVXb2pXkyYQfCGrXQz-208" value="" style="shape=partialRectangle;connectable=0;fillColor=none;top=0;left=0;bottom=0;right=0;editable=1;overflow=hidden;whiteSpace=wrap;html=1;" vertex="1" parent="YLiVXb2pXkyYQfCGrXQz-207">
          <mxGeometry width="30" height="30" as="geometry">
            <mxRectangle width="30" height="30" as="alternateBounds" />
          </mxGeometry>
        </mxCell>
        <mxCell id="YLiVXb2pXkyYQfCGrXQz-209" value="num_anio" style="shape=partialRectangle;connectable=0;fillColor=none;top=0;left=0;bottom=0;right=0;align=left;spacingLeft=6;overflow=hidden;whiteSpace=wrap;html=1;" vertex="1" parent="YLiVXb2pXkyYQfCGrXQz-207">
          <mxGeometry x="30" width="150" height="30" as="geometry">
            <mxRectangle width="150" height="30" as="alternateBounds" />
          </mxGeometry>
        </mxCell>
        <mxCell id="YLiVXb2pXkyYQfCGrXQz-210" value="" style="shape=tableRow;horizontal=0;startSize=0;swimlaneHead=0;swimlaneBody=0;fillColor=none;collapsible=0;dropTarget=0;points=[[0,0.5],[1,0.5]];portConstraint=eastwest;top=0;left=0;right=0;bottom=0;" vertex="1" parent="YLiVXb2pXkyYQfCGrXQz-203">
          <mxGeometry y="90" width="180" height="30" as="geometry" />
        </mxCell>
        <mxCell id="YLiVXb2pXkyYQfCGrXQz-211" value="" style="shape=partialRectangle;connectable=0;fillColor=none;top=0;left=0;bottom=0;right=0;editable=1;overflow=hidden;whiteSpace=wrap;html=1;" vertex="1" parent="YLiVXb2pXkyYQfCGrXQz-210">
          <mxGeometry width="30" height="30" as="geometry">
            <mxRectangle width="30" height="30" as="alternateBounds" />
          </mxGeometry>
        </mxCell>
        <mxCell id="YLiVXb2pXkyYQfCGrXQz-212" value="num_mes" style="shape=partialRectangle;connectable=0;fillColor=none;top=0;left=0;bottom=0;right=0;align=left;spacingLeft=6;overflow=hidden;whiteSpace=wrap;html=1;" vertex="1" parent="YLiVXb2pXkyYQfCGrXQz-210">
          <mxGeometry x="30" width="150" height="30" as="geometry">
            <mxRectangle width="150" height="30" as="alternateBounds" />
          </mxGeometry>
        </mxCell>
        <mxCell id="YLiVXb2pXkyYQfCGrXQz-213" value="" style="shape=tableRow;horizontal=0;startSize=0;swimlaneHead=0;swimlaneBody=0;fillColor=none;collapsible=0;dropTarget=0;points=[[0,0.5],[1,0.5]];portConstraint=eastwest;top=0;left=0;right=0;bottom=0;" vertex="1" parent="YLiVXb2pXkyYQfCGrXQz-203">
          <mxGeometry y="120" width="180" height="30" as="geometry" />
        </mxCell>
        <mxCell id="YLiVXb2pXkyYQfCGrXQz-214" value="" style="shape=partialRectangle;connectable=0;fillColor=none;top=0;left=0;bottom=0;right=0;editable=1;overflow=hidden;whiteSpace=wrap;html=1;" vertex="1" parent="YLiVXb2pXkyYQfCGrXQz-213">
          <mxGeometry width="30" height="30" as="geometry">
            <mxRectangle width="30" height="30" as="alternateBounds" />
          </mxGeometry>
        </mxCell>
        <mxCell id="YLiVXb2pXkyYQfCGrXQz-215" value="num_semana" style="shape=partialRectangle;connectable=0;fillColor=none;top=0;left=0;bottom=0;right=0;align=left;spacingLeft=6;overflow=hidden;whiteSpace=wrap;html=1;" vertex="1" parent="YLiVXb2pXkyYQfCGrXQz-213">
          <mxGeometry x="30" width="150" height="30" as="geometry">
            <mxRectangle width="150" height="30" as="alternateBounds" />
          </mxGeometry>
        </mxCell>
        <mxCell id="YLiVXb2pXkyYQfCGrXQz-216" value="" style="shape=tableRow;horizontal=0;startSize=0;swimlaneHead=0;swimlaneBody=0;fillColor=none;collapsible=0;dropTarget=0;points=[[0,0.5],[1,0.5]];portConstraint=eastwest;top=0;left=0;right=0;bottom=0;" vertex="1" parent="YLiVXb2pXkyYQfCGrXQz-203">
          <mxGeometry y="150" width="180" height="30" as="geometry" />
        </mxCell>
        <mxCell id="YLiVXb2pXkyYQfCGrXQz-217" value="" style="shape=partialRectangle;connectable=0;fillColor=none;top=0;left=0;bottom=0;right=0;editable=1;overflow=hidden;whiteSpace=wrap;html=1;" vertex="1" parent="YLiVXb2pXkyYQfCGrXQz-216">
          <mxGeometry width="30" height="30" as="geometry">
            <mxRectangle width="30" height="30" as="alternateBounds" />
          </mxGeometry>
        </mxCell>
        <mxCell id="YLiVXb2pXkyYQfCGrXQz-218" value="num_dia" style="shape=partialRectangle;connectable=0;fillColor=none;top=0;left=0;bottom=0;right=0;align=left;spacingLeft=6;overflow=hidden;whiteSpace=wrap;html=1;" vertex="1" parent="YLiVXb2pXkyYQfCGrXQz-216">
          <mxGeometry x="30" width="150" height="30" as="geometry">
            <mxRectangle width="150" height="30" as="alternateBounds" />
          </mxGeometry>
        </mxCell>
        <mxCell id="YLiVXb2pXkyYQfCGrXQz-219" value="Agente" style="shape=table;startSize=30;container=1;collapsible=1;childLayout=tableLayout;fixedRows=1;rowLines=0;fontStyle=1;align=center;resizeLast=1;html=1;" vertex="1" parent="1">
          <mxGeometry x="4550" y="205" width="180" height="150" as="geometry" />
        </mxCell>
        <mxCell id="YLiVXb2pXkyYQfCGrXQz-220" value="" style="shape=tableRow;horizontal=0;startSize=0;swimlaneHead=0;swimlaneBody=0;fillColor=none;collapsible=0;dropTarget=0;points=[[0,0.5],[1,0.5]];portConstraint=eastwest;top=0;left=0;right=0;bottom=1;" vertex="1" parent="YLiVXb2pXkyYQfCGrXQz-219">
          <mxGeometry y="30" width="180" height="30" as="geometry" />
        </mxCell>
        <mxCell id="YLiVXb2pXkyYQfCGrXQz-221" value="PK" style="shape=partialRectangle;connectable=0;fillColor=none;top=0;left=0;bottom=0;right=0;fontStyle=1;overflow=hidden;whiteSpace=wrap;html=1;" vertex="1" parent="YLiVXb2pXkyYQfCGrXQz-220">
          <mxGeometry width="30" height="30" as="geometry">
            <mxRectangle width="30" height="30" as="alternateBounds" />
          </mxGeometry>
        </mxCell>
        <mxCell id="YLiVXb2pXkyYQfCGrXQz-222" value="idAgente" style="shape=partialRectangle;connectable=0;fillColor=none;top=0;left=0;bottom=0;right=0;align=left;spacingLeft=6;fontStyle=5;overflow=hidden;whiteSpace=wrap;html=1;" vertex="1" parent="YLiVXb2pXkyYQfCGrXQz-220">
          <mxGeometry x="30" width="150" height="30" as="geometry">
            <mxRectangle width="150" height="30" as="alternateBounds" />
          </mxGeometry>
        </mxCell>
        <mxCell id="YLiVXb2pXkyYQfCGrXQz-223" value="" style="shape=tableRow;horizontal=0;startSize=0;swimlaneHead=0;swimlaneBody=0;fillColor=none;collapsible=0;dropTarget=0;points=[[0,0.5],[1,0.5]];portConstraint=eastwest;top=0;left=0;right=0;bottom=0;" vertex="1" parent="YLiVXb2pXkyYQfCGrXQz-219">
          <mxGeometry y="60" width="180" height="30" as="geometry" />
        </mxCell>
        <mxCell id="YLiVXb2pXkyYQfCGrXQz-224" value="" style="shape=partialRectangle;connectable=0;fillColor=none;top=0;left=0;bottom=0;right=0;editable=1;overflow=hidden;whiteSpace=wrap;html=1;" vertex="1" parent="YLiVXb2pXkyYQfCGrXQz-223">
          <mxGeometry width="30" height="30" as="geometry">
            <mxRectangle width="30" height="30" as="alternateBounds" />
          </mxGeometry>
        </mxCell>
        <mxCell id="YLiVXb2pXkyYQfCGrXQz-225" value="idTipoAgente" style="shape=partialRectangle;connectable=0;fillColor=none;top=0;left=0;bottom=0;right=0;align=left;spacingLeft=6;overflow=hidden;whiteSpace=wrap;html=1;" vertex="1" parent="YLiVXb2pXkyYQfCGrXQz-223">
          <mxGeometry x="30" width="150" height="30" as="geometry">
            <mxRectangle width="150" height="30" as="alternateBounds" />
          </mxGeometry>
        </mxCell>
        <mxCell id="YLiVXb2pXkyYQfCGrXQz-226" value="" style="shape=tableRow;horizontal=0;startSize=0;swimlaneHead=0;swimlaneBody=0;fillColor=none;collapsible=0;dropTarget=0;points=[[0,0.5],[1,0.5]];portConstraint=eastwest;top=0;left=0;right=0;bottom=0;" vertex="1" parent="YLiVXb2pXkyYQfCGrXQz-219">
          <mxGeometry y="90" width="180" height="30" as="geometry" />
        </mxCell>
        <mxCell id="YLiVXb2pXkyYQfCGrXQz-227" value="" style="shape=partialRectangle;connectable=0;fillColor=none;top=0;left=0;bottom=0;right=0;editable=1;overflow=hidden;whiteSpace=wrap;html=1;" vertex="1" parent="YLiVXb2pXkyYQfCGrXQz-226">
          <mxGeometry width="30" height="30" as="geometry">
            <mxRectangle width="30" height="30" as="alternateBounds" />
          </mxGeometry>
        </mxCell>
        <mxCell id="YLiVXb2pXkyYQfCGrXQz-228" value="nombreTipo" style="shape=partialRectangle;connectable=0;fillColor=none;top=0;left=0;bottom=0;right=0;align=left;spacingLeft=6;overflow=hidden;whiteSpace=wrap;html=1;" vertex="1" parent="YLiVXb2pXkyYQfCGrXQz-226">
          <mxGeometry x="30" width="150" height="30" as="geometry">
            <mxRectangle width="150" height="30" as="alternateBounds" />
          </mxGeometry>
        </mxCell>
        <mxCell id="YLiVXb2pXkyYQfCGrXQz-229" value="" style="shape=tableRow;horizontal=0;startSize=0;swimlaneHead=0;swimlaneBody=0;fillColor=none;collapsible=0;dropTarget=0;points=[[0,0.5],[1,0.5]];portConstraint=eastwest;top=0;left=0;right=0;bottom=0;" vertex="1" parent="YLiVXb2pXkyYQfCGrXQz-219">
          <mxGeometry y="120" width="180" height="30" as="geometry" />
        </mxCell>
        <mxCell id="YLiVXb2pXkyYQfCGrXQz-230" value="" style="shape=partialRectangle;connectable=0;fillColor=none;top=0;left=0;bottom=0;right=0;editable=1;overflow=hidden;whiteSpace=wrap;html=1;" vertex="1" parent="YLiVXb2pXkyYQfCGrXQz-229">
          <mxGeometry width="30" height="30" as="geometry">
            <mxRectangle width="30" height="30" as="alternateBounds" />
          </mxGeometry>
        </mxCell>
        <mxCell id="YLiVXb2pXkyYQfCGrXQz-231" value="nombreAgente" style="shape=partialRectangle;connectable=0;fillColor=none;top=0;left=0;bottom=0;right=0;align=left;spacingLeft=6;overflow=hidden;whiteSpace=wrap;html=1;" vertex="1" parent="YLiVXb2pXkyYQfCGrXQz-229">
          <mxGeometry x="30" width="150" height="30" as="geometry">
            <mxRectangle width="150" height="30" as="alternateBounds" />
          </mxGeometry>
        </mxCell>
        <mxCell id="YLiVXb2pXkyYQfCGrXQz-232" value="" style="rounded=0;whiteSpace=wrap;html=1;shadow=1;fillColor=#FFF2CC;" vertex="1" parent="1">
          <mxGeometry x="3713" y="580" width="160" height="158" as="geometry" />
        </mxCell>
        <mxCell id="YLiVXb2pXkyYQfCGrXQz-233" value="Satisfacción" style="text;html=1;align=center;verticalAlign=middle;resizable=0;points=[];autosize=1;strokeColor=none;fillColor=none;" vertex="1" parent="1">
          <mxGeometry x="3713" y="580" width="90" height="30" as="geometry" />
        </mxCell>
        <mxCell id="YLiVXb2pXkyYQfCGrXQz-234" style="edgeStyle=orthogonalEdgeStyle;rounded=0;orthogonalLoop=1;jettySize=auto;html=1;entryX=0.5;entryY=1;entryDx=0;entryDy=0;" edge="1" parent="1" source="YLiVXb2pXkyYQfCGrXQz-235" target="YLiVXb2pXkyYQfCGrXQz-236">
          <mxGeometry relative="1" as="geometry" />
        </mxCell>
        <mxCell id="YLiVXb2pXkyYQfCGrXQz-235" value="Valor&lt;br&gt;id_pregunta&lt;br&gt;opcion_elegida" style="rounded=0;whiteSpace=wrap;html=1;" vertex="1" parent="1">
          <mxGeometry x="3738" y="669" width="110" height="59" as="geometry" />
        </mxCell>
        <mxCell id="YLiVXb2pXkyYQfCGrXQz-236" value="Pregunta&lt;br&gt;id_pregunta&lt;br&gt;descripcion" style="rounded=0;whiteSpace=wrap;html=1;" vertex="1" parent="1">
          <mxGeometry x="3738" y="608" width="110" height="42" as="geometry" />
        </mxCell>
        <mxCell id="YLiVXb2pXkyYQfCGrXQz-237" value="Satisfaccion" style="shape=table;startSize=30;container=1;collapsible=1;childLayout=tableLayout;fixedRows=1;rowLines=0;fontStyle=1;align=center;resizeLast=1;html=1;" vertex="1" parent="1">
          <mxGeometry x="4010" y="605" width="180" height="120" as="geometry" />
        </mxCell>
        <mxCell id="YLiVXb2pXkyYQfCGrXQz-238" value="" style="shape=tableRow;horizontal=0;startSize=0;swimlaneHead=0;swimlaneBody=0;fillColor=none;collapsible=0;dropTarget=0;points=[[0,0.5],[1,0.5]];portConstraint=eastwest;top=0;left=0;right=0;bottom=1;" vertex="1" parent="YLiVXb2pXkyYQfCGrXQz-237">
          <mxGeometry y="30" width="180" height="30" as="geometry" />
        </mxCell>
        <mxCell id="YLiVXb2pXkyYQfCGrXQz-239" value="PK" style="shape=partialRectangle;connectable=0;fillColor=none;top=0;left=0;bottom=0;right=0;fontStyle=1;overflow=hidden;whiteSpace=wrap;html=1;" vertex="1" parent="YLiVXb2pXkyYQfCGrXQz-238">
          <mxGeometry width="30" height="30" as="geometry">
            <mxRectangle width="30" height="30" as="alternateBounds" />
          </mxGeometry>
        </mxCell>
        <mxCell id="YLiVXb2pXkyYQfCGrXQz-240" value="idPregunta" style="shape=partialRectangle;connectable=0;fillColor=none;top=0;left=0;bottom=0;right=0;align=left;spacingLeft=6;fontStyle=5;overflow=hidden;whiteSpace=wrap;html=1;" vertex="1" parent="YLiVXb2pXkyYQfCGrXQz-238">
          <mxGeometry x="30" width="150" height="30" as="geometry">
            <mxRectangle width="150" height="30" as="alternateBounds" />
          </mxGeometry>
        </mxCell>
        <mxCell id="YLiVXb2pXkyYQfCGrXQz-241" value="" style="shape=tableRow;horizontal=0;startSize=0;swimlaneHead=0;swimlaneBody=0;fillColor=none;collapsible=0;dropTarget=0;points=[[0,0.5],[1,0.5]];portConstraint=eastwest;top=0;left=0;right=0;bottom=0;" vertex="1" parent="YLiVXb2pXkyYQfCGrXQz-237">
          <mxGeometry y="60" width="180" height="30" as="geometry" />
        </mxCell>
        <mxCell id="YLiVXb2pXkyYQfCGrXQz-242" value="" style="shape=partialRectangle;connectable=0;fillColor=none;top=0;left=0;bottom=0;right=0;editable=1;overflow=hidden;whiteSpace=wrap;html=1;" vertex="1" parent="YLiVXb2pXkyYQfCGrXQz-241">
          <mxGeometry width="30" height="30" as="geometry">
            <mxRectangle width="30" height="30" as="alternateBounds" />
          </mxGeometry>
        </mxCell>
        <mxCell id="YLiVXb2pXkyYQfCGrXQz-243" value="descripcion" style="shape=partialRectangle;connectable=0;fillColor=none;top=0;left=0;bottom=0;right=0;align=left;spacingLeft=6;overflow=hidden;whiteSpace=wrap;html=1;" vertex="1" parent="YLiVXb2pXkyYQfCGrXQz-241">
          <mxGeometry x="30" width="150" height="30" as="geometry">
            <mxRectangle width="150" height="30" as="alternateBounds" />
          </mxGeometry>
        </mxCell>
        <mxCell id="YLiVXb2pXkyYQfCGrXQz-244" value="" style="shape=tableRow;horizontal=0;startSize=0;swimlaneHead=0;swimlaneBody=0;fillColor=none;collapsible=0;dropTarget=0;points=[[0,0.5],[1,0.5]];portConstraint=eastwest;top=0;left=0;right=0;bottom=0;" vertex="1" parent="YLiVXb2pXkyYQfCGrXQz-237">
          <mxGeometry y="90" width="180" height="30" as="geometry" />
        </mxCell>
        <mxCell id="YLiVXb2pXkyYQfCGrXQz-245" value="" style="shape=partialRectangle;connectable=0;fillColor=none;top=0;left=0;bottom=0;right=0;editable=1;overflow=hidden;whiteSpace=wrap;html=1;" vertex="1" parent="YLiVXb2pXkyYQfCGrXQz-244">
          <mxGeometry width="30" height="30" as="geometry">
            <mxRectangle width="30" height="30" as="alternateBounds" />
          </mxGeometry>
        </mxCell>
        <mxCell id="YLiVXb2pXkyYQfCGrXQz-246" value="opcionElegida" style="shape=partialRectangle;connectable=0;fillColor=none;top=0;left=0;bottom=0;right=0;align=left;spacingLeft=6;overflow=hidden;whiteSpace=wrap;html=1;" vertex="1" parent="YLiVXb2pXkyYQfCGrXQz-244">
          <mxGeometry x="30" width="150" height="30" as="geometry">
            <mxRectangle width="150" height="30" as="alternateBounds" />
          </mxGeometry>
        </mxCell>
        <mxCell id="YLiVXb2pXkyYQfCGrXQz-260" value="" style="edgeStyle=entityRelationEdgeStyle;fontSize=12;html=1;endArrow=ERzeroToMany;startArrow=ERmandOne;rounded=0;entryX=0;entryY=0.5;entryDx=0;entryDy=0;exitX=1;exitY=0.5;exitDx=0;exitDy=0;" edge="1" parent="1" source="YLiVXb2pXkyYQfCGrXQz-162" target="YLiVXb2pXkyYQfCGrXQz-117">
          <mxGeometry width="100" height="100" relative="1" as="geometry">
            <mxPoint x="2940" y="1350" as="sourcePoint" />
            <mxPoint x="3040" y="1250" as="targetPoint" />
          </mxGeometry>
        </mxCell>
        <mxCell id="YLiVXb2pXkyYQfCGrXQz-261" value="" style="edgeStyle=entityRelationEdgeStyle;fontSize=12;html=1;endArrow=ERzeroToMany;startArrow=ERmandOne;rounded=0;exitX=0;exitY=0.5;exitDx=0;exitDy=0;entryX=1;entryY=0.5;entryDx=0;entryDy=0;" edge="1" parent="1" source="YLiVXb2pXkyYQfCGrXQz-152" target="YLiVXb2pXkyYQfCGrXQz-117">
          <mxGeometry width="100" height="100" relative="1" as="geometry">
            <mxPoint x="3500" y="1200" as="sourcePoint" />
            <mxPoint x="3600" y="1100" as="targetPoint" />
          </mxGeometry>
        </mxCell>
        <mxCell id="YLiVXb2pXkyYQfCGrXQz-262" value="" style="edgeStyle=entityRelationEdgeStyle;fontSize=12;html=1;endArrow=ERzeroToMany;startArrow=ERmandOne;rounded=0;exitX=1;exitY=0.5;exitDx=0;exitDy=0;entryX=0;entryY=0.5;entryDx=0;entryDy=0;" edge="1" parent="1" source="YLiVXb2pXkyYQfCGrXQz-136" target="YLiVXb2pXkyYQfCGrXQz-114">
          <mxGeometry width="100" height="100" relative="1" as="geometry">
            <mxPoint x="3500" y="1200" as="sourcePoint" />
            <mxPoint x="3600" y="1100" as="targetPoint" />
          </mxGeometry>
        </mxCell>
        <mxCell id="YLiVXb2pXkyYQfCGrXQz-263" value="" style="edgeStyle=entityRelationEdgeStyle;fontSize=12;html=1;endArrow=ERzeroToMany;startArrow=ERmandOne;rounded=0;exitX=0;exitY=0.5;exitDx=0;exitDy=0;entryX=1;entryY=0.5;entryDx=0;entryDy=0;" edge="1" parent="1" source="YLiVXb2pXkyYQfCGrXQz-81" target="YLiVXb2pXkyYQfCGrXQz-22">
          <mxGeometry width="100" height="100" relative="1" as="geometry">
            <mxPoint x="3370" y="500" as="sourcePoint" />
            <mxPoint x="3310" y="745" as="targetPoint" />
          </mxGeometry>
        </mxCell>
        <mxCell id="YLiVXb2pXkyYQfCGrXQz-264" value="" style="edgeStyle=entityRelationEdgeStyle;fontSize=12;html=1;endArrow=ERzeroToMany;startArrow=ERmandOne;rounded=0;exitX=1;exitY=0.5;exitDx=0;exitDy=0;entryX=0;entryY=0.5;entryDx=0;entryDy=0;" edge="1" parent="1" source="YLiVXb2pXkyYQfCGrXQz-68" target="YLiVXb2pXkyYQfCGrXQz-22">
          <mxGeometry width="100" height="100" relative="1" as="geometry">
            <mxPoint x="3350" y="315" as="sourcePoint" />
            <mxPoint x="3260" y="580" as="targetPoint" />
          </mxGeometry>
        </mxCell>
        <mxCell id="YLiVXb2pXkyYQfCGrXQz-265" value="" style="edgeStyle=entityRelationEdgeStyle;fontSize=12;html=1;endArrow=ERzeroToMany;startArrow=ERmandOne;rounded=0;exitX=1;exitY=0.5;exitDx=0;exitDy=0;entryX=0;entryY=0.5;entryDx=0;entryDy=0;" edge="1" parent="1" source="YLiVXb2pXkyYQfCGrXQz-210" target="YLiVXb2pXkyYQfCGrXQz-191">
          <mxGeometry width="100" height="100" relative="1" as="geometry">
            <mxPoint x="4240" y="320" as="sourcePoint" />
            <mxPoint x="4180" y="565" as="targetPoint" />
          </mxGeometry>
        </mxCell>
        <mxCell id="YLiVXb2pXkyYQfCGrXQz-266" value="" style="edgeStyle=entityRelationEdgeStyle;fontSize=12;html=1;endArrow=ERzeroToMany;startArrow=ERmandOne;rounded=0;exitX=1;exitY=0.5;exitDx=0;exitDy=0;entryX=0;entryY=0.5;entryDx=0;entryDy=0;" edge="1" parent="1" source="YLiVXb2pXkyYQfCGrXQz-241" target="YLiVXb2pXkyYQfCGrXQz-194">
          <mxGeometry width="100" height="100" relative="1" as="geometry">
            <mxPoint x="4290" y="675" as="sourcePoint" />
            <mxPoint x="4380" y="850" as="targetPoint" />
          </mxGeometry>
        </mxCell>
        <mxCell id="YLiVXb2pXkyYQfCGrXQz-267" value="" style="edgeStyle=entityRelationEdgeStyle;fontSize=12;html=1;endArrow=ERzeroToMany;startArrow=ERmandOne;rounded=0;exitX=0;exitY=0.5;exitDx=0;exitDy=0;entryX=1;entryY=0.5;entryDx=0;entryDy=0;" edge="1" parent="1" source="YLiVXb2pXkyYQfCGrXQz-226" target="YLiVXb2pXkyYQfCGrXQz-191">
          <mxGeometry width="100" height="100" relative="1" as="geometry">
            <mxPoint x="4325" y="407.5" as="sourcePoint" />
            <mxPoint x="4415" y="242.5" as="targetPoint" />
          </mxGeometry>
        </mxCell>
        <mxCell id="YLiVXb2pXkyYQfCGrXQz-268" value="" style="rounded=0;whiteSpace=wrap;html=1;fillColor=#FFF2CC;" vertex="1" parent="1">
          <mxGeometry x="3620" y="871" width="340" height="270" as="geometry" />
        </mxCell>
        <mxCell id="YLiVXb2pXkyYQfCGrXQz-269" value="&lt;b&gt;Retroalimentación&lt;/b&gt;" style="ellipse;whiteSpace=wrap;html=1;fillColor=#99FFFF;" vertex="1" parent="1">
          <mxGeometry x="3725" y="1001" width="130" height="50" as="geometry" />
        </mxCell>
        <mxCell id="YLiVXb2pXkyYQfCGrXQz-270" value="Agente" style="rounded=0;whiteSpace=wrap;html=1;" vertex="1" parent="1">
          <mxGeometry x="3705" y="1081" width="70" height="30" as="geometry" />
        </mxCell>
        <mxCell id="YLiVXb2pXkyYQfCGrXQz-271" value="" style="endArrow=none;html=1;rounded=0;exitX=0.5;exitY=0;exitDx=0;exitDy=0;entryX=0.5;entryY=1;entryDx=0;entryDy=0;" edge="1" parent="1" source="YLiVXb2pXkyYQfCGrXQz-270" target="YLiVXb2pXkyYQfCGrXQz-269">
          <mxGeometry width="50" height="50" relative="1" as="geometry">
            <mxPoint x="3860" y="1103" as="sourcePoint" />
            <mxPoint x="3785" y="1053" as="targetPoint" />
          </mxGeometry>
        </mxCell>
        <mxCell id="YLiVXb2pXkyYQfCGrXQz-272" value="Satisfacción" style="rounded=0;whiteSpace=wrap;html=1;" vertex="1" parent="1">
          <mxGeometry x="3805" y="1081" width="70" height="30" as="geometry" />
        </mxCell>
        <mxCell id="YLiVXb2pXkyYQfCGrXQz-273" value="" style="endArrow=none;html=1;rounded=0;entryX=0.5;entryY=1;entryDx=0;entryDy=0;exitX=0.5;exitY=0;exitDx=0;exitDy=0;" edge="1" parent="1" source="YLiVXb2pXkyYQfCGrXQz-272" target="YLiVXb2pXkyYQfCGrXQz-269">
          <mxGeometry width="50" height="50" relative="1" as="geometry">
            <mxPoint x="3875" y="1078" as="sourcePoint" />
            <mxPoint x="3817" y="1046" as="targetPoint" />
          </mxGeometry>
        </mxCell>
        <mxCell id="YLiVXb2pXkyYQfCGrXQz-274" value="Atención" style="rounded=0;whiteSpace=wrap;html=1;" vertex="1" parent="1">
          <mxGeometry x="3635" y="941" width="70" height="30" as="geometry" />
        </mxCell>
        <mxCell id="YLiVXb2pXkyYQfCGrXQz-275" value="Ventas" style="rounded=0;whiteSpace=wrap;html=1;" vertex="1" parent="1">
          <mxGeometry x="3700" y="891" width="70" height="30" as="geometry" />
        </mxCell>
        <mxCell id="YLiVXb2pXkyYQfCGrXQz-276" value="Duración" style="rounded=0;whiteSpace=wrap;html=1;" vertex="1" parent="1">
          <mxGeometry x="3870" y="942.5" width="70" height="30" as="geometry" />
        </mxCell>
        <mxCell id="YLiVXb2pXkyYQfCGrXQz-277" value="" style="endArrow=classic;html=1;rounded=0;exitX=0;exitY=0;exitDx=0;exitDy=0;entryX=0.5;entryY=1;entryDx=0;entryDy=0;" edge="1" parent="1" source="YLiVXb2pXkyYQfCGrXQz-269" target="YLiVXb2pXkyYQfCGrXQz-274">
          <mxGeometry width="50" height="50" relative="1" as="geometry">
            <mxPoint x="3748" y="999.5" as="sourcePoint" />
            <mxPoint x="3845" y="1062.5" as="targetPoint" />
          </mxGeometry>
        </mxCell>
        <mxCell id="YLiVXb2pXkyYQfCGrXQz-278" value="" style="endArrow=classic;html=1;rounded=0;entryX=0.5;entryY=1;entryDx=0;entryDy=0;" edge="1" parent="1" source="YLiVXb2pXkyYQfCGrXQz-269" target="YLiVXb2pXkyYQfCGrXQz-275">
          <mxGeometry width="50" height="50" relative="1" as="geometry">
            <mxPoint x="3780" y="992.5" as="sourcePoint" />
            <mxPoint x="3690" y="982.5" as="targetPoint" />
          </mxGeometry>
        </mxCell>
        <mxCell id="YLiVXb2pXkyYQfCGrXQz-279" value="" style="endArrow=classic;html=1;rounded=0;entryX=0.5;entryY=1;entryDx=0;entryDy=0;exitX=1;exitY=0;exitDx=0;exitDy=0;" edge="1" parent="1" source="YLiVXb2pXkyYQfCGrXQz-269" target="YLiVXb2pXkyYQfCGrXQz-276">
          <mxGeometry width="50" height="50" relative="1" as="geometry">
            <mxPoint x="3875" y="1008" as="sourcePoint" />
            <mxPoint x="3824.04" y="932.5" as="targetPoint" />
          </mxGeometry>
        </mxCell>
        <mxCell id="YLiVXb2pXkyYQfCGrXQz-280" value="Ingresos" style="rounded=0;whiteSpace=wrap;html=1;" vertex="1" parent="1">
          <mxGeometry x="3805" y="891" width="70" height="30" as="geometry" />
        </mxCell>
        <mxCell id="YLiVXb2pXkyYQfCGrXQz-281" value="" style="endArrow=classic;html=1;rounded=0;entryX=0.5;entryY=1;entryDx=0;entryDy=0;exitX=0.458;exitY=0.009;exitDx=0;exitDy=0;exitPerimeter=0;" edge="1" parent="1" source="YLiVXb2pXkyYQfCGrXQz-269" target="YLiVXb2pXkyYQfCGrXQz-280">
          <mxGeometry width="50" height="50" relative="1" as="geometry">
            <mxPoint x="3793" y="1011" as="sourcePoint" />
            <mxPoint x="3770" y="931" as="targetPoint" />
          </mxGeometry>
        </mxCell>
        <mxCell id="YLiVXb2pXkyYQfCGrXQz-289" value="RetroAlimentacion" style="shape=table;startSize=30;container=1;collapsible=1;childLayout=tableLayout;fixedRows=1;rowLines=0;fontStyle=1;align=center;resizeLast=1;html=1;" vertex="1" parent="1">
          <mxGeometry x="4280" y="1111.5" width="180" height="210" as="geometry">
            <mxRectangle x="2790" y="401.5" width="100" height="30" as="alternateBounds" />
          </mxGeometry>
        </mxCell>
        <mxCell id="YLiVXb2pXkyYQfCGrXQz-290" value="" style="shape=tableRow;horizontal=0;startSize=0;swimlaneHead=0;swimlaneBody=0;fillColor=none;collapsible=0;dropTarget=0;points=[[0,0.5],[1,0.5]];portConstraint=eastwest;top=0;left=0;right=0;bottom=1;" vertex="1" parent="YLiVXb2pXkyYQfCGrXQz-289">
          <mxGeometry y="30" width="180" height="30" as="geometry" />
        </mxCell>
        <mxCell id="YLiVXb2pXkyYQfCGrXQz-291" value="PK" style="shape=partialRectangle;connectable=0;fillColor=none;top=0;left=0;bottom=0;right=0;fontStyle=1;overflow=hidden;whiteSpace=wrap;html=1;" vertex="1" parent="YLiVXb2pXkyYQfCGrXQz-290">
          <mxGeometry width="30" height="30" as="geometry">
            <mxRectangle width="30" height="30" as="alternateBounds" />
          </mxGeometry>
        </mxCell>
        <mxCell id="YLiVXb2pXkyYQfCGrXQz-292" value="RetroalimentacionId" style="shape=partialRectangle;connectable=0;fillColor=none;top=0;left=0;bottom=0;right=0;align=left;spacingLeft=6;fontStyle=5;overflow=hidden;whiteSpace=wrap;html=1;" vertex="1" parent="YLiVXb2pXkyYQfCGrXQz-290">
          <mxGeometry x="30" width="150" height="30" as="geometry">
            <mxRectangle width="150" height="30" as="alternateBounds" />
          </mxGeometry>
        </mxCell>
        <mxCell id="YLiVXb2pXkyYQfCGrXQz-293" value="" style="shape=tableRow;horizontal=0;startSize=0;swimlaneHead=0;swimlaneBody=0;fillColor=none;collapsible=0;dropTarget=0;points=[[0,0.5],[1,0.5]];portConstraint=eastwest;top=0;left=0;right=0;bottom=0;" vertex="1" parent="YLiVXb2pXkyYQfCGrXQz-289">
          <mxGeometry y="60" width="180" height="30" as="geometry" />
        </mxCell>
        <mxCell id="YLiVXb2pXkyYQfCGrXQz-294" value="" style="shape=partialRectangle;connectable=0;fillColor=none;top=0;left=0;bottom=0;right=0;editable=1;overflow=hidden;whiteSpace=wrap;html=1;" vertex="1" parent="YLiVXb2pXkyYQfCGrXQz-293">
          <mxGeometry width="30" height="30" as="geometry">
            <mxRectangle width="30" height="30" as="alternateBounds" />
          </mxGeometry>
        </mxCell>
        <mxCell id="YLiVXb2pXkyYQfCGrXQz-295" value="clientes_atendidos" style="shape=partialRectangle;connectable=0;fillColor=none;top=0;left=0;bottom=0;right=0;align=left;spacingLeft=6;overflow=hidden;whiteSpace=wrap;html=1;" vertex="1" parent="YLiVXb2pXkyYQfCGrXQz-293">
          <mxGeometry x="30" width="150" height="30" as="geometry">
            <mxRectangle width="150" height="30" as="alternateBounds" />
          </mxGeometry>
        </mxCell>
        <mxCell id="YLiVXb2pXkyYQfCGrXQz-296" value="" style="shape=tableRow;horizontal=0;startSize=0;swimlaneHead=0;swimlaneBody=0;fillColor=none;collapsible=0;dropTarget=0;points=[[0,0.5],[1,0.5]];portConstraint=eastwest;top=0;left=0;right=0;bottom=0;" vertex="1" parent="YLiVXb2pXkyYQfCGrXQz-289">
          <mxGeometry y="90" width="180" height="30" as="geometry" />
        </mxCell>
        <mxCell id="YLiVXb2pXkyYQfCGrXQz-297" value="" style="shape=partialRectangle;connectable=0;fillColor=none;top=0;left=0;bottom=0;right=0;editable=1;overflow=hidden;whiteSpace=wrap;html=1;" vertex="1" parent="YLiVXb2pXkyYQfCGrXQz-296">
          <mxGeometry width="30" height="30" as="geometry">
            <mxRectangle width="30" height="30" as="alternateBounds" />
          </mxGeometry>
        </mxCell>
        <mxCell id="YLiVXb2pXkyYQfCGrXQz-298" value="unidades_vendidas" style="shape=partialRectangle;connectable=0;fillColor=none;top=0;left=0;bottom=0;right=0;align=left;spacingLeft=6;overflow=hidden;whiteSpace=wrap;html=1;" vertex="1" parent="YLiVXb2pXkyYQfCGrXQz-296">
          <mxGeometry x="30" width="150" height="30" as="geometry">
            <mxRectangle width="150" height="30" as="alternateBounds" />
          </mxGeometry>
        </mxCell>
        <mxCell id="YLiVXb2pXkyYQfCGrXQz-299" value="" style="shape=tableRow;horizontal=0;startSize=0;swimlaneHead=0;swimlaneBody=0;fillColor=none;collapsible=0;dropTarget=0;points=[[0,0.5],[1,0.5]];portConstraint=eastwest;top=0;left=0;right=0;bottom=0;" vertex="1" parent="YLiVXb2pXkyYQfCGrXQz-289">
          <mxGeometry y="120" width="180" height="30" as="geometry" />
        </mxCell>
        <mxCell id="YLiVXb2pXkyYQfCGrXQz-300" value="" style="shape=partialRectangle;connectable=0;fillColor=none;top=0;left=0;bottom=0;right=0;editable=1;overflow=hidden;whiteSpace=wrap;html=1;" vertex="1" parent="YLiVXb2pXkyYQfCGrXQz-299">
          <mxGeometry width="30" height="30" as="geometry">
            <mxRectangle width="30" height="30" as="alternateBounds" />
          </mxGeometry>
        </mxCell>
        <mxCell id="YLiVXb2pXkyYQfCGrXQz-301" value="monto_vendido" style="shape=partialRectangle;connectable=0;fillColor=none;top=0;left=0;bottom=0;right=0;align=left;spacingLeft=6;overflow=hidden;whiteSpace=wrap;html=1;" vertex="1" parent="YLiVXb2pXkyYQfCGrXQz-299">
          <mxGeometry x="30" width="150" height="30" as="geometry">
            <mxRectangle width="150" height="30" as="alternateBounds" />
          </mxGeometry>
        </mxCell>
        <mxCell id="YLiVXb2pXkyYQfCGrXQz-302" value="" style="shape=tableRow;horizontal=0;startSize=0;swimlaneHead=0;swimlaneBody=0;fillColor=none;collapsible=0;dropTarget=0;points=[[0,0.5],[1,0.5]];portConstraint=eastwest;top=0;left=0;right=0;bottom=0;" vertex="1" parent="YLiVXb2pXkyYQfCGrXQz-289">
          <mxGeometry y="150" width="180" height="30" as="geometry" />
        </mxCell>
        <mxCell id="YLiVXb2pXkyYQfCGrXQz-303" value="" style="shape=partialRectangle;connectable=0;fillColor=none;top=0;left=0;bottom=0;right=0;editable=1;overflow=hidden;whiteSpace=wrap;html=1;" vertex="1" parent="YLiVXb2pXkyYQfCGrXQz-302">
          <mxGeometry width="30" height="30" as="geometry">
            <mxRectangle width="30" height="30" as="alternateBounds" />
          </mxGeometry>
        </mxCell>
        <mxCell id="YLiVXb2pXkyYQfCGrXQz-304" value="precio_unitario" style="shape=partialRectangle;connectable=0;fillColor=none;top=0;left=0;bottom=0;right=0;align=left;spacingLeft=6;overflow=hidden;whiteSpace=wrap;html=1;" vertex="1" parent="YLiVXb2pXkyYQfCGrXQz-302">
          <mxGeometry x="30" width="150" height="30" as="geometry">
            <mxRectangle width="150" height="30" as="alternateBounds" />
          </mxGeometry>
        </mxCell>
        <mxCell id="YLiVXb2pXkyYQfCGrXQz-305" value="" style="shape=tableRow;horizontal=0;startSize=0;swimlaneHead=0;swimlaneBody=0;fillColor=none;collapsible=0;dropTarget=0;points=[[0,0.5],[1,0.5]];portConstraint=eastwest;top=0;left=0;right=0;bottom=0;" vertex="1" parent="YLiVXb2pXkyYQfCGrXQz-289">
          <mxGeometry y="180" width="180" height="30" as="geometry" />
        </mxCell>
        <mxCell id="YLiVXb2pXkyYQfCGrXQz-306" value="" style="shape=partialRectangle;connectable=0;fillColor=none;top=0;left=0;bottom=0;right=0;editable=1;overflow=hidden;whiteSpace=wrap;html=1;" vertex="1" parent="YLiVXb2pXkyYQfCGrXQz-305">
          <mxGeometry width="30" height="30" as="geometry">
            <mxRectangle width="30" height="30" as="alternateBounds" />
          </mxGeometry>
        </mxCell>
        <mxCell id="YLiVXb2pXkyYQfCGrXQz-307" value="minutos_empleados" style="shape=partialRectangle;connectable=0;fillColor=none;top=0;left=0;bottom=0;right=0;align=left;spacingLeft=6;overflow=hidden;whiteSpace=wrap;html=1;" vertex="1" parent="YLiVXb2pXkyYQfCGrXQz-305">
          <mxGeometry x="30" width="150" height="30" as="geometry">
            <mxRectangle width="150" height="30" as="alternateBounds" />
          </mxGeometry>
        </mxCell>
        <mxCell id="YLiVXb2pXkyYQfCGrXQz-308" value="Satisfaccion" style="shape=table;startSize=30;container=1;collapsible=1;childLayout=tableLayout;fixedRows=1;rowLines=0;fontStyle=1;align=center;resizeLast=1;html=1;" vertex="1" parent="1">
          <mxGeometry x="4040" y="871" width="180" height="120" as="geometry" />
        </mxCell>
        <mxCell id="YLiVXb2pXkyYQfCGrXQz-309" value="" style="shape=tableRow;horizontal=0;startSize=0;swimlaneHead=0;swimlaneBody=0;fillColor=none;collapsible=0;dropTarget=0;points=[[0,0.5],[1,0.5]];portConstraint=eastwest;top=0;left=0;right=0;bottom=1;" vertex="1" parent="YLiVXb2pXkyYQfCGrXQz-308">
          <mxGeometry y="30" width="180" height="30" as="geometry" />
        </mxCell>
        <mxCell id="YLiVXb2pXkyYQfCGrXQz-310" value="PK" style="shape=partialRectangle;connectable=0;fillColor=none;top=0;left=0;bottom=0;right=0;fontStyle=1;overflow=hidden;whiteSpace=wrap;html=1;" vertex="1" parent="YLiVXb2pXkyYQfCGrXQz-309">
          <mxGeometry width="30" height="30" as="geometry">
            <mxRectangle width="30" height="30" as="alternateBounds" />
          </mxGeometry>
        </mxCell>
        <mxCell id="YLiVXb2pXkyYQfCGrXQz-311" value="idPregunta" style="shape=partialRectangle;connectable=0;fillColor=none;top=0;left=0;bottom=0;right=0;align=left;spacingLeft=6;fontStyle=5;overflow=hidden;whiteSpace=wrap;html=1;" vertex="1" parent="YLiVXb2pXkyYQfCGrXQz-309">
          <mxGeometry x="30" width="150" height="30" as="geometry">
            <mxRectangle width="150" height="30" as="alternateBounds" />
          </mxGeometry>
        </mxCell>
        <mxCell id="YLiVXb2pXkyYQfCGrXQz-312" value="" style="shape=tableRow;horizontal=0;startSize=0;swimlaneHead=0;swimlaneBody=0;fillColor=none;collapsible=0;dropTarget=0;points=[[0,0.5],[1,0.5]];portConstraint=eastwest;top=0;left=0;right=0;bottom=0;" vertex="1" parent="YLiVXb2pXkyYQfCGrXQz-308">
          <mxGeometry y="60" width="180" height="30" as="geometry" />
        </mxCell>
        <mxCell id="YLiVXb2pXkyYQfCGrXQz-313" value="" style="shape=partialRectangle;connectable=0;fillColor=none;top=0;left=0;bottom=0;right=0;editable=1;overflow=hidden;whiteSpace=wrap;html=1;" vertex="1" parent="YLiVXb2pXkyYQfCGrXQz-312">
          <mxGeometry width="30" height="30" as="geometry">
            <mxRectangle width="30" height="30" as="alternateBounds" />
          </mxGeometry>
        </mxCell>
        <mxCell id="YLiVXb2pXkyYQfCGrXQz-314" value="descripcion" style="shape=partialRectangle;connectable=0;fillColor=none;top=0;left=0;bottom=0;right=0;align=left;spacingLeft=6;overflow=hidden;whiteSpace=wrap;html=1;" vertex="1" parent="YLiVXb2pXkyYQfCGrXQz-312">
          <mxGeometry x="30" width="150" height="30" as="geometry">
            <mxRectangle width="150" height="30" as="alternateBounds" />
          </mxGeometry>
        </mxCell>
        <mxCell id="YLiVXb2pXkyYQfCGrXQz-315" value="" style="shape=tableRow;horizontal=0;startSize=0;swimlaneHead=0;swimlaneBody=0;fillColor=none;collapsible=0;dropTarget=0;points=[[0,0.5],[1,0.5]];portConstraint=eastwest;top=0;left=0;right=0;bottom=0;" vertex="1" parent="YLiVXb2pXkyYQfCGrXQz-308">
          <mxGeometry y="90" width="180" height="30" as="geometry" />
        </mxCell>
        <mxCell id="YLiVXb2pXkyYQfCGrXQz-316" value="" style="shape=partialRectangle;connectable=0;fillColor=none;top=0;left=0;bottom=0;right=0;editable=1;overflow=hidden;whiteSpace=wrap;html=1;" vertex="1" parent="YLiVXb2pXkyYQfCGrXQz-315">
          <mxGeometry width="30" height="30" as="geometry">
            <mxRectangle width="30" height="30" as="alternateBounds" />
          </mxGeometry>
        </mxCell>
        <mxCell id="YLiVXb2pXkyYQfCGrXQz-317" value="opcionElegida" style="shape=partialRectangle;connectable=0;fillColor=none;top=0;left=0;bottom=0;right=0;align=left;spacingLeft=6;overflow=hidden;whiteSpace=wrap;html=1;" vertex="1" parent="YLiVXb2pXkyYQfCGrXQz-315">
          <mxGeometry x="30" width="150" height="30" as="geometry">
            <mxRectangle width="150" height="30" as="alternateBounds" />
          </mxGeometry>
        </mxCell>
        <mxCell id="YLiVXb2pXkyYQfCGrXQz-318" value="Agente" style="shape=table;startSize=30;container=1;collapsible=1;childLayout=tableLayout;fixedRows=1;rowLines=0;fontStyle=1;align=center;resizeLast=1;html=1;" vertex="1" parent="1">
          <mxGeometry x="4540" y="870" width="180" height="150" as="geometry" />
        </mxCell>
        <mxCell id="YLiVXb2pXkyYQfCGrXQz-319" value="" style="shape=tableRow;horizontal=0;startSize=0;swimlaneHead=0;swimlaneBody=0;fillColor=none;collapsible=0;dropTarget=0;points=[[0,0.5],[1,0.5]];portConstraint=eastwest;top=0;left=0;right=0;bottom=1;" vertex="1" parent="YLiVXb2pXkyYQfCGrXQz-318">
          <mxGeometry y="30" width="180" height="30" as="geometry" />
        </mxCell>
        <mxCell id="YLiVXb2pXkyYQfCGrXQz-320" value="PK" style="shape=partialRectangle;connectable=0;fillColor=none;top=0;left=0;bottom=0;right=0;fontStyle=1;overflow=hidden;whiteSpace=wrap;html=1;" vertex="1" parent="YLiVXb2pXkyYQfCGrXQz-319">
          <mxGeometry width="30" height="30" as="geometry">
            <mxRectangle width="30" height="30" as="alternateBounds" />
          </mxGeometry>
        </mxCell>
        <mxCell id="YLiVXb2pXkyYQfCGrXQz-321" value="idAgente" style="shape=partialRectangle;connectable=0;fillColor=none;top=0;left=0;bottom=0;right=0;align=left;spacingLeft=6;fontStyle=5;overflow=hidden;whiteSpace=wrap;html=1;" vertex="1" parent="YLiVXb2pXkyYQfCGrXQz-319">
          <mxGeometry x="30" width="150" height="30" as="geometry">
            <mxRectangle width="150" height="30" as="alternateBounds" />
          </mxGeometry>
        </mxCell>
        <mxCell id="YLiVXb2pXkyYQfCGrXQz-322" value="" style="shape=tableRow;horizontal=0;startSize=0;swimlaneHead=0;swimlaneBody=0;fillColor=none;collapsible=0;dropTarget=0;points=[[0,0.5],[1,0.5]];portConstraint=eastwest;top=0;left=0;right=0;bottom=0;" vertex="1" parent="YLiVXb2pXkyYQfCGrXQz-318">
          <mxGeometry y="60" width="180" height="30" as="geometry" />
        </mxCell>
        <mxCell id="YLiVXb2pXkyYQfCGrXQz-323" value="" style="shape=partialRectangle;connectable=0;fillColor=none;top=0;left=0;bottom=0;right=0;editable=1;overflow=hidden;whiteSpace=wrap;html=1;" vertex="1" parent="YLiVXb2pXkyYQfCGrXQz-322">
          <mxGeometry width="30" height="30" as="geometry">
            <mxRectangle width="30" height="30" as="alternateBounds" />
          </mxGeometry>
        </mxCell>
        <mxCell id="YLiVXb2pXkyYQfCGrXQz-324" value="idTipoAgente" style="shape=partialRectangle;connectable=0;fillColor=none;top=0;left=0;bottom=0;right=0;align=left;spacingLeft=6;overflow=hidden;whiteSpace=wrap;html=1;" vertex="1" parent="YLiVXb2pXkyYQfCGrXQz-322">
          <mxGeometry x="30" width="150" height="30" as="geometry">
            <mxRectangle width="150" height="30" as="alternateBounds" />
          </mxGeometry>
        </mxCell>
        <mxCell id="YLiVXb2pXkyYQfCGrXQz-325" value="" style="shape=tableRow;horizontal=0;startSize=0;swimlaneHead=0;swimlaneBody=0;fillColor=none;collapsible=0;dropTarget=0;points=[[0,0.5],[1,0.5]];portConstraint=eastwest;top=0;left=0;right=0;bottom=0;" vertex="1" parent="YLiVXb2pXkyYQfCGrXQz-318">
          <mxGeometry y="90" width="180" height="30" as="geometry" />
        </mxCell>
        <mxCell id="YLiVXb2pXkyYQfCGrXQz-326" value="" style="shape=partialRectangle;connectable=0;fillColor=none;top=0;left=0;bottom=0;right=0;editable=1;overflow=hidden;whiteSpace=wrap;html=1;" vertex="1" parent="YLiVXb2pXkyYQfCGrXQz-325">
          <mxGeometry width="30" height="30" as="geometry">
            <mxRectangle width="30" height="30" as="alternateBounds" />
          </mxGeometry>
        </mxCell>
        <mxCell id="YLiVXb2pXkyYQfCGrXQz-327" value="nombreTipo" style="shape=partialRectangle;connectable=0;fillColor=none;top=0;left=0;bottom=0;right=0;align=left;spacingLeft=6;overflow=hidden;whiteSpace=wrap;html=1;" vertex="1" parent="YLiVXb2pXkyYQfCGrXQz-325">
          <mxGeometry x="30" width="150" height="30" as="geometry">
            <mxRectangle width="150" height="30" as="alternateBounds" />
          </mxGeometry>
        </mxCell>
        <mxCell id="YLiVXb2pXkyYQfCGrXQz-328" value="" style="shape=tableRow;horizontal=0;startSize=0;swimlaneHead=0;swimlaneBody=0;fillColor=none;collapsible=0;dropTarget=0;points=[[0,0.5],[1,0.5]];portConstraint=eastwest;top=0;left=0;right=0;bottom=0;" vertex="1" parent="YLiVXb2pXkyYQfCGrXQz-318">
          <mxGeometry y="120" width="180" height="30" as="geometry" />
        </mxCell>
        <mxCell id="YLiVXb2pXkyYQfCGrXQz-329" value="" style="shape=partialRectangle;connectable=0;fillColor=none;top=0;left=0;bottom=0;right=0;editable=1;overflow=hidden;whiteSpace=wrap;html=1;" vertex="1" parent="YLiVXb2pXkyYQfCGrXQz-328">
          <mxGeometry width="30" height="30" as="geometry">
            <mxRectangle width="30" height="30" as="alternateBounds" />
          </mxGeometry>
        </mxCell>
        <mxCell id="YLiVXb2pXkyYQfCGrXQz-330" value="nombreAgente" style="shape=partialRectangle;connectable=0;fillColor=none;top=0;left=0;bottom=0;right=0;align=left;spacingLeft=6;overflow=hidden;whiteSpace=wrap;html=1;" vertex="1" parent="YLiVXb2pXkyYQfCGrXQz-328">
          <mxGeometry x="30" width="150" height="30" as="geometry">
            <mxRectangle width="150" height="30" as="alternateBounds" />
          </mxGeometry>
        </mxCell>
        <mxCell id="YLiVXb2pXkyYQfCGrXQz-331" value="" style="edgeStyle=entityRelationEdgeStyle;fontSize=12;html=1;endArrow=ERzeroToMany;startArrow=ERmandOne;rounded=0;exitX=1;exitY=0.5;exitDx=0;exitDy=0;entryX=0;entryY=0.5;entryDx=0;entryDy=0;" edge="1" parent="1" source="YLiVXb2pXkyYQfCGrXQz-312" target="YLiVXb2pXkyYQfCGrXQz-293">
          <mxGeometry width="100" height="100" relative="1" as="geometry">
            <mxPoint x="4370" y="1075" as="sourcePoint" />
            <mxPoint x="4490" y="940" as="targetPoint" />
          </mxGeometry>
        </mxCell>
        <mxCell id="YLiVXb2pXkyYQfCGrXQz-332" value="" style="edgeStyle=entityRelationEdgeStyle;fontSize=12;html=1;endArrow=ERzeroToMany;startArrow=ERmandOne;rounded=0;exitX=0;exitY=0.5;exitDx=0;exitDy=0;entryX=1;entryY=0.5;entryDx=0;entryDy=0;" edge="1" parent="1" source="YLiVXb2pXkyYQfCGrXQz-322" target="YLiVXb2pXkyYQfCGrXQz-293">
          <mxGeometry width="100" height="100" relative="1" as="geometry">
            <mxPoint x="4430" y="967" as="sourcePoint" />
            <mxPoint x="4490" y="1207" as="targetPoint" />
          </mxGeometry>
        </mxCell>
      </root>
    </mxGraphModel>
  </diagram>
</mxfile>
